G04 #@! TF.FileFunction,Copper,L2,Bot,Signal*
%FSLAX46Y46*%
G04 Gerber Fmt 4.6, Leading zero omitted, Abs format (unit mm)*
G04 Created by KiCad (PCBNEW (2015-03-05 BZR 5480)-product) date Mon 09 Mar 2015 11:20:18 AM EET*
%MOMM*%
G01*
G04 APERTURE LIST*
%ADD10C,0.100000*%
%ADD11C,1.524000*%
%ADD12C,2.000000*%
%ADD13R,2.999740X2.999740*%
%ADD14C,2.999740*%
%ADD15R,1.998980X1.998980*%
%ADD16C,1.998980*%
%ADD17R,1.524000X1.524000*%
%ADD18R,1.727200X2.032000*%
%ADD19O,1.727200X2.032000*%
%ADD20O,1.699260X3.500120*%
%ADD21C,1.778000*%
%ADD22R,1.778000X1.778000*%
%ADD23C,2.500000*%
%ADD24R,2.032000X1.727200*%
%ADD25O,2.032000X1.727200*%
%ADD26C,0.900000*%
%ADD27C,0.889000*%
%ADD28C,0.450000*%
%ADD29C,1.270000*%
%ADD30C,0.508000*%
%ADD31C,0.254000*%
G04 APERTURE END LIST*
D10*
X91000000Y-89000000D02*
X91000000Y-189000000D01*
X171000000Y-89000000D02*
X91000000Y-89000000D01*
X171000000Y-189000000D02*
X171000000Y-89000000D01*
X91000000Y-189000000D02*
X171000000Y-189000000D01*
D11*
X162306000Y-139446000D03*
X164846000Y-139446000D03*
X162306000Y-136906000D03*
X164846000Y-136906000D03*
D12*
X127890000Y-94550000D03*
X103630000Y-94550000D03*
D13*
X158385000Y-181020000D03*
D14*
X153305000Y-181020000D03*
X148225000Y-181020000D03*
D15*
X130429000Y-171704000D03*
D16*
X126619000Y-171704000D03*
D15*
X125222000Y-158496000D03*
D16*
X127762000Y-158496000D03*
D15*
X135890000Y-102313800D03*
D16*
X133350000Y-102313800D03*
D17*
X115570000Y-171958000D03*
D11*
X118110000Y-171958000D03*
X120650000Y-171958000D03*
D17*
X162306000Y-129286000D03*
D11*
X164846000Y-129286000D03*
X162306000Y-131826000D03*
X164846000Y-131826000D03*
X162306000Y-134366000D03*
X164846000Y-134366000D03*
D18*
X157911800Y-92153800D03*
D19*
X155371800Y-92153800D03*
X152831800Y-92153800D03*
X150291800Y-92153800D03*
X147751800Y-92153800D03*
D18*
X135970000Y-92177800D03*
D19*
X138510000Y-92177800D03*
X141050000Y-92177800D03*
X143590000Y-92177800D03*
D18*
X135970000Y-96177800D03*
D19*
X138510000Y-96177800D03*
X141050000Y-96177800D03*
X143590000Y-96177800D03*
D13*
X110665000Y-181020000D03*
D14*
X105585000Y-181020000D03*
D13*
X120825000Y-181020000D03*
D14*
X115745000Y-181020000D03*
D20*
X138684000Y-156718000D03*
X136144000Y-156718000D03*
X141224000Y-156718000D03*
D13*
X141145000Y-181020000D03*
D14*
X136065000Y-181020000D03*
D13*
X130985000Y-181020000D03*
D14*
X125905000Y-181020000D03*
D21*
X131318000Y-164620000D03*
D22*
X128778000Y-164620000D03*
D21*
X126238000Y-164620000D03*
D23*
X150750000Y-148500000D03*
X150750000Y-163500000D03*
X150750000Y-173500000D03*
X158250000Y-168500000D03*
X158250000Y-148500000D03*
X150750000Y-168500000D03*
X158250000Y-163500000D03*
X158250000Y-173500000D03*
D24*
X146304000Y-105918000D03*
D25*
X146304000Y-108458000D03*
X146304000Y-110998000D03*
X146304000Y-113538000D03*
X146304000Y-116078000D03*
D18*
X138684000Y-135128000D03*
D19*
X141224000Y-135128000D03*
X143764000Y-135128000D03*
D26*
X111633000Y-142621000D03*
X144000000Y-157000000D03*
X119126000Y-167386000D03*
X119380000Y-168656000D03*
X123444000Y-162306000D03*
X116586000Y-164592000D03*
X115824000Y-163068000D03*
X116586000Y-161798000D03*
X111125000Y-145288000D03*
X113665000Y-137160000D03*
X108712000Y-139700000D03*
X108712000Y-141224000D03*
X114554000Y-155194000D03*
X121666000Y-155194000D03*
X156464000Y-121666000D03*
X150876000Y-120904000D03*
X163068000Y-125222000D03*
X136652000Y-129286000D03*
X135636000Y-130048000D03*
X136652000Y-121412000D03*
X135636000Y-120396000D03*
D27*
X144409925Y-123560075D03*
D26*
X144272000Y-122428000D03*
X145034000Y-121666000D03*
D27*
X144780000Y-100612920D03*
D26*
X143510000Y-93980000D03*
X147828000Y-93726000D03*
X145034000Y-92202000D03*
X146304000Y-92202000D03*
X144780000Y-97282000D03*
X145288000Y-96266000D03*
X150929000Y-121872000D03*
X156517000Y-122634000D03*
X162676490Y-122253000D03*
X161470000Y-122126000D03*
X162486000Y-124158000D03*
X150929000Y-123142000D03*
X117094000Y-120396000D03*
X116840000Y-117348000D03*
X110236000Y-117348000D03*
X113030000Y-168402000D03*
X106426000Y-165100000D03*
X126746000Y-147320000D03*
X127254000Y-148336000D03*
X127000000Y-149606000D03*
X122936000Y-148082000D03*
X122174000Y-149098000D03*
X129286000Y-160528000D03*
X114046000Y-148640800D03*
X136144000Y-136398000D03*
X136144000Y-144018000D03*
X114554000Y-157480000D03*
X105283000Y-153035000D03*
X112776000Y-135001000D03*
X104521000Y-135001000D03*
X113385600Y-153035000D03*
X112776000Y-145034000D03*
X116205000Y-152146000D03*
X113004600Y-166624000D03*
X109245400Y-153035000D03*
X106811229Y-159561829D03*
X122428000Y-152146000D03*
X119634000Y-123190000D03*
X115062000Y-122428000D03*
X109982000Y-122174000D03*
X115062000Y-137668000D03*
X115062000Y-140208000D03*
X108966000Y-136400601D03*
X112649000Y-136398000D03*
X107569000Y-149987000D03*
X112268000Y-150114000D03*
D27*
X156473456Y-125873028D03*
X158242343Y-127508343D03*
D26*
X156737304Y-139680696D03*
X146974208Y-118541105D03*
X145653749Y-126714282D03*
X157734000Y-140511706D03*
X146730509Y-126954371D03*
X146971589Y-119647182D03*
D27*
X152641308Y-137909308D03*
X152572868Y-133350000D03*
X153530308Y-137020308D03*
X153408296Y-132580296D03*
D26*
X116332000Y-141732000D03*
X107442000Y-136906000D03*
X155448000Y-129794000D03*
X158110569Y-129032000D03*
X117856000Y-143002000D03*
X116840000Y-138938000D03*
D27*
X142000000Y-99000000D03*
D26*
X139500000Y-100500000D03*
D27*
X147688290Y-127490658D03*
D26*
X121412000Y-137414000D03*
D27*
X122428000Y-143699748D03*
X150368000Y-116332000D03*
X148590000Y-126746000D03*
X148590000Y-126746000D03*
X148590000Y-126746000D03*
X148590000Y-126746000D03*
X148590000Y-126746000D03*
X148590000Y-126746000D03*
D26*
X120396000Y-138176000D03*
X120396000Y-138176000D03*
X120396000Y-138176000D03*
X121158000Y-143764000D03*
X121158000Y-143764000D03*
X121158000Y-143764000D03*
X121158000Y-143764000D03*
X121158000Y-143764000D03*
D27*
X150103100Y-117391602D03*
D26*
X120142000Y-144416458D03*
X149860000Y-127254000D03*
X118872000Y-138938000D03*
X150136557Y-118664303D03*
X152400000Y-115570000D03*
X159258000Y-115570000D03*
X154763948Y-130780734D03*
X155194000Y-135763000D03*
X154178365Y-131715692D03*
X154686000Y-137033000D03*
D28*
X111125000Y-144145000D02*
X111125000Y-143129000D01*
X111125000Y-143129000D02*
X111633000Y-142621000D01*
D29*
X141000000Y-161000000D02*
X144000000Y-158000000D01*
X144000000Y-158000000D02*
X144000000Y-157000000D01*
X138863510Y-161000000D02*
X141000000Y-161000000D01*
X130429000Y-171704000D02*
X130429000Y-169434510D01*
X130429000Y-169434510D02*
X138863510Y-161000000D01*
D28*
X111125000Y-145288000D02*
X110998000Y-145288000D01*
D30*
X121666000Y-155194000D02*
X114554000Y-155194000D01*
X147751800Y-92153800D02*
X147751800Y-92202000D01*
X147751800Y-92202000D02*
X146304000Y-92202000D01*
X150929000Y-121872000D02*
X150929000Y-120957000D01*
X150929000Y-120957000D02*
X150876000Y-120904000D01*
X144780000Y-97282000D02*
X144780000Y-100612920D01*
X147751800Y-92153800D02*
X147751800Y-93649800D01*
X147751800Y-93649800D02*
X147828000Y-93726000D01*
X143590000Y-96177800D02*
X145199800Y-96177800D01*
X145199800Y-96177800D02*
X145288000Y-96266000D01*
X113030000Y-168402000D02*
X113030000Y-168656000D01*
X122936000Y-148082000D02*
X122936000Y-148336000D01*
X122174000Y-149098000D02*
X122936000Y-148336000D01*
D31*
X111125000Y-145719800D02*
X114046000Y-148640800D01*
X111125000Y-145288000D02*
X111125000Y-145719800D01*
D29*
X136144000Y-144018000D02*
X136144000Y-136398000D01*
D30*
X112472171Y-159561829D02*
X114104001Y-157929999D01*
X114104001Y-157929999D02*
X114554000Y-157480000D01*
X106811229Y-159561829D02*
X112472171Y-159561829D01*
D29*
X112776000Y-135001000D02*
X104521000Y-135001000D01*
X105283000Y-153035000D02*
X109245400Y-153035000D01*
X109245400Y-153035000D02*
X113385600Y-153035000D01*
X116205000Y-152146000D02*
X116205000Y-148463000D01*
X116205000Y-148463000D02*
X112776000Y-145034000D01*
X122428000Y-152146000D02*
X116205000Y-152146000D01*
D30*
X115824000Y-123190000D02*
X115062000Y-122428000D01*
X119634000Y-123190000D02*
X115824000Y-123190000D01*
X110236000Y-122428000D02*
X109982000Y-122174000D01*
X115062000Y-122428000D02*
X110236000Y-122428000D01*
D28*
X115062000Y-140208000D02*
X115062000Y-137668000D01*
D30*
X112649000Y-136398000D02*
X108968601Y-136398000D01*
X108968601Y-136398000D02*
X108966000Y-136400601D01*
X112268000Y-150114000D02*
X107696000Y-150114000D01*
X107696000Y-150114000D02*
X107569000Y-149987000D01*
X158242343Y-127508343D02*
X158108771Y-127508343D01*
X158108771Y-127508343D02*
X156473456Y-125873028D01*
X143764000Y-135128000D02*
X143764000Y-136652000D01*
X143764000Y-136652000D02*
X146792696Y-139680696D01*
X146792696Y-139680696D02*
X149688296Y-139680696D01*
X149688296Y-139680696D02*
X156737304Y-139680696D01*
X146064388Y-120156388D02*
X146456370Y-120548370D01*
X146064388Y-119211725D02*
X146064388Y-120156388D01*
X146536132Y-118739981D02*
X146064388Y-119211725D01*
X146775332Y-118739981D02*
X146536132Y-118739981D01*
X146974208Y-118541105D02*
X146775332Y-118739981D01*
X146456370Y-120548370D02*
X146456370Y-121158000D01*
X146456370Y-125575242D02*
X146075379Y-125956233D01*
X146456370Y-121158000D02*
X146456370Y-125575242D01*
X146075379Y-125956233D02*
X146075379Y-125958621D01*
X145653749Y-126380251D02*
X145653749Y-126714282D01*
X146075379Y-125958621D02*
X145653749Y-126380251D01*
X141224000Y-135128000D02*
X141224000Y-135280400D01*
X141224000Y-135280400D02*
X146455306Y-140511706D01*
X146455306Y-140511706D02*
X157734000Y-140511706D01*
X146786589Y-126250825D02*
X146786589Y-126898291D01*
X146786589Y-126898291D02*
X146730509Y-126954371D01*
X147167580Y-119735580D02*
X147167580Y-125869834D01*
X147167580Y-125869834D02*
X146786589Y-126250825D01*
X146971589Y-119647182D02*
X147079182Y-119647182D01*
X147079182Y-119647182D02*
X147167580Y-119735580D01*
X152572868Y-133350000D02*
X152572868Y-137840868D01*
X152572868Y-137840868D02*
X152641308Y-137909308D01*
X153408296Y-132580296D02*
X153530308Y-132702308D01*
X153530308Y-132702308D02*
X153530308Y-137020308D01*
D28*
X115695604Y-141732000D02*
X116332000Y-141732000D01*
X112268000Y-141732000D02*
X115695604Y-141732000D01*
X107442000Y-136906000D02*
X112268000Y-141732000D01*
D30*
X158110569Y-129032000D02*
X156210000Y-129032000D01*
X156210000Y-129032000D02*
X155448000Y-129794000D01*
D28*
X117856000Y-142365604D02*
X117856000Y-143002000D01*
X116840000Y-138938000D02*
X117856000Y-139954000D01*
X117856000Y-139954000D02*
X117856000Y-142365604D01*
D30*
X142000000Y-99000000D02*
X142000000Y-100500000D01*
X142000000Y-100500000D02*
X139500000Y-100500000D01*
X121412000Y-138186198D02*
X121615210Y-138389408D01*
X121412000Y-137414000D02*
X121412000Y-138186198D01*
X121615210Y-142886692D02*
X122174000Y-143445482D01*
X121615210Y-138389408D02*
X121615210Y-142886692D01*
X122174000Y-143445748D02*
X122428000Y-143699748D01*
X122174000Y-143445482D02*
X122174000Y-143445748D01*
X147688290Y-126354926D02*
X147688290Y-127490658D01*
X147878790Y-126164426D02*
X147688290Y-126354926D01*
X149175978Y-117312922D02*
X147878790Y-118610110D01*
X149175978Y-116895405D02*
X149175978Y-117312922D01*
X147878790Y-118610110D02*
X147878790Y-126164426D01*
X149739383Y-116332000D02*
X149175978Y-116895405D01*
X150368000Y-116332000D02*
X149739383Y-116332000D01*
X120396000Y-138176000D02*
X120904000Y-138684000D01*
X120904000Y-138684000D02*
X120904000Y-143510000D01*
X120904000Y-143510000D02*
X121158000Y-143764000D01*
X149658601Y-117836101D02*
X150103100Y-117391602D01*
X148590000Y-126746000D02*
X148590000Y-118904702D01*
X148590000Y-118904702D02*
X149658601Y-117836101D01*
X120142000Y-140208000D02*
X120142000Y-140335000D01*
X120142000Y-140335000D02*
X120142000Y-144416458D01*
X120142000Y-140208000D02*
X118872000Y-138938000D01*
X150067697Y-118664303D02*
X150136557Y-118664303D01*
X149860000Y-118872000D02*
X150067697Y-118664303D01*
X149352000Y-119448860D02*
X150136557Y-118664303D01*
X149352000Y-126238000D02*
X149352000Y-119448860D01*
X149606000Y-126492000D02*
X149352000Y-126238000D01*
X149606000Y-127000000D02*
X149606000Y-126492000D01*
X159258000Y-115570000D02*
X152400000Y-115570000D01*
X155067000Y-131083786D02*
X155067000Y-132080000D01*
X155067000Y-132080000D02*
X155067000Y-135636000D01*
X155067000Y-135636000D02*
X155194000Y-135763000D01*
X154763948Y-130780734D02*
X155067000Y-131083786D01*
X154305000Y-133350000D02*
X154305000Y-136525000D01*
X154686000Y-136906000D02*
X154686000Y-137033000D01*
X154305000Y-136525000D02*
X154686000Y-136906000D01*
X154305000Y-131842327D02*
X154178365Y-131715692D01*
X154305000Y-133350000D02*
X154305000Y-131842327D01*
D31*
G36*
X170594400Y-151873000D02*
X167106024Y-151873000D01*
X167106024Y-94582996D01*
X166786132Y-93808798D01*
X166194318Y-93215949D01*
X165420679Y-92894707D01*
X164582996Y-92893976D01*
X163808798Y-93213868D01*
X163215949Y-93805682D01*
X162894707Y-94579321D01*
X162893976Y-95417004D01*
X163213868Y-96191202D01*
X163805682Y-96784051D01*
X164579321Y-97105293D01*
X165417004Y-97106024D01*
X166191202Y-96786132D01*
X166784051Y-96194318D01*
X167105293Y-95420679D01*
X167106024Y-94582996D01*
X167106024Y-151873000D01*
X166255144Y-151873000D01*
X166255144Y-134573698D01*
X166227362Y-134018632D01*
X166068397Y-133634857D01*
X165963793Y-133604853D01*
X165963793Y-131604671D01*
X165963793Y-129064671D01*
X165794008Y-128653758D01*
X165479896Y-128339097D01*
X165069280Y-128168594D01*
X164624671Y-128168207D01*
X164213758Y-128337992D01*
X163899097Y-128652104D01*
X163728594Y-129062720D01*
X163728207Y-129507329D01*
X163897992Y-129918242D01*
X164212104Y-130232903D01*
X164622720Y-130403406D01*
X165067329Y-130403793D01*
X165478242Y-130234008D01*
X165792903Y-129919896D01*
X165963406Y-129509280D01*
X165963793Y-129064671D01*
X165963793Y-131604671D01*
X165794008Y-131193758D01*
X165479896Y-130879097D01*
X165069280Y-130708594D01*
X164624671Y-130708207D01*
X164213758Y-130877992D01*
X163899097Y-131192104D01*
X163728594Y-131602720D01*
X163728207Y-132047329D01*
X163897992Y-132458242D01*
X164212104Y-132772903D01*
X164622720Y-132943406D01*
X165067329Y-132943793D01*
X165478242Y-132774008D01*
X165792903Y-132459896D01*
X165963406Y-132049280D01*
X165963793Y-131604671D01*
X165963793Y-133604853D01*
X165826213Y-133565392D01*
X165646608Y-133744997D01*
X165646608Y-133385787D01*
X165577143Y-133143603D01*
X165053698Y-132956856D01*
X164498632Y-132984638D01*
X164114857Y-133143603D01*
X164045392Y-133385787D01*
X164846000Y-134186395D01*
X165646608Y-133385787D01*
X165646608Y-133744997D01*
X165025605Y-134366000D01*
X165826213Y-135166608D01*
X166068397Y-135097143D01*
X166255144Y-134573698D01*
X166255144Y-151873000D01*
X165963793Y-151873000D01*
X165963793Y-139224671D01*
X165963793Y-136684671D01*
X165794008Y-136273758D01*
X165646608Y-136126100D01*
X165646608Y-135346213D01*
X164846000Y-134545605D01*
X164666395Y-134725210D01*
X164666395Y-134366000D01*
X163865787Y-133565392D01*
X163623603Y-133634857D01*
X163436856Y-134158302D01*
X163464638Y-134713368D01*
X163623603Y-135097143D01*
X163865787Y-135166608D01*
X164666395Y-134366000D01*
X164666395Y-134725210D01*
X164045392Y-135346213D01*
X164114857Y-135588397D01*
X164638302Y-135775144D01*
X165193368Y-135747362D01*
X165577143Y-135588397D01*
X165646608Y-135346213D01*
X165646608Y-136126100D01*
X165479896Y-135959097D01*
X165069280Y-135788594D01*
X164624671Y-135788207D01*
X164213758Y-135957992D01*
X163899097Y-136272104D01*
X163728594Y-136682720D01*
X163728207Y-137127329D01*
X163897992Y-137538242D01*
X164212104Y-137852903D01*
X164622720Y-138023406D01*
X165067329Y-138023793D01*
X165478242Y-137854008D01*
X165792903Y-137539896D01*
X165963406Y-137129280D01*
X165963793Y-136684671D01*
X165963793Y-139224671D01*
X165794008Y-138813758D01*
X165479896Y-138499097D01*
X165069280Y-138328594D01*
X164624671Y-138328207D01*
X164213758Y-138497992D01*
X163899097Y-138812104D01*
X163728594Y-139222720D01*
X163728207Y-139667329D01*
X163897992Y-140078242D01*
X164212104Y-140392903D01*
X164622720Y-140563406D01*
X165067329Y-140563793D01*
X165478242Y-140394008D01*
X165792903Y-140079896D01*
X165963406Y-139669280D01*
X165963793Y-139224671D01*
X165963793Y-151873000D01*
X163430567Y-151873000D01*
X163430567Y-130048000D01*
X163430567Y-128524000D01*
X163404259Y-128388411D01*
X163325977Y-128269241D01*
X163207799Y-128189469D01*
X163068000Y-128161433D01*
X161544000Y-128161433D01*
X161408411Y-128187741D01*
X161289241Y-128266023D01*
X161209469Y-128384201D01*
X161181433Y-128524000D01*
X161181433Y-130048000D01*
X161207741Y-130183589D01*
X161286023Y-130302759D01*
X161404201Y-130382531D01*
X161544000Y-130410567D01*
X163068000Y-130410567D01*
X163203589Y-130384259D01*
X163322759Y-130305977D01*
X163402531Y-130187799D01*
X163430567Y-130048000D01*
X163430567Y-151873000D01*
X163423793Y-151873000D01*
X163423793Y-139224671D01*
X163423793Y-136684671D01*
X163423793Y-134144671D01*
X163423793Y-131604671D01*
X163254008Y-131193758D01*
X162939896Y-130879097D01*
X162529280Y-130708594D01*
X162084671Y-130708207D01*
X161673758Y-130877992D01*
X161359097Y-131192104D01*
X161188594Y-131602720D01*
X161188207Y-132047329D01*
X161357992Y-132458242D01*
X161672104Y-132772903D01*
X162082720Y-132943406D01*
X162527329Y-132943793D01*
X162938242Y-132774008D01*
X163252903Y-132459896D01*
X163423406Y-132049280D01*
X163423793Y-131604671D01*
X163423793Y-134144671D01*
X163254008Y-133733758D01*
X162939896Y-133419097D01*
X162529280Y-133248594D01*
X162084671Y-133248207D01*
X161673758Y-133417992D01*
X161359097Y-133732104D01*
X161188594Y-134142720D01*
X161188207Y-134587329D01*
X161357992Y-134998242D01*
X161672104Y-135312903D01*
X162082720Y-135483406D01*
X162527329Y-135483793D01*
X162938242Y-135314008D01*
X163252903Y-134999896D01*
X163423406Y-134589280D01*
X163423793Y-134144671D01*
X163423793Y-136684671D01*
X163254008Y-136273758D01*
X162939896Y-135959097D01*
X162529280Y-135788594D01*
X162084671Y-135788207D01*
X161673758Y-135957992D01*
X161359097Y-136272104D01*
X161188594Y-136682720D01*
X161188207Y-137127329D01*
X161357992Y-137538242D01*
X161672104Y-137852903D01*
X162082720Y-138023406D01*
X162527329Y-138023793D01*
X162938242Y-137854008D01*
X163252903Y-137539896D01*
X163423406Y-137129280D01*
X163423793Y-136684671D01*
X163423793Y-139224671D01*
X163254008Y-138813758D01*
X162939896Y-138499097D01*
X162529280Y-138328594D01*
X162084671Y-138328207D01*
X161673758Y-138497992D01*
X161359097Y-138812104D01*
X161188594Y-139222720D01*
X161188207Y-139667329D01*
X161357992Y-140078242D01*
X161672104Y-140392903D01*
X162082720Y-140563406D01*
X162527329Y-140563793D01*
X162938242Y-140394008D01*
X163252903Y-140079896D01*
X163423406Y-139669280D01*
X163423793Y-139224671D01*
X163423793Y-151873000D01*
X160063740Y-151873000D01*
X160063740Y-115410459D01*
X159941353Y-115114260D01*
X159714932Y-114887443D01*
X159418947Y-114764540D01*
X159137967Y-114764294D01*
X159137967Y-93169800D01*
X159137967Y-91137800D01*
X159111659Y-91002211D01*
X159033377Y-90883041D01*
X158915199Y-90803269D01*
X158775400Y-90775233D01*
X157048200Y-90775233D01*
X156912611Y-90801541D01*
X156793441Y-90879823D01*
X156713669Y-90998001D01*
X156685633Y-91137800D01*
X156685633Y-93169800D01*
X156711941Y-93305389D01*
X156790223Y-93424559D01*
X156908401Y-93504331D01*
X157048200Y-93532367D01*
X158775400Y-93532367D01*
X158910989Y-93506059D01*
X159030159Y-93427777D01*
X159109931Y-93309599D01*
X159137967Y-93169800D01*
X159137967Y-114764294D01*
X159098459Y-114764260D01*
X158802260Y-114886647D01*
X158728378Y-114960400D01*
X156591000Y-114960400D01*
X156591000Y-92333071D01*
X156591000Y-91974529D01*
X156498194Y-91507961D01*
X156233905Y-91112424D01*
X155838368Y-90848135D01*
X155371800Y-90755329D01*
X154905232Y-90848135D01*
X154509695Y-91112424D01*
X154245406Y-91507961D01*
X154152600Y-91974529D01*
X154152600Y-92333071D01*
X154245406Y-92799639D01*
X154509695Y-93195176D01*
X154905232Y-93459465D01*
X155371800Y-93552271D01*
X155838368Y-93459465D01*
X156233905Y-93195176D01*
X156498194Y-92799639D01*
X156591000Y-92333071D01*
X156591000Y-114960400D01*
X154051000Y-114960400D01*
X154051000Y-92333071D01*
X154051000Y-91974529D01*
X153958194Y-91507961D01*
X153693905Y-91112424D01*
X153298368Y-90848135D01*
X152831800Y-90755329D01*
X152365232Y-90848135D01*
X151969695Y-91112424D01*
X151705406Y-91507961D01*
X151612600Y-91974529D01*
X151612600Y-92333071D01*
X151705406Y-92799639D01*
X151969695Y-93195176D01*
X152365232Y-93459465D01*
X152831800Y-93552271D01*
X153298368Y-93459465D01*
X153693905Y-93195176D01*
X153958194Y-92799639D01*
X154051000Y-92333071D01*
X154051000Y-114960400D01*
X152929761Y-114960400D01*
X152856932Y-114887443D01*
X152560947Y-114764540D01*
X152240459Y-114764260D01*
X151944260Y-114886647D01*
X151717443Y-115113068D01*
X151594540Y-115409053D01*
X151594260Y-115729541D01*
X151716647Y-116025740D01*
X151943068Y-116252557D01*
X152239053Y-116375460D01*
X152559541Y-116375740D01*
X152855740Y-116253353D01*
X152929621Y-116179600D01*
X158728238Y-116179600D01*
X158801068Y-116252557D01*
X159097053Y-116375460D01*
X159417541Y-116375740D01*
X159713740Y-116253353D01*
X159940557Y-116026932D01*
X160063460Y-115730947D01*
X160063740Y-115410459D01*
X160063740Y-151873000D01*
X159855879Y-151873000D01*
X159855879Y-148182027D01*
X159611955Y-147591689D01*
X159160687Y-147139632D01*
X159042582Y-147090590D01*
X159042582Y-127349891D01*
X158921030Y-127055715D01*
X158696155Y-126830447D01*
X158402191Y-126708382D01*
X158170712Y-126708179D01*
X157273610Y-125811078D01*
X157273695Y-125714576D01*
X157152143Y-125420400D01*
X156927268Y-125195132D01*
X156633304Y-125073067D01*
X156315004Y-125072789D01*
X156020828Y-125194341D01*
X155795560Y-125419216D01*
X155673495Y-125713180D01*
X155673217Y-126031480D01*
X155794769Y-126325656D01*
X156019644Y-126550924D01*
X156313608Y-126672989D01*
X156411398Y-126673074D01*
X157468147Y-127729824D01*
X157563656Y-127960971D01*
X157788531Y-128186239D01*
X157917888Y-128239953D01*
X157654829Y-128348647D01*
X157580947Y-128422400D01*
X156210000Y-128422400D01*
X155976716Y-128468803D01*
X155778948Y-128600948D01*
X155391545Y-128988350D01*
X155288459Y-128988260D01*
X154992260Y-129110647D01*
X154765443Y-129337068D01*
X154642540Y-129633053D01*
X154642260Y-129953541D01*
X154651141Y-129975034D01*
X154604407Y-129974994D01*
X154308208Y-130097381D01*
X154081391Y-130323802D01*
X153958488Y-130619787D01*
X153958212Y-130934996D01*
X153722625Y-131032339D01*
X153495808Y-131258760D01*
X153372905Y-131554745D01*
X153372708Y-131780164D01*
X153249844Y-131780057D01*
X152955668Y-131901609D01*
X152730400Y-132126484D01*
X152608335Y-132420448D01*
X152608221Y-132549930D01*
X152414416Y-132549761D01*
X152120240Y-132671313D01*
X151894972Y-132896188D01*
X151772907Y-133190152D01*
X151772629Y-133508452D01*
X151894181Y-133802628D01*
X151963268Y-133871835D01*
X151963268Y-137455842D01*
X151841347Y-137749460D01*
X151841069Y-138067760D01*
X151962621Y-138361936D01*
X152187496Y-138587204D01*
X152481460Y-138709269D01*
X152799760Y-138709547D01*
X153093936Y-138587995D01*
X153319204Y-138363120D01*
X153441269Y-138069156D01*
X153441486Y-137820331D01*
X153688760Y-137820547D01*
X153982936Y-137698995D01*
X154097935Y-137584195D01*
X154229068Y-137715557D01*
X154525053Y-137838460D01*
X154845541Y-137838740D01*
X155141740Y-137716353D01*
X155368557Y-137489932D01*
X155491460Y-137193947D01*
X155491740Y-136873459D01*
X155369353Y-136577260D01*
X155358714Y-136566602D01*
X155649740Y-136446353D01*
X155876557Y-136219932D01*
X155999460Y-135923947D01*
X155999740Y-135603459D01*
X155877353Y-135307260D01*
X155676600Y-135106155D01*
X155676600Y-132080000D01*
X155676600Y-131083786D01*
X155630197Y-130850502D01*
X155569566Y-130759763D01*
X155569688Y-130621193D01*
X155560806Y-130599699D01*
X155607541Y-130599740D01*
X155903740Y-130477353D01*
X156130557Y-130250932D01*
X156253460Y-129954947D01*
X156253551Y-129850552D01*
X156462504Y-129641600D01*
X157580807Y-129641600D01*
X157653637Y-129714557D01*
X157949622Y-129837460D01*
X158270110Y-129837740D01*
X158566309Y-129715353D01*
X158793126Y-129488932D01*
X158916029Y-129192947D01*
X158916309Y-128872459D01*
X158793922Y-128576260D01*
X158567501Y-128349443D01*
X158435029Y-128294436D01*
X158694971Y-128187030D01*
X158920239Y-127962155D01*
X159042304Y-127668191D01*
X159042582Y-127349891D01*
X159042582Y-147090590D01*
X158570775Y-146894679D01*
X158539740Y-146894651D01*
X158539740Y-140352165D01*
X158417353Y-140055966D01*
X158190932Y-139829149D01*
X157894947Y-139706246D01*
X157574459Y-139705966D01*
X157542871Y-139719017D01*
X157543044Y-139521155D01*
X157420657Y-139224956D01*
X157194236Y-138998139D01*
X156898251Y-138875236D01*
X156577763Y-138874956D01*
X156281564Y-138997343D01*
X156207682Y-139071096D01*
X151511000Y-139071096D01*
X151511000Y-92333071D01*
X151511000Y-91974529D01*
X151418194Y-91507961D01*
X151153905Y-91112424D01*
X150758368Y-90848135D01*
X150291800Y-90755329D01*
X149825232Y-90848135D01*
X149429695Y-91112424D01*
X149165406Y-91507961D01*
X149155350Y-91558512D01*
X149043754Y-91239480D01*
X148653836Y-90803068D01*
X148126591Y-90549091D01*
X148110826Y-90546442D01*
X147878800Y-90667583D01*
X147878800Y-92026800D01*
X147898800Y-92026800D01*
X147898800Y-92280800D01*
X147878800Y-92280800D01*
X147878800Y-93640017D01*
X148110826Y-93761158D01*
X148126591Y-93758509D01*
X148653836Y-93504532D01*
X149043754Y-93068120D01*
X149155350Y-92749087D01*
X149165406Y-92799639D01*
X149429695Y-93195176D01*
X149825232Y-93459465D01*
X150291800Y-93552271D01*
X150758368Y-93459465D01*
X151153905Y-93195176D01*
X151418194Y-92799639D01*
X151511000Y-92333071D01*
X151511000Y-139071096D01*
X151168239Y-139071096D01*
X151168239Y-116173548D01*
X151046687Y-115879372D01*
X150821812Y-115654104D01*
X150527848Y-115532039D01*
X150209548Y-115531761D01*
X149915372Y-115653313D01*
X149846164Y-115722400D01*
X149739383Y-115722400D01*
X149506099Y-115768803D01*
X149308331Y-115900948D01*
X148744926Y-116464353D01*
X148612781Y-116662121D01*
X148566378Y-116895405D01*
X148566378Y-117060418D01*
X147911358Y-117715437D01*
X147911358Y-116437026D01*
X147911358Y-115718974D01*
X147908709Y-115703209D01*
X147654732Y-115175964D01*
X147218320Y-114786046D01*
X146899287Y-114674449D01*
X146949839Y-114664394D01*
X147345376Y-114400105D01*
X147609665Y-114004568D01*
X147702471Y-113538000D01*
X147702471Y-110998000D01*
X147702471Y-108458000D01*
X147682567Y-108357935D01*
X147682567Y-106781600D01*
X147682567Y-105054400D01*
X147656259Y-104918811D01*
X147624800Y-104870920D01*
X147624800Y-93640017D01*
X147624800Y-92280800D01*
X147624800Y-92026800D01*
X147624800Y-90667583D01*
X147392774Y-90546442D01*
X147377009Y-90549091D01*
X146849764Y-90803068D01*
X146459846Y-91239480D01*
X146266616Y-91791887D01*
X146410876Y-92026800D01*
X147624800Y-92026800D01*
X147624800Y-92280800D01*
X146410876Y-92280800D01*
X146266616Y-92515713D01*
X146459846Y-93068120D01*
X146849764Y-93504532D01*
X147377009Y-93758509D01*
X147392774Y-93761158D01*
X147624800Y-93640017D01*
X147624800Y-104870920D01*
X147577977Y-104799641D01*
X147459799Y-104719869D01*
X147320000Y-104691833D01*
X145288000Y-104691833D01*
X145152411Y-104718141D01*
X145075184Y-104768870D01*
X145075184Y-96539713D01*
X145075184Y-95815887D01*
X145075184Y-92539713D01*
X145075184Y-91815887D01*
X144881954Y-91263480D01*
X144492036Y-90827068D01*
X143964791Y-90573091D01*
X143949026Y-90570442D01*
X143717000Y-90691583D01*
X143717000Y-92050800D01*
X144930924Y-92050800D01*
X145075184Y-91815887D01*
X145075184Y-92539713D01*
X144930924Y-92304800D01*
X143717000Y-92304800D01*
X143717000Y-93664017D01*
X143949026Y-93785158D01*
X143964791Y-93782509D01*
X144492036Y-93528532D01*
X144881954Y-93092120D01*
X145075184Y-92539713D01*
X145075184Y-95815887D01*
X144881954Y-95263480D01*
X144492036Y-94827068D01*
X143964791Y-94573091D01*
X143949026Y-94570442D01*
X143717000Y-94691583D01*
X143717000Y-96050800D01*
X144930924Y-96050800D01*
X145075184Y-95815887D01*
X145075184Y-96539713D01*
X144930924Y-96304800D01*
X143717000Y-96304800D01*
X143717000Y-97664017D01*
X143949026Y-97785158D01*
X143964791Y-97782509D01*
X144492036Y-97528532D01*
X144881954Y-97092120D01*
X145075184Y-96539713D01*
X145075184Y-104768870D01*
X145033241Y-104796423D01*
X144953469Y-104914601D01*
X144925433Y-105054400D01*
X144925433Y-106781600D01*
X144951741Y-106917189D01*
X145030023Y-107036359D01*
X145148201Y-107116131D01*
X145288000Y-107144167D01*
X147320000Y-107144167D01*
X147455589Y-107117859D01*
X147574759Y-107039577D01*
X147654531Y-106921399D01*
X147682567Y-106781600D01*
X147682567Y-108357935D01*
X147609665Y-107991432D01*
X147345376Y-107595895D01*
X146949839Y-107331606D01*
X146483271Y-107238800D01*
X146124729Y-107238800D01*
X145658161Y-107331606D01*
X145262624Y-107595895D01*
X144998335Y-107991432D01*
X144905529Y-108458000D01*
X144998335Y-108924568D01*
X145262624Y-109320105D01*
X145658161Y-109584394D01*
X146124729Y-109677200D01*
X146483271Y-109677200D01*
X146949839Y-109584394D01*
X147345376Y-109320105D01*
X147609665Y-108924568D01*
X147702471Y-108458000D01*
X147702471Y-110998000D01*
X147609665Y-110531432D01*
X147345376Y-110135895D01*
X146949839Y-109871606D01*
X146483271Y-109778800D01*
X146124729Y-109778800D01*
X145658161Y-109871606D01*
X145262624Y-110135895D01*
X144998335Y-110531432D01*
X144905529Y-110998000D01*
X144998335Y-111464568D01*
X145262624Y-111860105D01*
X145658161Y-112124394D01*
X146124729Y-112217200D01*
X146483271Y-112217200D01*
X146949839Y-112124394D01*
X147345376Y-111860105D01*
X147609665Y-111464568D01*
X147702471Y-110998000D01*
X147702471Y-113538000D01*
X147609665Y-113071432D01*
X147345376Y-112675895D01*
X146949839Y-112411606D01*
X146483271Y-112318800D01*
X146124729Y-112318800D01*
X145658161Y-112411606D01*
X145262624Y-112675895D01*
X144998335Y-113071432D01*
X144905529Y-113538000D01*
X144998335Y-114004568D01*
X145262624Y-114400105D01*
X145658161Y-114664394D01*
X145708712Y-114674449D01*
X145389680Y-114786046D01*
X144953268Y-115175964D01*
X144699291Y-115703209D01*
X144696642Y-115718974D01*
X144817783Y-115951000D01*
X146177000Y-115951000D01*
X146177000Y-115931000D01*
X146431000Y-115931000D01*
X146431000Y-115951000D01*
X147790217Y-115951000D01*
X147911358Y-115718974D01*
X147911358Y-116437026D01*
X147790217Y-116205000D01*
X146431000Y-116205000D01*
X146431000Y-117418924D01*
X146665913Y-117563184D01*
X147218320Y-117369954D01*
X147654732Y-116980036D01*
X147908709Y-116452791D01*
X147911358Y-116437026D01*
X147911358Y-117715437D01*
X147599546Y-118027249D01*
X147431140Y-117858548D01*
X147135155Y-117735645D01*
X146814667Y-117735365D01*
X146518468Y-117857752D01*
X146291651Y-118084173D01*
X146234129Y-118222700D01*
X146177000Y-118260872D01*
X146177000Y-117418924D01*
X146177000Y-116205000D01*
X144817783Y-116205000D01*
X144696642Y-116437026D01*
X144699291Y-116452791D01*
X144953268Y-116980036D01*
X145389680Y-117369954D01*
X145942087Y-117563184D01*
X146177000Y-117418924D01*
X146177000Y-118260872D01*
X146105080Y-118308929D01*
X145633336Y-118780673D01*
X145501191Y-118978441D01*
X145454788Y-119211725D01*
X145454788Y-120156388D01*
X145501191Y-120389672D01*
X145633336Y-120587440D01*
X145846770Y-120800874D01*
X145846770Y-121158000D01*
X145846770Y-125322737D01*
X145644327Y-125525181D01*
X145639518Y-125532377D01*
X145222697Y-125949199D01*
X145108147Y-126120633D01*
X144971192Y-126257350D01*
X144848289Y-126553335D01*
X144848009Y-126873823D01*
X144970396Y-127170022D01*
X145196817Y-127396839D01*
X145492802Y-127519742D01*
X145813290Y-127520022D01*
X146056541Y-127419512D01*
X146273577Y-127636928D01*
X146569562Y-127759831D01*
X146890050Y-127760111D01*
X146927519Y-127744629D01*
X147009603Y-127943286D01*
X147234478Y-128168554D01*
X147528442Y-128290619D01*
X147846742Y-128290897D01*
X148140918Y-128169345D01*
X148366186Y-127944470D01*
X148488251Y-127650506D01*
X148488342Y-127546011D01*
X148748452Y-127546239D01*
X149042628Y-127424687D01*
X149054260Y-127413074D01*
X149054260Y-127413541D01*
X149176647Y-127709740D01*
X149403068Y-127936557D01*
X149699053Y-128059460D01*
X150019541Y-128059740D01*
X150315740Y-127937353D01*
X150542557Y-127710932D01*
X150665460Y-127414947D01*
X150665740Y-127094459D01*
X150543353Y-126798260D01*
X150316932Y-126571443D01*
X150215600Y-126529366D01*
X150215600Y-126492000D01*
X150169197Y-126258716D01*
X150037052Y-126060948D01*
X149961600Y-125985496D01*
X149961600Y-119701364D01*
X150193011Y-119469952D01*
X150296098Y-119470043D01*
X150592297Y-119347656D01*
X150819114Y-119121235D01*
X150942017Y-118825250D01*
X150942297Y-118504762D01*
X150819910Y-118208563D01*
X150618912Y-118007214D01*
X150780996Y-117845414D01*
X150903061Y-117551450D01*
X150903339Y-117233150D01*
X150812761Y-117013937D01*
X150820628Y-117010687D01*
X151045896Y-116785812D01*
X151167961Y-116491848D01*
X151168239Y-116173548D01*
X151168239Y-139071096D01*
X149688296Y-139071096D01*
X147045200Y-139071096D01*
X144373600Y-136399496D01*
X144373600Y-136338094D01*
X144626105Y-136169376D01*
X144890394Y-135773839D01*
X144983200Y-135307271D01*
X144983200Y-134948729D01*
X144890394Y-134482161D01*
X144626105Y-134086624D01*
X144230568Y-133822335D01*
X143764000Y-133729529D01*
X143463000Y-133789401D01*
X143463000Y-97664017D01*
X143463000Y-96304800D01*
X143443000Y-96304800D01*
X143443000Y-96050800D01*
X143463000Y-96050800D01*
X143463000Y-94691583D01*
X143463000Y-93664017D01*
X143463000Y-92304800D01*
X143443000Y-92304800D01*
X143443000Y-92050800D01*
X143463000Y-92050800D01*
X143463000Y-90691583D01*
X143230974Y-90570442D01*
X143215209Y-90573091D01*
X142687964Y-90827068D01*
X142298046Y-91263480D01*
X142186449Y-91582512D01*
X142176394Y-91531961D01*
X141912105Y-91136424D01*
X141516568Y-90872135D01*
X141050000Y-90779329D01*
X140583432Y-90872135D01*
X140187895Y-91136424D01*
X139923606Y-91531961D01*
X139830800Y-91998529D01*
X139830800Y-92357071D01*
X139923606Y-92823639D01*
X140187895Y-93219176D01*
X140583432Y-93483465D01*
X141050000Y-93576271D01*
X141516568Y-93483465D01*
X141912105Y-93219176D01*
X142176394Y-92823639D01*
X142186449Y-92773087D01*
X142298046Y-93092120D01*
X142687964Y-93528532D01*
X143215209Y-93782509D01*
X143230974Y-93785158D01*
X143463000Y-93664017D01*
X143463000Y-94691583D01*
X143230974Y-94570442D01*
X143215209Y-94573091D01*
X142687964Y-94827068D01*
X142298046Y-95263480D01*
X142186449Y-95582512D01*
X142176394Y-95531961D01*
X141912105Y-95136424D01*
X141516568Y-94872135D01*
X141050000Y-94779329D01*
X140583432Y-94872135D01*
X140187895Y-95136424D01*
X139923606Y-95531961D01*
X139830800Y-95998529D01*
X139830800Y-96357071D01*
X139923606Y-96823639D01*
X140187895Y-97219176D01*
X140583432Y-97483465D01*
X141050000Y-97576271D01*
X141516568Y-97483465D01*
X141912105Y-97219176D01*
X142176394Y-96823639D01*
X142186449Y-96773087D01*
X142298046Y-97092120D01*
X142687964Y-97528532D01*
X143215209Y-97782509D01*
X143230974Y-97785158D01*
X143463000Y-97664017D01*
X143463000Y-133789401D01*
X143297432Y-133822335D01*
X142901895Y-134086624D01*
X142800239Y-134238763D01*
X142800239Y-98841548D01*
X142678687Y-98547372D01*
X142453812Y-98322104D01*
X142159848Y-98200039D01*
X141841548Y-98199761D01*
X141547372Y-98321313D01*
X141322104Y-98546188D01*
X141200039Y-98840152D01*
X141199761Y-99158452D01*
X141321313Y-99452628D01*
X141390400Y-99521835D01*
X141390400Y-99890400D01*
X140029761Y-99890400D01*
X139956932Y-99817443D01*
X139729200Y-99722880D01*
X139729200Y-96357071D01*
X139729200Y-95998529D01*
X139729200Y-92357071D01*
X139729200Y-91998529D01*
X139636394Y-91531961D01*
X139372105Y-91136424D01*
X138976568Y-90872135D01*
X138510000Y-90779329D01*
X138043432Y-90872135D01*
X137647895Y-91136424D01*
X137383606Y-91531961D01*
X137290800Y-91998529D01*
X137290800Y-92357071D01*
X137383606Y-92823639D01*
X137647895Y-93219176D01*
X138043432Y-93483465D01*
X138510000Y-93576271D01*
X138976568Y-93483465D01*
X139372105Y-93219176D01*
X139636394Y-92823639D01*
X139729200Y-92357071D01*
X139729200Y-95998529D01*
X139636394Y-95531961D01*
X139372105Y-95136424D01*
X138976568Y-94872135D01*
X138510000Y-94779329D01*
X138043432Y-94872135D01*
X137647895Y-95136424D01*
X137383606Y-95531961D01*
X137290800Y-95998529D01*
X137290800Y-96357071D01*
X137383606Y-96823639D01*
X137647895Y-97219176D01*
X138043432Y-97483465D01*
X138510000Y-97576271D01*
X138976568Y-97483465D01*
X139372105Y-97219176D01*
X139636394Y-96823639D01*
X139729200Y-96357071D01*
X139729200Y-99722880D01*
X139660947Y-99694540D01*
X139340459Y-99694260D01*
X139044260Y-99816647D01*
X138817443Y-100043068D01*
X138694540Y-100339053D01*
X138694260Y-100659541D01*
X138816647Y-100955740D01*
X139043068Y-101182557D01*
X139339053Y-101305460D01*
X139659541Y-101305740D01*
X139955740Y-101183353D01*
X140029621Y-101109600D01*
X142000000Y-101109600D01*
X142233284Y-101063197D01*
X142431052Y-100931052D01*
X142563197Y-100733284D01*
X142609600Y-100500000D01*
X142609600Y-99521988D01*
X142677896Y-99453812D01*
X142799961Y-99159848D01*
X142800239Y-98841548D01*
X142800239Y-134238763D01*
X142637606Y-134482161D01*
X142544800Y-134948729D01*
X142544800Y-135307271D01*
X142637606Y-135773839D01*
X142754525Y-135948821D01*
X142388412Y-135582708D01*
X142443200Y-135307271D01*
X142443200Y-134948729D01*
X142350394Y-134482161D01*
X142086105Y-134086624D01*
X141690568Y-133822335D01*
X141224000Y-133729529D01*
X140757432Y-133822335D01*
X140361895Y-134086624D01*
X140182600Y-134354958D01*
X140182600Y-133985691D01*
X140085927Y-133752302D01*
X139907299Y-133573673D01*
X139673910Y-133477000D01*
X139421291Y-133477000D01*
X138969750Y-133477000D01*
X138811000Y-133635750D01*
X138811000Y-135001000D01*
X138831000Y-135001000D01*
X138831000Y-135255000D01*
X138811000Y-135255000D01*
X138811000Y-136620250D01*
X138969750Y-136779000D01*
X139421291Y-136779000D01*
X139673910Y-136779000D01*
X139907299Y-136682327D01*
X140085927Y-136503698D01*
X140182600Y-136270309D01*
X140182600Y-135901041D01*
X140361895Y-136169376D01*
X140757432Y-136433665D01*
X141224000Y-136526471D01*
X141544262Y-136462766D01*
X146024254Y-140942758D01*
X146222022Y-141074903D01*
X146455306Y-141121306D01*
X157204238Y-141121306D01*
X157277068Y-141194263D01*
X157573053Y-141317166D01*
X157893541Y-141317446D01*
X158189740Y-141195059D01*
X158416557Y-140968638D01*
X158539460Y-140672653D01*
X158539740Y-140352165D01*
X158539740Y-146894651D01*
X157932027Y-146894121D01*
X157341689Y-147138045D01*
X156889632Y-147589313D01*
X156644679Y-148179225D01*
X156644121Y-148817973D01*
X156888045Y-149408311D01*
X157339313Y-149860368D01*
X157929225Y-150105321D01*
X158567973Y-150105879D01*
X159158311Y-149861955D01*
X159610368Y-149410687D01*
X159855321Y-148820775D01*
X159855879Y-148182027D01*
X159855879Y-151873000D01*
X152355879Y-151873000D01*
X152355879Y-148182027D01*
X152111955Y-147591689D01*
X151660687Y-147139632D01*
X151070775Y-146894679D01*
X150432027Y-146894121D01*
X149841689Y-147138045D01*
X149389632Y-147589313D01*
X149144679Y-148179225D01*
X149144121Y-148817973D01*
X149388045Y-149408311D01*
X149839313Y-149860368D01*
X150429225Y-150105321D01*
X151067973Y-150105879D01*
X151658311Y-149861955D01*
X152110368Y-149410687D01*
X152355321Y-148820775D01*
X152355879Y-148182027D01*
X152355879Y-151873000D01*
X148947495Y-151873000D01*
X145161000Y-155649295D01*
X145161000Y-159649482D01*
X144990600Y-159820279D01*
X144990600Y-158000000D01*
X144990600Y-157000000D01*
X144915195Y-156620914D01*
X144700460Y-156299540D01*
X144379086Y-156084805D01*
X144000000Y-156009400D01*
X143620914Y-156084805D01*
X143299540Y-156299540D01*
X143084805Y-156620914D01*
X143009400Y-157000000D01*
X143009400Y-157589680D01*
X142649574Y-157949505D01*
X142708630Y-157745430D01*
X142708630Y-156845000D01*
X142708630Y-156591000D01*
X142708630Y-155690570D01*
X142547018Y-155132094D01*
X142183989Y-154677976D01*
X141674810Y-154397351D01*
X141580832Y-154376460D01*
X141351000Y-154497786D01*
X141351000Y-156591000D01*
X142708630Y-156591000D01*
X142708630Y-156845000D01*
X141351000Y-156845000D01*
X141351000Y-158938214D01*
X141553806Y-159045273D01*
X141097000Y-159502079D01*
X141097000Y-158938214D01*
X141097000Y-156845000D01*
X141077000Y-156845000D01*
X141077000Y-156591000D01*
X141097000Y-156591000D01*
X141097000Y-154497786D01*
X140867168Y-154376460D01*
X140773190Y-154397351D01*
X140264011Y-154677976D01*
X139900982Y-155132094D01*
X139818074Y-155418594D01*
X139797487Y-155315096D01*
X139536226Y-154924092D01*
X139145222Y-154662831D01*
X138684000Y-154571088D01*
X138557000Y-154596349D01*
X138557000Y-136620250D01*
X138557000Y-135255000D01*
X138557000Y-135001000D01*
X138557000Y-133635750D01*
X138398250Y-133477000D01*
X137946709Y-133477000D01*
X137694090Y-133477000D01*
X137460701Y-133573673D01*
X137282073Y-133752302D01*
X137252057Y-133824766D01*
X137252057Y-103313290D01*
X137252057Y-101314310D01*
X137225749Y-101178721D01*
X137196167Y-101133687D01*
X137196167Y-97193800D01*
X137196167Y-95161800D01*
X137196167Y-93193800D01*
X137196167Y-91161800D01*
X137169859Y-91026211D01*
X137091577Y-90907041D01*
X136973399Y-90827269D01*
X136833600Y-90799233D01*
X135106400Y-90799233D01*
X134970811Y-90825541D01*
X134851641Y-90903823D01*
X134771869Y-91022001D01*
X134743833Y-91161800D01*
X134743833Y-93193800D01*
X134770141Y-93329389D01*
X134848423Y-93448559D01*
X134966601Y-93528331D01*
X135106400Y-93556367D01*
X136833600Y-93556367D01*
X136969189Y-93530059D01*
X137088359Y-93451777D01*
X137168131Y-93333599D01*
X137196167Y-93193800D01*
X137196167Y-95161800D01*
X137169859Y-95026211D01*
X137091577Y-94907041D01*
X136973399Y-94827269D01*
X136833600Y-94799233D01*
X135106400Y-94799233D01*
X134970811Y-94825541D01*
X134851641Y-94903823D01*
X134771869Y-95022001D01*
X134743833Y-95161800D01*
X134743833Y-97193800D01*
X134770141Y-97329389D01*
X134848423Y-97448559D01*
X134966601Y-97528331D01*
X135106400Y-97556367D01*
X136833600Y-97556367D01*
X136969189Y-97530059D01*
X137088359Y-97451777D01*
X137168131Y-97333599D01*
X137196167Y-97193800D01*
X137196167Y-101133687D01*
X137147467Y-101059551D01*
X137029289Y-100979779D01*
X136889490Y-100951743D01*
X134890510Y-100951743D01*
X134754921Y-100978051D01*
X134635751Y-101056333D01*
X134555979Y-101174511D01*
X134527943Y-101314310D01*
X134527943Y-101350770D01*
X134502163Y-101341243D01*
X134322557Y-101520848D01*
X134322557Y-101161637D01*
X134223958Y-100894835D01*
X133614418Y-100668399D01*
X132964623Y-100692459D01*
X132476042Y-100894835D01*
X132377443Y-101161637D01*
X133350000Y-102134195D01*
X134322557Y-101161637D01*
X134322557Y-101520848D01*
X133529605Y-102313800D01*
X134502163Y-103286357D01*
X134527943Y-103276829D01*
X134527943Y-103313290D01*
X134554251Y-103448879D01*
X134632533Y-103568049D01*
X134750711Y-103647821D01*
X134890510Y-103675857D01*
X136889490Y-103675857D01*
X137025079Y-103649549D01*
X137144249Y-103571267D01*
X137224021Y-103453089D01*
X137252057Y-103313290D01*
X137252057Y-133824766D01*
X137185400Y-133985691D01*
X137185400Y-134842250D01*
X137344150Y-135001000D01*
X138557000Y-135001000D01*
X138557000Y-135255000D01*
X137344150Y-135255000D01*
X137185400Y-135413750D01*
X137185400Y-136270309D01*
X137282073Y-136503698D01*
X137460701Y-136682327D01*
X137694090Y-136779000D01*
X137946709Y-136779000D01*
X138398250Y-136779000D01*
X138557000Y-136620250D01*
X138557000Y-154596349D01*
X138222778Y-154662831D01*
X137831774Y-154924092D01*
X137570513Y-155315096D01*
X137478770Y-155776318D01*
X137478770Y-157659682D01*
X137570513Y-158120904D01*
X137831774Y-158511908D01*
X138222778Y-158773169D01*
X138684000Y-158864912D01*
X139145222Y-158773169D01*
X139536226Y-158511908D01*
X139797487Y-158120904D01*
X139818074Y-158017405D01*
X139900982Y-158303906D01*
X140264011Y-158758024D01*
X140773190Y-159038649D01*
X140867168Y-159059540D01*
X141097000Y-158938214D01*
X141097000Y-159502079D01*
X140589680Y-160009400D01*
X138863510Y-160009400D01*
X138484423Y-160084805D01*
X138163050Y-160299540D01*
X137349230Y-161113360D01*
X137349230Y-157659682D01*
X137349230Y-155776318D01*
X137257487Y-155315096D01*
X137134600Y-155131182D01*
X137134600Y-144018000D01*
X137134600Y-136398000D01*
X137059195Y-136018914D01*
X136844460Y-135697540D01*
X136523086Y-135482805D01*
X136144000Y-135407400D01*
X135764914Y-135482805D01*
X135443540Y-135697540D01*
X135228805Y-136018914D01*
X135153400Y-136398000D01*
X135153400Y-144018000D01*
X135228805Y-144397086D01*
X135443540Y-144718460D01*
X135764914Y-144933195D01*
X136144000Y-145008600D01*
X136523086Y-144933195D01*
X136844460Y-144718460D01*
X137059195Y-144397086D01*
X137134600Y-144018000D01*
X137134600Y-155131182D01*
X136996226Y-154924092D01*
X136605222Y-154662831D01*
X136144000Y-154571088D01*
X135682778Y-154662831D01*
X135291774Y-154924092D01*
X135030513Y-155315096D01*
X134938770Y-155776318D01*
X134938770Y-157659682D01*
X135030513Y-158120904D01*
X135291774Y-158511908D01*
X135682778Y-158773169D01*
X136144000Y-158864912D01*
X136605222Y-158773169D01*
X136996226Y-158511908D01*
X137257487Y-158120904D01*
X137349230Y-157659682D01*
X137349230Y-161113360D01*
X134322557Y-164140033D01*
X134322557Y-103465963D01*
X133350000Y-102493405D01*
X133170395Y-102673010D01*
X133170395Y-102313800D01*
X132197837Y-101341243D01*
X131931035Y-101439842D01*
X131704599Y-102049382D01*
X131728659Y-102699177D01*
X131931035Y-103187758D01*
X132197837Y-103286357D01*
X133170395Y-102313800D01*
X133170395Y-102673010D01*
X132377443Y-103465963D01*
X132476042Y-103732765D01*
X133085582Y-103959201D01*
X133735377Y-103935141D01*
X134223958Y-103732765D01*
X134322557Y-103465963D01*
X134322557Y-164140033D01*
X132562815Y-165899775D01*
X132562815Y-164373520D01*
X132373736Y-163915912D01*
X132023930Y-163565495D01*
X131566652Y-163375617D01*
X131071520Y-163375185D01*
X130613912Y-163564264D01*
X130302000Y-163875632D01*
X130302000Y-163604691D01*
X130205327Y-163371302D01*
X130026699Y-163192673D01*
X129793310Y-163096000D01*
X129540691Y-163096000D01*
X129407401Y-163096000D01*
X129407401Y-158760418D01*
X129383341Y-158110623D01*
X129245835Y-157778652D01*
X129245835Y-94281537D01*
X129039892Y-93783117D01*
X128658888Y-93401448D01*
X128160829Y-93194636D01*
X127621537Y-93194165D01*
X127123117Y-93400108D01*
X126741448Y-93781112D01*
X126534636Y-94279171D01*
X126534165Y-94818463D01*
X126740108Y-95316883D01*
X127121112Y-95698552D01*
X127619171Y-95905364D01*
X128158463Y-95905835D01*
X128656883Y-95699892D01*
X129038552Y-95318888D01*
X129245364Y-94820829D01*
X129245835Y-94281537D01*
X129245835Y-157778652D01*
X129180965Y-157622042D01*
X128914163Y-157523443D01*
X128734557Y-157703048D01*
X128734557Y-157343837D01*
X128635958Y-157077035D01*
X128026418Y-156850599D01*
X127376623Y-156874659D01*
X126888042Y-157077035D01*
X126789443Y-157343837D01*
X127762000Y-158316395D01*
X128734557Y-157343837D01*
X128734557Y-157703048D01*
X127941605Y-158496000D01*
X128914163Y-159468557D01*
X129180965Y-159369958D01*
X129407401Y-158760418D01*
X129407401Y-163096000D01*
X129063750Y-163096000D01*
X128905000Y-163254750D01*
X128905000Y-164493000D01*
X128925000Y-164493000D01*
X128925000Y-164747000D01*
X128905000Y-164747000D01*
X128905000Y-165985250D01*
X129063750Y-166144000D01*
X129540691Y-166144000D01*
X129793310Y-166144000D01*
X130026699Y-166047327D01*
X130205327Y-165868698D01*
X130302000Y-165635309D01*
X130302000Y-165363893D01*
X130612070Y-165674505D01*
X131069348Y-165864383D01*
X131564480Y-165864815D01*
X132022088Y-165675736D01*
X132372505Y-165325930D01*
X132562383Y-164868652D01*
X132562815Y-164373520D01*
X132562815Y-165899775D01*
X129728540Y-168734050D01*
X129513805Y-169055424D01*
X129438400Y-169434510D01*
X129438400Y-170341943D01*
X129429510Y-170341943D01*
X129293921Y-170368251D01*
X129174751Y-170446533D01*
X129094979Y-170564711D01*
X129066943Y-170704510D01*
X129066943Y-172703490D01*
X129093251Y-172839079D01*
X129171533Y-172958249D01*
X129289711Y-173038021D01*
X129429510Y-173066057D01*
X131428490Y-173066057D01*
X131564079Y-173039749D01*
X131683249Y-172961467D01*
X131763021Y-172843289D01*
X131791057Y-172703490D01*
X131791057Y-170704510D01*
X131764749Y-170568921D01*
X131686467Y-170449751D01*
X131568289Y-170369979D01*
X131428490Y-170341943D01*
X131419600Y-170341943D01*
X131419600Y-169844830D01*
X139273830Y-161990600D01*
X141000000Y-161990600D01*
X141379086Y-161915195D01*
X141700460Y-161700460D01*
X144700460Y-158700460D01*
X144915195Y-158379086D01*
X144990600Y-158000000D01*
X144990600Y-159820279D01*
X140873000Y-163947482D01*
X140873000Y-176051337D01*
X142367000Y-177597337D01*
X142367000Y-179157563D01*
X140028024Y-179157563D01*
X140028024Y-170778996D01*
X139708132Y-170004798D01*
X139116318Y-169411949D01*
X138342679Y-169090707D01*
X137504996Y-169089976D01*
X136730798Y-169409868D01*
X136137949Y-170001682D01*
X135816707Y-170775321D01*
X135815976Y-171613004D01*
X136135868Y-172387202D01*
X136727682Y-172980051D01*
X137501321Y-173301293D01*
X138339004Y-173302024D01*
X139113202Y-172982132D01*
X139706051Y-172390318D01*
X140027293Y-171616679D01*
X140028024Y-170778996D01*
X140028024Y-179157563D01*
X139645130Y-179157563D01*
X139509541Y-179183871D01*
X139390371Y-179262153D01*
X139310599Y-179380331D01*
X139282563Y-179520130D01*
X139282563Y-182519870D01*
X139308871Y-182655459D01*
X139387153Y-182774629D01*
X139505331Y-182854401D01*
X139645130Y-182882437D01*
X142367000Y-182882437D01*
X142367000Y-188594400D01*
X137920792Y-188594400D01*
X137920792Y-180652543D01*
X137638908Y-179970334D01*
X137117412Y-179447926D01*
X136435695Y-179164853D01*
X135697543Y-179164208D01*
X135015334Y-179446092D01*
X134492926Y-179967588D01*
X134209853Y-180649305D01*
X134209208Y-181387457D01*
X134491092Y-182069666D01*
X135012588Y-182592074D01*
X135694305Y-182875147D01*
X136432457Y-182875792D01*
X137114666Y-182593908D01*
X137637074Y-182072412D01*
X137920147Y-181390695D01*
X137920792Y-180652543D01*
X137920792Y-188594400D01*
X132847437Y-188594400D01*
X132847437Y-182519870D01*
X132847437Y-179520130D01*
X132821129Y-179384541D01*
X132742847Y-179265371D01*
X132624669Y-179185599D01*
X132484870Y-179157563D01*
X129485130Y-179157563D01*
X129349541Y-179183871D01*
X129230371Y-179262153D01*
X129150599Y-179380331D01*
X129122563Y-179520130D01*
X129122563Y-182519870D01*
X129148871Y-182655459D01*
X129227153Y-182774629D01*
X129345331Y-182854401D01*
X129485130Y-182882437D01*
X132484870Y-182882437D01*
X132620459Y-182856129D01*
X132739629Y-182777847D01*
X132819401Y-182659669D01*
X132847437Y-182519870D01*
X132847437Y-188594400D01*
X128734557Y-188594400D01*
X128734557Y-159648163D01*
X127762000Y-158675605D01*
X127582395Y-158855210D01*
X127582395Y-158496000D01*
X126609837Y-157523443D01*
X126584057Y-157532970D01*
X126584057Y-157496510D01*
X126557749Y-157360921D01*
X126479467Y-157241751D01*
X126361289Y-157161979D01*
X126221490Y-157133943D01*
X125586024Y-157133943D01*
X125586024Y-133440996D01*
X125266132Y-132666798D01*
X124674318Y-132073949D01*
X123900679Y-131752707D01*
X123062996Y-131751976D01*
X122288798Y-132071868D01*
X121695949Y-132663682D01*
X121374707Y-133437321D01*
X121373976Y-134275004D01*
X121693868Y-135049202D01*
X122285682Y-135642051D01*
X123059321Y-135963293D01*
X123897004Y-135964024D01*
X124671202Y-135644132D01*
X125264051Y-135052318D01*
X125585293Y-134278679D01*
X125586024Y-133440996D01*
X125586024Y-157133943D01*
X124222510Y-157133943D01*
X124086921Y-157160251D01*
X123967751Y-157238533D01*
X123887979Y-157356711D01*
X123859943Y-157496510D01*
X123859943Y-159495490D01*
X123886251Y-159631079D01*
X123964533Y-159750249D01*
X124082711Y-159830021D01*
X124222510Y-159858057D01*
X126221490Y-159858057D01*
X126357079Y-159831749D01*
X126476249Y-159753467D01*
X126556021Y-159635289D01*
X126584057Y-159495490D01*
X126584057Y-159459029D01*
X126609837Y-159468557D01*
X127582395Y-158496000D01*
X127582395Y-158855210D01*
X126789443Y-159648163D01*
X126888042Y-159914965D01*
X127497582Y-160141401D01*
X128147377Y-160117341D01*
X128635958Y-159914965D01*
X128734557Y-159648163D01*
X128734557Y-188594400D01*
X128651000Y-188594400D01*
X128651000Y-165985250D01*
X128651000Y-164747000D01*
X128631000Y-164747000D01*
X128631000Y-164493000D01*
X128651000Y-164493000D01*
X128651000Y-163254750D01*
X128492250Y-163096000D01*
X128015309Y-163096000D01*
X127762690Y-163096000D01*
X127529301Y-163192673D01*
X127350673Y-163371302D01*
X127254000Y-163604691D01*
X127254000Y-163876106D01*
X126943930Y-163565495D01*
X126486652Y-163375617D01*
X125991520Y-163375185D01*
X125533912Y-163564264D01*
X125183495Y-163914070D01*
X124993617Y-164371348D01*
X124993185Y-164866480D01*
X125182264Y-165324088D01*
X125532070Y-165674505D01*
X125989348Y-165864383D01*
X126484480Y-165864815D01*
X126942088Y-165675736D01*
X127254000Y-165364367D01*
X127254000Y-165635309D01*
X127350673Y-165868698D01*
X127529301Y-166047327D01*
X127762690Y-166144000D01*
X128015309Y-166144000D01*
X128492250Y-166144000D01*
X128651000Y-165985250D01*
X128651000Y-188594400D01*
X128264401Y-188594400D01*
X128264401Y-171968418D01*
X128240341Y-171318623D01*
X128037965Y-170830042D01*
X127771163Y-170731443D01*
X127591557Y-170911048D01*
X127591557Y-170551837D01*
X127492958Y-170285035D01*
X126883418Y-170058599D01*
X126233623Y-170082659D01*
X125745042Y-170285035D01*
X125646443Y-170551837D01*
X126619000Y-171524395D01*
X127591557Y-170551837D01*
X127591557Y-170911048D01*
X126798605Y-171704000D01*
X127771163Y-172676557D01*
X128037965Y-172577958D01*
X128264401Y-171968418D01*
X128264401Y-188594400D01*
X128047595Y-188594400D01*
X128047595Y-181403783D01*
X128031367Y-180554634D01*
X127737632Y-179845495D01*
X127591557Y-179772279D01*
X127591557Y-172856163D01*
X126619000Y-171883605D01*
X126439395Y-172063210D01*
X126439395Y-171704000D01*
X125466837Y-170731443D01*
X125200035Y-170830042D01*
X124973599Y-171439582D01*
X124997659Y-172089377D01*
X125200035Y-172577958D01*
X125466837Y-172676557D01*
X126439395Y-171704000D01*
X126439395Y-172063210D01*
X125646443Y-172856163D01*
X125745042Y-173122965D01*
X126354582Y-173349401D01*
X127004377Y-173325341D01*
X127492958Y-173122965D01*
X127591557Y-172856163D01*
X127591557Y-179772279D01*
X127418877Y-179685728D01*
X127239272Y-179865333D01*
X127239272Y-179506123D01*
X127079505Y-179187368D01*
X126288783Y-178877405D01*
X125439634Y-178893633D01*
X124730495Y-179187368D01*
X124570728Y-179506123D01*
X125905000Y-180840395D01*
X127239272Y-179506123D01*
X127239272Y-179865333D01*
X126084605Y-181020000D01*
X127418877Y-182354272D01*
X127737632Y-182194505D01*
X128047595Y-181403783D01*
X128047595Y-188594400D01*
X127239272Y-188594400D01*
X127239272Y-182533877D01*
X125905000Y-181199605D01*
X125725395Y-181379210D01*
X125725395Y-181020000D01*
X124391123Y-179685728D01*
X124072368Y-179845495D01*
X123762405Y-180636217D01*
X123778633Y-181485366D01*
X124072368Y-182194505D01*
X124391123Y-182354272D01*
X125725395Y-181020000D01*
X125725395Y-181379210D01*
X124570728Y-182533877D01*
X124730495Y-182852632D01*
X125521217Y-183162595D01*
X126370366Y-183146367D01*
X127079505Y-182852632D01*
X127239272Y-182533877D01*
X127239272Y-188594400D01*
X123418600Y-188594400D01*
X123418600Y-152146000D01*
X123343195Y-151766914D01*
X123228239Y-151594869D01*
X123228239Y-143541296D01*
X123106687Y-143247120D01*
X122881812Y-143021852D01*
X122587848Y-142899787D01*
X122490324Y-142899701D01*
X122224810Y-142634187D01*
X122224810Y-138389408D01*
X122178407Y-138156124D01*
X122046262Y-137958356D01*
X122046262Y-137958355D01*
X122026638Y-137938731D01*
X122094557Y-137870932D01*
X122217460Y-137574947D01*
X122217740Y-137254459D01*
X122095353Y-136958260D01*
X121868932Y-136731443D01*
X121572947Y-136608540D01*
X121252459Y-136608260D01*
X120956260Y-136730647D01*
X120729443Y-136957068D01*
X120606540Y-137253053D01*
X120606419Y-137391082D01*
X120556947Y-137370540D01*
X120439740Y-137370437D01*
X120439740Y-123030459D01*
X120317353Y-122734260D01*
X120090932Y-122507443D01*
X119794947Y-122384540D01*
X119474459Y-122384260D01*
X119178260Y-122506647D01*
X119104378Y-122580400D01*
X116076504Y-122580400D01*
X115867649Y-122371545D01*
X115867740Y-122268459D01*
X115745353Y-121972260D01*
X115518932Y-121745443D01*
X115222947Y-121622540D01*
X114902459Y-121622260D01*
X114606260Y-121744647D01*
X114532378Y-121818400D01*
X110706730Y-121818400D01*
X110665353Y-121718260D01*
X110438932Y-121491443D01*
X110142947Y-121368540D01*
X109822459Y-121368260D01*
X109526260Y-121490647D01*
X109299443Y-121717068D01*
X109176540Y-122013053D01*
X109176260Y-122333541D01*
X109298647Y-122629740D01*
X109525068Y-122856557D01*
X109821053Y-122979460D01*
X109985365Y-122979603D01*
X110002716Y-122991197D01*
X110236000Y-123037600D01*
X114532238Y-123037600D01*
X114605068Y-123110557D01*
X114901053Y-123233460D01*
X115005447Y-123233551D01*
X115392948Y-123621052D01*
X115590716Y-123753197D01*
X115824000Y-123799600D01*
X119104238Y-123799600D01*
X119177068Y-123872557D01*
X119473053Y-123995460D01*
X119793541Y-123995740D01*
X120089740Y-123873353D01*
X120316557Y-123646932D01*
X120439460Y-123350947D01*
X120439740Y-123030459D01*
X120439740Y-137370437D01*
X120236459Y-137370260D01*
X119940260Y-137492647D01*
X119713443Y-137719068D01*
X119590540Y-138015053D01*
X119590260Y-138335541D01*
X119712647Y-138631740D01*
X119939068Y-138858557D01*
X120235053Y-138981460D01*
X120294400Y-138981511D01*
X120294400Y-139498296D01*
X119677649Y-138881545D01*
X119677740Y-138778459D01*
X119555353Y-138482260D01*
X119328932Y-138255443D01*
X119032947Y-138132540D01*
X118712459Y-138132260D01*
X118416260Y-138254647D01*
X118189443Y-138481068D01*
X118066540Y-138777053D01*
X118066260Y-139097541D01*
X118188647Y-139393740D01*
X118415068Y-139620557D01*
X118711053Y-139743460D01*
X118815447Y-139743551D01*
X119532400Y-140460504D01*
X119532400Y-143886696D01*
X119459443Y-143959526D01*
X119336540Y-144255511D01*
X119336260Y-144575999D01*
X119458647Y-144872198D01*
X119685068Y-145099015D01*
X119981053Y-145221918D01*
X120301541Y-145222198D01*
X120597740Y-145099811D01*
X120824557Y-144873390D01*
X120947460Y-144577405D01*
X120947484Y-144548877D01*
X120997053Y-144569460D01*
X121317541Y-144569740D01*
X121613740Y-144447353D01*
X121829133Y-144232335D01*
X121974188Y-144377644D01*
X122268152Y-144499709D01*
X122586452Y-144499987D01*
X122880628Y-144378435D01*
X123105896Y-144153560D01*
X123227961Y-143859596D01*
X123228239Y-143541296D01*
X123228239Y-151594869D01*
X123128460Y-151445540D01*
X122807086Y-151230805D01*
X122428000Y-151155400D01*
X118661740Y-151155400D01*
X118661740Y-142842459D01*
X118539353Y-142546260D01*
X118436600Y-142443327D01*
X118436600Y-142365604D01*
X118436600Y-139954000D01*
X118392404Y-139731814D01*
X118266546Y-139543454D01*
X117645614Y-138922522D01*
X117645740Y-138778459D01*
X117523353Y-138482260D01*
X117296932Y-138255443D01*
X117000947Y-138132540D01*
X116680459Y-138132260D01*
X116384260Y-138254647D01*
X116157443Y-138481068D01*
X116034540Y-138777053D01*
X116034260Y-139097541D01*
X116156647Y-139393740D01*
X116383068Y-139620557D01*
X116679053Y-139743460D01*
X116824495Y-139743587D01*
X117275400Y-140194492D01*
X117275400Y-142365604D01*
X117275400Y-142443289D01*
X117173443Y-142545068D01*
X117137740Y-142631050D01*
X117137740Y-141572459D01*
X117015353Y-141276260D01*
X116788932Y-141049443D01*
X116492947Y-140926540D01*
X116172459Y-140926260D01*
X115876260Y-141048647D01*
X115867740Y-141057152D01*
X115867740Y-140048459D01*
X115745353Y-139752260D01*
X115642600Y-139649327D01*
X115642600Y-138226710D01*
X115744557Y-138124932D01*
X115867460Y-137828947D01*
X115867740Y-137508459D01*
X115745353Y-137212260D01*
X115518932Y-136985443D01*
X115222947Y-136862540D01*
X114902459Y-136862260D01*
X114606260Y-136984647D01*
X114379443Y-137211068D01*
X114256540Y-137507053D01*
X114256260Y-137827541D01*
X114378647Y-138123740D01*
X114481400Y-138226672D01*
X114481400Y-139649289D01*
X114379443Y-139751068D01*
X114256540Y-140047053D01*
X114256260Y-140367541D01*
X114378647Y-140663740D01*
X114605068Y-140890557D01*
X114901053Y-141013460D01*
X115221541Y-141013740D01*
X115517740Y-140891353D01*
X115744557Y-140664932D01*
X115867460Y-140368947D01*
X115867740Y-140048459D01*
X115867740Y-141057152D01*
X115773327Y-141151400D01*
X115695604Y-141151400D01*
X112508491Y-141151400D01*
X108247614Y-136890522D01*
X108247717Y-136771806D01*
X108282647Y-136856341D01*
X108509068Y-137083158D01*
X108805053Y-137206061D01*
X109125541Y-137206341D01*
X109421740Y-137083954D01*
X109498227Y-137007600D01*
X112119238Y-137007600D01*
X112192068Y-137080557D01*
X112488053Y-137203460D01*
X112808541Y-137203740D01*
X113104740Y-137081353D01*
X113331557Y-136854932D01*
X113454460Y-136558947D01*
X113454740Y-136238459D01*
X113332353Y-135942260D01*
X113245815Y-135855571D01*
X113476460Y-135701460D01*
X113691195Y-135380086D01*
X113766600Y-135001000D01*
X113691195Y-134621914D01*
X113476460Y-134300540D01*
X113155086Y-134085805D01*
X112776000Y-134010400D01*
X104985835Y-134010400D01*
X104985835Y-94281537D01*
X104779892Y-93783117D01*
X104398888Y-93401448D01*
X103900829Y-93194636D01*
X103361537Y-93194165D01*
X102863117Y-93400108D01*
X102481448Y-93781112D01*
X102274636Y-94279171D01*
X102274165Y-94818463D01*
X102480108Y-95316883D01*
X102861112Y-95698552D01*
X103359171Y-95905364D01*
X103898463Y-95905835D01*
X104396883Y-95699892D01*
X104778552Y-95318888D01*
X104985364Y-94820829D01*
X104985835Y-94281537D01*
X104985835Y-134010400D01*
X104521000Y-134010400D01*
X104141914Y-134085805D01*
X103820540Y-134300540D01*
X103605805Y-134621914D01*
X103530400Y-135001000D01*
X103605805Y-135380086D01*
X103820540Y-135701460D01*
X104141914Y-135916195D01*
X104521000Y-135991600D01*
X108263540Y-135991600D01*
X108160540Y-136239654D01*
X108160282Y-136534794D01*
X108125353Y-136450260D01*
X107898932Y-136223443D01*
X107602947Y-136100540D01*
X107282459Y-136100260D01*
X106986260Y-136222647D01*
X106759443Y-136449068D01*
X106636540Y-136745053D01*
X106636260Y-137065541D01*
X106758647Y-137361740D01*
X106985068Y-137588557D01*
X107281053Y-137711460D01*
X107426495Y-137711587D01*
X111530217Y-141815309D01*
X111473459Y-141815260D01*
X111177260Y-141937647D01*
X110950443Y-142164068D01*
X110827540Y-142460053D01*
X110827412Y-142605494D01*
X110714454Y-142718454D01*
X110588596Y-142906814D01*
X110544400Y-143129000D01*
X110544400Y-144145000D01*
X110588596Y-144367186D01*
X110714454Y-144555546D01*
X110902814Y-144681404D01*
X111125000Y-144725600D01*
X111347186Y-144681404D01*
X111535546Y-144555546D01*
X111661404Y-144367186D01*
X111705600Y-144145000D01*
X111705600Y-143426664D01*
X111792541Y-143426740D01*
X112088740Y-143304353D01*
X112315557Y-143077932D01*
X112438460Y-142781947D01*
X112438740Y-142461459D01*
X112377232Y-142312600D01*
X115695604Y-142312600D01*
X115773289Y-142312600D01*
X115875068Y-142414557D01*
X116171053Y-142537460D01*
X116491541Y-142537740D01*
X116787740Y-142415353D01*
X117014557Y-142188932D01*
X117137460Y-141892947D01*
X117137740Y-141572459D01*
X117137740Y-142631050D01*
X117050540Y-142841053D01*
X117050260Y-143161541D01*
X117172647Y-143457740D01*
X117399068Y-143684557D01*
X117695053Y-143807460D01*
X118015541Y-143807740D01*
X118311740Y-143685353D01*
X118538557Y-143458932D01*
X118661460Y-143162947D01*
X118661740Y-142842459D01*
X118661740Y-151155400D01*
X117195600Y-151155400D01*
X117195600Y-148463000D01*
X117120195Y-148083914D01*
X117120195Y-148083913D01*
X116905460Y-147762540D01*
X113476460Y-144333540D01*
X113155086Y-144118805D01*
X112776000Y-144043400D01*
X112396914Y-144118805D01*
X112075540Y-144333540D01*
X111860805Y-144654914D01*
X111785400Y-145034000D01*
X111860805Y-145413086D01*
X112075540Y-145734460D01*
X115214400Y-148873320D01*
X115214400Y-152146000D01*
X115289805Y-152525086D01*
X115504540Y-152846460D01*
X115825914Y-153061195D01*
X116205000Y-153136600D01*
X122428000Y-153136600D01*
X122807086Y-153061195D01*
X123128460Y-152846460D01*
X123343195Y-152525086D01*
X123418600Y-152146000D01*
X123418600Y-188594400D01*
X122687437Y-188594400D01*
X122687437Y-182519870D01*
X122687437Y-179520130D01*
X122661129Y-179384541D01*
X122582847Y-179265371D01*
X122464669Y-179185599D01*
X122324870Y-179157563D01*
X121767793Y-179157563D01*
X121767793Y-171736671D01*
X121598008Y-171325758D01*
X121283896Y-171011097D01*
X120873280Y-170840594D01*
X120428671Y-170840207D01*
X120017758Y-171009992D01*
X119703097Y-171324104D01*
X119532594Y-171734720D01*
X119532207Y-172179329D01*
X119701992Y-172590242D01*
X120016104Y-172904903D01*
X120426720Y-173075406D01*
X120871329Y-173075793D01*
X121282242Y-172906008D01*
X121596903Y-172591896D01*
X121767406Y-172181280D01*
X121767793Y-171736671D01*
X121767793Y-179157563D01*
X119325130Y-179157563D01*
X119227793Y-179176449D01*
X119227793Y-171736671D01*
X119058008Y-171325758D01*
X118743896Y-171011097D01*
X118333280Y-170840594D01*
X117888671Y-170840207D01*
X117477758Y-171009992D01*
X117163097Y-171324104D01*
X116992594Y-171734720D01*
X116992207Y-172179329D01*
X117161992Y-172590242D01*
X117476104Y-172904903D01*
X117886720Y-173075406D01*
X118331329Y-173075793D01*
X118742242Y-172906008D01*
X119056903Y-172591896D01*
X119227406Y-172181280D01*
X119227793Y-171736671D01*
X119227793Y-179176449D01*
X119189541Y-179183871D01*
X119070371Y-179262153D01*
X118990599Y-179380331D01*
X118962563Y-179520130D01*
X118962563Y-182519870D01*
X118988871Y-182655459D01*
X119067153Y-182774629D01*
X119185331Y-182854401D01*
X119325130Y-182882437D01*
X122324870Y-182882437D01*
X122460459Y-182856129D01*
X122579629Y-182777847D01*
X122659401Y-182659669D01*
X122687437Y-182519870D01*
X122687437Y-188594400D01*
X117600792Y-188594400D01*
X117600792Y-180652543D01*
X117318908Y-179970334D01*
X116797412Y-179447926D01*
X116694567Y-179405221D01*
X116694567Y-172720000D01*
X116694567Y-171196000D01*
X116668259Y-171060411D01*
X116589977Y-170941241D01*
X116471799Y-170861469D01*
X116332000Y-170833433D01*
X115359740Y-170833433D01*
X115359740Y-157320459D01*
X115237353Y-157024260D01*
X115010932Y-156797443D01*
X114714947Y-156674540D01*
X114394459Y-156674260D01*
X114376200Y-156681804D01*
X114376200Y-153035000D01*
X114300795Y-152655914D01*
X114086060Y-152334540D01*
X113764686Y-152119805D01*
X113385600Y-152044400D01*
X113073740Y-152044400D01*
X113073740Y-149954459D01*
X112951353Y-149658260D01*
X112724932Y-149431443D01*
X112428947Y-149308540D01*
X112108459Y-149308260D01*
X111812260Y-149430647D01*
X111738378Y-149504400D01*
X108225539Y-149504400D01*
X108025932Y-149304443D01*
X107729947Y-149181540D01*
X107409459Y-149181260D01*
X107113260Y-149303647D01*
X106886443Y-149530068D01*
X106763540Y-149826053D01*
X106763260Y-150146541D01*
X106885647Y-150442740D01*
X107112068Y-150669557D01*
X107408053Y-150792460D01*
X107728541Y-150792740D01*
X107895872Y-150723600D01*
X111738238Y-150723600D01*
X111811068Y-150796557D01*
X112107053Y-150919460D01*
X112427541Y-150919740D01*
X112723740Y-150797353D01*
X112950557Y-150570932D01*
X113073460Y-150274947D01*
X113073740Y-149954459D01*
X113073740Y-152044400D01*
X109245400Y-152044400D01*
X105283000Y-152044400D01*
X104903914Y-152119805D01*
X104582540Y-152334540D01*
X104367805Y-152655914D01*
X104292400Y-153035000D01*
X104367805Y-153414086D01*
X104582540Y-153735460D01*
X104903914Y-153950195D01*
X105283000Y-154025600D01*
X109245400Y-154025600D01*
X113385600Y-154025600D01*
X113764686Y-153950195D01*
X114086060Y-153735460D01*
X114300795Y-153414086D01*
X114376200Y-153035000D01*
X114376200Y-156681804D01*
X114098260Y-156796647D01*
X113871443Y-157023068D01*
X113748540Y-157319053D01*
X113748448Y-157423447D01*
X113672949Y-157498947D01*
X112219666Y-158952229D01*
X107340990Y-158952229D01*
X107268161Y-158879272D01*
X106972176Y-158756369D01*
X106651688Y-158756089D01*
X106355489Y-158878476D01*
X106128672Y-159104897D01*
X106005769Y-159400882D01*
X106005489Y-159721370D01*
X106127876Y-160017569D01*
X106354297Y-160244386D01*
X106650282Y-160367289D01*
X106970770Y-160367569D01*
X107266969Y-160245182D01*
X107340850Y-160171429D01*
X112472171Y-160171429D01*
X112705455Y-160125026D01*
X112903223Y-159992881D01*
X114535053Y-158361051D01*
X114610454Y-158285649D01*
X114713541Y-158285740D01*
X115009740Y-158163353D01*
X115236557Y-157936932D01*
X115359460Y-157640947D01*
X115359740Y-157320459D01*
X115359740Y-170833433D01*
X114808000Y-170833433D01*
X114672411Y-170859741D01*
X114553241Y-170938023D01*
X114473469Y-171056201D01*
X114445433Y-171196000D01*
X114445433Y-172720000D01*
X114471741Y-172855589D01*
X114550023Y-172974759D01*
X114668201Y-173054531D01*
X114808000Y-173082567D01*
X116332000Y-173082567D01*
X116467589Y-173056259D01*
X116586759Y-172977977D01*
X116666531Y-172859799D01*
X116694567Y-172720000D01*
X116694567Y-179405221D01*
X116115695Y-179164853D01*
X115377543Y-179164208D01*
X114695334Y-179446092D01*
X114172926Y-179967588D01*
X113889853Y-180649305D01*
X113889208Y-181387457D01*
X114171092Y-182069666D01*
X114692588Y-182592074D01*
X115374305Y-182875147D01*
X116112457Y-182875792D01*
X116794666Y-182593908D01*
X117317074Y-182072412D01*
X117600147Y-181390695D01*
X117600792Y-180652543D01*
X117600792Y-188594400D01*
X113810340Y-188594400D01*
X113810340Y-166464459D01*
X113687953Y-166168260D01*
X113461532Y-165941443D01*
X113165547Y-165818540D01*
X112845059Y-165818260D01*
X112548860Y-165940647D01*
X112322043Y-166167068D01*
X112199140Y-166463053D01*
X112198860Y-166783541D01*
X112321247Y-167079740D01*
X112547668Y-167306557D01*
X112843653Y-167429460D01*
X113164141Y-167429740D01*
X113460340Y-167307353D01*
X113687157Y-167080932D01*
X113810060Y-166784947D01*
X113810340Y-166464459D01*
X113810340Y-188594400D01*
X112527437Y-188594400D01*
X112527437Y-182519870D01*
X112527437Y-179520130D01*
X112501129Y-179384541D01*
X112422847Y-179265371D01*
X112304669Y-179185599D01*
X112164870Y-179157563D01*
X109165130Y-179157563D01*
X109029541Y-179183871D01*
X108910371Y-179262153D01*
X108830599Y-179380331D01*
X108802563Y-179520130D01*
X108802563Y-182519870D01*
X108828871Y-182655459D01*
X108907153Y-182774629D01*
X109025331Y-182854401D01*
X109165130Y-182882437D01*
X112164870Y-182882437D01*
X112300459Y-182856129D01*
X112419629Y-182777847D01*
X112499401Y-182659669D01*
X112527437Y-182519870D01*
X112527437Y-188594400D01*
X107440792Y-188594400D01*
X107440792Y-180652543D01*
X107158908Y-179970334D01*
X106637412Y-179447926D01*
X105955695Y-179164853D01*
X105217543Y-179164208D01*
X104535334Y-179446092D01*
X104012926Y-179967588D01*
X103729853Y-180649305D01*
X103729208Y-181387457D01*
X104011092Y-182069666D01*
X104532588Y-182592074D01*
X105214305Y-182875147D01*
X105952457Y-182875792D01*
X106634666Y-182593908D01*
X107157074Y-182072412D01*
X107440147Y-181390695D01*
X107440792Y-180652543D01*
X107440792Y-188594400D01*
X99106024Y-188594400D01*
X99106024Y-182582996D01*
X99106024Y-94582996D01*
X98786132Y-93808798D01*
X98194318Y-93215949D01*
X97420679Y-92894707D01*
X96582996Y-92893976D01*
X95808798Y-93213868D01*
X95215949Y-93805682D01*
X94894707Y-94579321D01*
X94893976Y-95417004D01*
X95213868Y-96191202D01*
X95805682Y-96784051D01*
X96579321Y-97105293D01*
X97417004Y-97106024D01*
X98191202Y-96786132D01*
X98784051Y-96194318D01*
X99105293Y-95420679D01*
X99106024Y-94582996D01*
X99106024Y-182582996D01*
X98786132Y-181808798D01*
X98194318Y-181215949D01*
X97420679Y-180894707D01*
X96582996Y-180893976D01*
X95808798Y-181213868D01*
X95215949Y-181805682D01*
X94894707Y-182579321D01*
X94893976Y-183417004D01*
X95213868Y-184191202D01*
X95805682Y-184784051D01*
X96579321Y-185105293D01*
X97417004Y-185106024D01*
X98191202Y-184786132D01*
X98784051Y-184194318D01*
X99105293Y-183420679D01*
X99106024Y-182582996D01*
X99106024Y-188594400D01*
X91405600Y-188594400D01*
X91405600Y-89405600D01*
X170594400Y-89405600D01*
X170594400Y-151873000D01*
X170594400Y-151873000D01*
G37*
X170594400Y-151873000D02*
X167106024Y-151873000D01*
X167106024Y-94582996D01*
X166786132Y-93808798D01*
X166194318Y-93215949D01*
X165420679Y-92894707D01*
X164582996Y-92893976D01*
X163808798Y-93213868D01*
X163215949Y-93805682D01*
X162894707Y-94579321D01*
X162893976Y-95417004D01*
X163213868Y-96191202D01*
X163805682Y-96784051D01*
X164579321Y-97105293D01*
X165417004Y-97106024D01*
X166191202Y-96786132D01*
X166784051Y-96194318D01*
X167105293Y-95420679D01*
X167106024Y-94582996D01*
X167106024Y-151873000D01*
X166255144Y-151873000D01*
X166255144Y-134573698D01*
X166227362Y-134018632D01*
X166068397Y-133634857D01*
X165963793Y-133604853D01*
X165963793Y-131604671D01*
X165963793Y-129064671D01*
X165794008Y-128653758D01*
X165479896Y-128339097D01*
X165069280Y-128168594D01*
X164624671Y-128168207D01*
X164213758Y-128337992D01*
X163899097Y-128652104D01*
X163728594Y-129062720D01*
X163728207Y-129507329D01*
X163897992Y-129918242D01*
X164212104Y-130232903D01*
X164622720Y-130403406D01*
X165067329Y-130403793D01*
X165478242Y-130234008D01*
X165792903Y-129919896D01*
X165963406Y-129509280D01*
X165963793Y-129064671D01*
X165963793Y-131604671D01*
X165794008Y-131193758D01*
X165479896Y-130879097D01*
X165069280Y-130708594D01*
X164624671Y-130708207D01*
X164213758Y-130877992D01*
X163899097Y-131192104D01*
X163728594Y-131602720D01*
X163728207Y-132047329D01*
X163897992Y-132458242D01*
X164212104Y-132772903D01*
X164622720Y-132943406D01*
X165067329Y-132943793D01*
X165478242Y-132774008D01*
X165792903Y-132459896D01*
X165963406Y-132049280D01*
X165963793Y-131604671D01*
X165963793Y-133604853D01*
X165826213Y-133565392D01*
X165646608Y-133744997D01*
X165646608Y-133385787D01*
X165577143Y-133143603D01*
X165053698Y-132956856D01*
X164498632Y-132984638D01*
X164114857Y-133143603D01*
X164045392Y-133385787D01*
X164846000Y-134186395D01*
X165646608Y-133385787D01*
X165646608Y-133744997D01*
X165025605Y-134366000D01*
X165826213Y-135166608D01*
X166068397Y-135097143D01*
X166255144Y-134573698D01*
X166255144Y-151873000D01*
X165963793Y-151873000D01*
X165963793Y-139224671D01*
X165963793Y-136684671D01*
X165794008Y-136273758D01*
X165646608Y-136126100D01*
X165646608Y-135346213D01*
X164846000Y-134545605D01*
X164666395Y-134725210D01*
X164666395Y-134366000D01*
X163865787Y-133565392D01*
X163623603Y-133634857D01*
X163436856Y-134158302D01*
X163464638Y-134713368D01*
X163623603Y-135097143D01*
X163865787Y-135166608D01*
X164666395Y-134366000D01*
X164666395Y-134725210D01*
X164045392Y-135346213D01*
X164114857Y-135588397D01*
X164638302Y-135775144D01*
X165193368Y-135747362D01*
X165577143Y-135588397D01*
X165646608Y-135346213D01*
X165646608Y-136126100D01*
X165479896Y-135959097D01*
X165069280Y-135788594D01*
X164624671Y-135788207D01*
X164213758Y-135957992D01*
X163899097Y-136272104D01*
X163728594Y-136682720D01*
X163728207Y-137127329D01*
X163897992Y-137538242D01*
X164212104Y-137852903D01*
X164622720Y-138023406D01*
X165067329Y-138023793D01*
X165478242Y-137854008D01*
X165792903Y-137539896D01*
X165963406Y-137129280D01*
X165963793Y-136684671D01*
X165963793Y-139224671D01*
X165794008Y-138813758D01*
X165479896Y-138499097D01*
X165069280Y-138328594D01*
X164624671Y-138328207D01*
X164213758Y-138497992D01*
X163899097Y-138812104D01*
X163728594Y-139222720D01*
X163728207Y-139667329D01*
X163897992Y-140078242D01*
X164212104Y-140392903D01*
X164622720Y-140563406D01*
X165067329Y-140563793D01*
X165478242Y-140394008D01*
X165792903Y-140079896D01*
X165963406Y-139669280D01*
X165963793Y-139224671D01*
X165963793Y-151873000D01*
X163430567Y-151873000D01*
X163430567Y-130048000D01*
X163430567Y-128524000D01*
X163404259Y-128388411D01*
X163325977Y-128269241D01*
X163207799Y-128189469D01*
X163068000Y-128161433D01*
X161544000Y-128161433D01*
X161408411Y-128187741D01*
X161289241Y-128266023D01*
X161209469Y-128384201D01*
X161181433Y-128524000D01*
X161181433Y-130048000D01*
X161207741Y-130183589D01*
X161286023Y-130302759D01*
X161404201Y-130382531D01*
X161544000Y-130410567D01*
X163068000Y-130410567D01*
X163203589Y-130384259D01*
X163322759Y-130305977D01*
X163402531Y-130187799D01*
X163430567Y-130048000D01*
X163430567Y-151873000D01*
X163423793Y-151873000D01*
X163423793Y-139224671D01*
X163423793Y-136684671D01*
X163423793Y-134144671D01*
X163423793Y-131604671D01*
X163254008Y-131193758D01*
X162939896Y-130879097D01*
X162529280Y-130708594D01*
X162084671Y-130708207D01*
X161673758Y-130877992D01*
X161359097Y-131192104D01*
X161188594Y-131602720D01*
X161188207Y-132047329D01*
X161357992Y-132458242D01*
X161672104Y-132772903D01*
X162082720Y-132943406D01*
X162527329Y-132943793D01*
X162938242Y-132774008D01*
X163252903Y-132459896D01*
X163423406Y-132049280D01*
X163423793Y-131604671D01*
X163423793Y-134144671D01*
X163254008Y-133733758D01*
X162939896Y-133419097D01*
X162529280Y-133248594D01*
X162084671Y-133248207D01*
X161673758Y-133417992D01*
X161359097Y-133732104D01*
X161188594Y-134142720D01*
X161188207Y-134587329D01*
X161357992Y-134998242D01*
X161672104Y-135312903D01*
X162082720Y-135483406D01*
X162527329Y-135483793D01*
X162938242Y-135314008D01*
X163252903Y-134999896D01*
X163423406Y-134589280D01*
X163423793Y-134144671D01*
X163423793Y-136684671D01*
X163254008Y-136273758D01*
X162939896Y-135959097D01*
X162529280Y-135788594D01*
X162084671Y-135788207D01*
X161673758Y-135957992D01*
X161359097Y-136272104D01*
X161188594Y-136682720D01*
X161188207Y-137127329D01*
X161357992Y-137538242D01*
X161672104Y-137852903D01*
X162082720Y-138023406D01*
X162527329Y-138023793D01*
X162938242Y-137854008D01*
X163252903Y-137539896D01*
X163423406Y-137129280D01*
X163423793Y-136684671D01*
X163423793Y-139224671D01*
X163254008Y-138813758D01*
X162939896Y-138499097D01*
X162529280Y-138328594D01*
X162084671Y-138328207D01*
X161673758Y-138497992D01*
X161359097Y-138812104D01*
X161188594Y-139222720D01*
X161188207Y-139667329D01*
X161357992Y-140078242D01*
X161672104Y-140392903D01*
X162082720Y-140563406D01*
X162527329Y-140563793D01*
X162938242Y-140394008D01*
X163252903Y-140079896D01*
X163423406Y-139669280D01*
X163423793Y-139224671D01*
X163423793Y-151873000D01*
X160063740Y-151873000D01*
X160063740Y-115410459D01*
X159941353Y-115114260D01*
X159714932Y-114887443D01*
X159418947Y-114764540D01*
X159137967Y-114764294D01*
X159137967Y-93169800D01*
X159137967Y-91137800D01*
X159111659Y-91002211D01*
X159033377Y-90883041D01*
X158915199Y-90803269D01*
X158775400Y-90775233D01*
X157048200Y-90775233D01*
X156912611Y-90801541D01*
X156793441Y-90879823D01*
X156713669Y-90998001D01*
X156685633Y-91137800D01*
X156685633Y-93169800D01*
X156711941Y-93305389D01*
X156790223Y-93424559D01*
X156908401Y-93504331D01*
X157048200Y-93532367D01*
X158775400Y-93532367D01*
X158910989Y-93506059D01*
X159030159Y-93427777D01*
X159109931Y-93309599D01*
X159137967Y-93169800D01*
X159137967Y-114764294D01*
X159098459Y-114764260D01*
X158802260Y-114886647D01*
X158728378Y-114960400D01*
X156591000Y-114960400D01*
X156591000Y-92333071D01*
X156591000Y-91974529D01*
X156498194Y-91507961D01*
X156233905Y-91112424D01*
X155838368Y-90848135D01*
X155371800Y-90755329D01*
X154905232Y-90848135D01*
X154509695Y-91112424D01*
X154245406Y-91507961D01*
X154152600Y-91974529D01*
X154152600Y-92333071D01*
X154245406Y-92799639D01*
X154509695Y-93195176D01*
X154905232Y-93459465D01*
X155371800Y-93552271D01*
X155838368Y-93459465D01*
X156233905Y-93195176D01*
X156498194Y-92799639D01*
X156591000Y-92333071D01*
X156591000Y-114960400D01*
X154051000Y-114960400D01*
X154051000Y-92333071D01*
X154051000Y-91974529D01*
X153958194Y-91507961D01*
X153693905Y-91112424D01*
X153298368Y-90848135D01*
X152831800Y-90755329D01*
X152365232Y-90848135D01*
X151969695Y-91112424D01*
X151705406Y-91507961D01*
X151612600Y-91974529D01*
X151612600Y-92333071D01*
X151705406Y-92799639D01*
X151969695Y-93195176D01*
X152365232Y-93459465D01*
X152831800Y-93552271D01*
X153298368Y-93459465D01*
X153693905Y-93195176D01*
X153958194Y-92799639D01*
X154051000Y-92333071D01*
X154051000Y-114960400D01*
X152929761Y-114960400D01*
X152856932Y-114887443D01*
X152560947Y-114764540D01*
X152240459Y-114764260D01*
X151944260Y-114886647D01*
X151717443Y-115113068D01*
X151594540Y-115409053D01*
X151594260Y-115729541D01*
X151716647Y-116025740D01*
X151943068Y-116252557D01*
X152239053Y-116375460D01*
X152559541Y-116375740D01*
X152855740Y-116253353D01*
X152929621Y-116179600D01*
X158728238Y-116179600D01*
X158801068Y-116252557D01*
X159097053Y-116375460D01*
X159417541Y-116375740D01*
X159713740Y-116253353D01*
X159940557Y-116026932D01*
X160063460Y-115730947D01*
X160063740Y-115410459D01*
X160063740Y-151873000D01*
X159855879Y-151873000D01*
X159855879Y-148182027D01*
X159611955Y-147591689D01*
X159160687Y-147139632D01*
X159042582Y-147090590D01*
X159042582Y-127349891D01*
X158921030Y-127055715D01*
X158696155Y-126830447D01*
X158402191Y-126708382D01*
X158170712Y-126708179D01*
X157273610Y-125811078D01*
X157273695Y-125714576D01*
X157152143Y-125420400D01*
X156927268Y-125195132D01*
X156633304Y-125073067D01*
X156315004Y-125072789D01*
X156020828Y-125194341D01*
X155795560Y-125419216D01*
X155673495Y-125713180D01*
X155673217Y-126031480D01*
X155794769Y-126325656D01*
X156019644Y-126550924D01*
X156313608Y-126672989D01*
X156411398Y-126673074D01*
X157468147Y-127729824D01*
X157563656Y-127960971D01*
X157788531Y-128186239D01*
X157917888Y-128239953D01*
X157654829Y-128348647D01*
X157580947Y-128422400D01*
X156210000Y-128422400D01*
X155976716Y-128468803D01*
X155778948Y-128600948D01*
X155391545Y-128988350D01*
X155288459Y-128988260D01*
X154992260Y-129110647D01*
X154765443Y-129337068D01*
X154642540Y-129633053D01*
X154642260Y-129953541D01*
X154651141Y-129975034D01*
X154604407Y-129974994D01*
X154308208Y-130097381D01*
X154081391Y-130323802D01*
X153958488Y-130619787D01*
X153958212Y-130934996D01*
X153722625Y-131032339D01*
X153495808Y-131258760D01*
X153372905Y-131554745D01*
X153372708Y-131780164D01*
X153249844Y-131780057D01*
X152955668Y-131901609D01*
X152730400Y-132126484D01*
X152608335Y-132420448D01*
X152608221Y-132549930D01*
X152414416Y-132549761D01*
X152120240Y-132671313D01*
X151894972Y-132896188D01*
X151772907Y-133190152D01*
X151772629Y-133508452D01*
X151894181Y-133802628D01*
X151963268Y-133871835D01*
X151963268Y-137455842D01*
X151841347Y-137749460D01*
X151841069Y-138067760D01*
X151962621Y-138361936D01*
X152187496Y-138587204D01*
X152481460Y-138709269D01*
X152799760Y-138709547D01*
X153093936Y-138587995D01*
X153319204Y-138363120D01*
X153441269Y-138069156D01*
X153441486Y-137820331D01*
X153688760Y-137820547D01*
X153982936Y-137698995D01*
X154097935Y-137584195D01*
X154229068Y-137715557D01*
X154525053Y-137838460D01*
X154845541Y-137838740D01*
X155141740Y-137716353D01*
X155368557Y-137489932D01*
X155491460Y-137193947D01*
X155491740Y-136873459D01*
X155369353Y-136577260D01*
X155358714Y-136566602D01*
X155649740Y-136446353D01*
X155876557Y-136219932D01*
X155999460Y-135923947D01*
X155999740Y-135603459D01*
X155877353Y-135307260D01*
X155676600Y-135106155D01*
X155676600Y-132080000D01*
X155676600Y-131083786D01*
X155630197Y-130850502D01*
X155569566Y-130759763D01*
X155569688Y-130621193D01*
X155560806Y-130599699D01*
X155607541Y-130599740D01*
X155903740Y-130477353D01*
X156130557Y-130250932D01*
X156253460Y-129954947D01*
X156253551Y-129850552D01*
X156462504Y-129641600D01*
X157580807Y-129641600D01*
X157653637Y-129714557D01*
X157949622Y-129837460D01*
X158270110Y-129837740D01*
X158566309Y-129715353D01*
X158793126Y-129488932D01*
X158916029Y-129192947D01*
X158916309Y-128872459D01*
X158793922Y-128576260D01*
X158567501Y-128349443D01*
X158435029Y-128294436D01*
X158694971Y-128187030D01*
X158920239Y-127962155D01*
X159042304Y-127668191D01*
X159042582Y-127349891D01*
X159042582Y-147090590D01*
X158570775Y-146894679D01*
X158539740Y-146894651D01*
X158539740Y-140352165D01*
X158417353Y-140055966D01*
X158190932Y-139829149D01*
X157894947Y-139706246D01*
X157574459Y-139705966D01*
X157542871Y-139719017D01*
X157543044Y-139521155D01*
X157420657Y-139224956D01*
X157194236Y-138998139D01*
X156898251Y-138875236D01*
X156577763Y-138874956D01*
X156281564Y-138997343D01*
X156207682Y-139071096D01*
X151511000Y-139071096D01*
X151511000Y-92333071D01*
X151511000Y-91974529D01*
X151418194Y-91507961D01*
X151153905Y-91112424D01*
X150758368Y-90848135D01*
X150291800Y-90755329D01*
X149825232Y-90848135D01*
X149429695Y-91112424D01*
X149165406Y-91507961D01*
X149155350Y-91558512D01*
X149043754Y-91239480D01*
X148653836Y-90803068D01*
X148126591Y-90549091D01*
X148110826Y-90546442D01*
X147878800Y-90667583D01*
X147878800Y-92026800D01*
X147898800Y-92026800D01*
X147898800Y-92280800D01*
X147878800Y-92280800D01*
X147878800Y-93640017D01*
X148110826Y-93761158D01*
X148126591Y-93758509D01*
X148653836Y-93504532D01*
X149043754Y-93068120D01*
X149155350Y-92749087D01*
X149165406Y-92799639D01*
X149429695Y-93195176D01*
X149825232Y-93459465D01*
X150291800Y-93552271D01*
X150758368Y-93459465D01*
X151153905Y-93195176D01*
X151418194Y-92799639D01*
X151511000Y-92333071D01*
X151511000Y-139071096D01*
X151168239Y-139071096D01*
X151168239Y-116173548D01*
X151046687Y-115879372D01*
X150821812Y-115654104D01*
X150527848Y-115532039D01*
X150209548Y-115531761D01*
X149915372Y-115653313D01*
X149846164Y-115722400D01*
X149739383Y-115722400D01*
X149506099Y-115768803D01*
X149308331Y-115900948D01*
X148744926Y-116464353D01*
X148612781Y-116662121D01*
X148566378Y-116895405D01*
X148566378Y-117060418D01*
X147911358Y-117715437D01*
X147911358Y-116437026D01*
X147911358Y-115718974D01*
X147908709Y-115703209D01*
X147654732Y-115175964D01*
X147218320Y-114786046D01*
X146899287Y-114674449D01*
X146949839Y-114664394D01*
X147345376Y-114400105D01*
X147609665Y-114004568D01*
X147702471Y-113538000D01*
X147702471Y-110998000D01*
X147702471Y-108458000D01*
X147682567Y-108357935D01*
X147682567Y-106781600D01*
X147682567Y-105054400D01*
X147656259Y-104918811D01*
X147624800Y-104870920D01*
X147624800Y-93640017D01*
X147624800Y-92280800D01*
X147624800Y-92026800D01*
X147624800Y-90667583D01*
X147392774Y-90546442D01*
X147377009Y-90549091D01*
X146849764Y-90803068D01*
X146459846Y-91239480D01*
X146266616Y-91791887D01*
X146410876Y-92026800D01*
X147624800Y-92026800D01*
X147624800Y-92280800D01*
X146410876Y-92280800D01*
X146266616Y-92515713D01*
X146459846Y-93068120D01*
X146849764Y-93504532D01*
X147377009Y-93758509D01*
X147392774Y-93761158D01*
X147624800Y-93640017D01*
X147624800Y-104870920D01*
X147577977Y-104799641D01*
X147459799Y-104719869D01*
X147320000Y-104691833D01*
X145288000Y-104691833D01*
X145152411Y-104718141D01*
X145075184Y-104768870D01*
X145075184Y-96539713D01*
X145075184Y-95815887D01*
X145075184Y-92539713D01*
X145075184Y-91815887D01*
X144881954Y-91263480D01*
X144492036Y-90827068D01*
X143964791Y-90573091D01*
X143949026Y-90570442D01*
X143717000Y-90691583D01*
X143717000Y-92050800D01*
X144930924Y-92050800D01*
X145075184Y-91815887D01*
X145075184Y-92539713D01*
X144930924Y-92304800D01*
X143717000Y-92304800D01*
X143717000Y-93664017D01*
X143949026Y-93785158D01*
X143964791Y-93782509D01*
X144492036Y-93528532D01*
X144881954Y-93092120D01*
X145075184Y-92539713D01*
X145075184Y-95815887D01*
X144881954Y-95263480D01*
X144492036Y-94827068D01*
X143964791Y-94573091D01*
X143949026Y-94570442D01*
X143717000Y-94691583D01*
X143717000Y-96050800D01*
X144930924Y-96050800D01*
X145075184Y-95815887D01*
X145075184Y-96539713D01*
X144930924Y-96304800D01*
X143717000Y-96304800D01*
X143717000Y-97664017D01*
X143949026Y-97785158D01*
X143964791Y-97782509D01*
X144492036Y-97528532D01*
X144881954Y-97092120D01*
X145075184Y-96539713D01*
X145075184Y-104768870D01*
X145033241Y-104796423D01*
X144953469Y-104914601D01*
X144925433Y-105054400D01*
X144925433Y-106781600D01*
X144951741Y-106917189D01*
X145030023Y-107036359D01*
X145148201Y-107116131D01*
X145288000Y-107144167D01*
X147320000Y-107144167D01*
X147455589Y-107117859D01*
X147574759Y-107039577D01*
X147654531Y-106921399D01*
X147682567Y-106781600D01*
X147682567Y-108357935D01*
X147609665Y-107991432D01*
X147345376Y-107595895D01*
X146949839Y-107331606D01*
X146483271Y-107238800D01*
X146124729Y-107238800D01*
X145658161Y-107331606D01*
X145262624Y-107595895D01*
X144998335Y-107991432D01*
X144905529Y-108458000D01*
X144998335Y-108924568D01*
X145262624Y-109320105D01*
X145658161Y-109584394D01*
X146124729Y-109677200D01*
X146483271Y-109677200D01*
X146949839Y-109584394D01*
X147345376Y-109320105D01*
X147609665Y-108924568D01*
X147702471Y-108458000D01*
X147702471Y-110998000D01*
X147609665Y-110531432D01*
X147345376Y-110135895D01*
X146949839Y-109871606D01*
X146483271Y-109778800D01*
X146124729Y-109778800D01*
X145658161Y-109871606D01*
X145262624Y-110135895D01*
X144998335Y-110531432D01*
X144905529Y-110998000D01*
X144998335Y-111464568D01*
X145262624Y-111860105D01*
X145658161Y-112124394D01*
X146124729Y-112217200D01*
X146483271Y-112217200D01*
X146949839Y-112124394D01*
X147345376Y-111860105D01*
X147609665Y-111464568D01*
X147702471Y-110998000D01*
X147702471Y-113538000D01*
X147609665Y-113071432D01*
X147345376Y-112675895D01*
X146949839Y-112411606D01*
X146483271Y-112318800D01*
X146124729Y-112318800D01*
X145658161Y-112411606D01*
X145262624Y-112675895D01*
X144998335Y-113071432D01*
X144905529Y-113538000D01*
X144998335Y-114004568D01*
X145262624Y-114400105D01*
X145658161Y-114664394D01*
X145708712Y-114674449D01*
X145389680Y-114786046D01*
X144953268Y-115175964D01*
X144699291Y-115703209D01*
X144696642Y-115718974D01*
X144817783Y-115951000D01*
X146177000Y-115951000D01*
X146177000Y-115931000D01*
X146431000Y-115931000D01*
X146431000Y-115951000D01*
X147790217Y-115951000D01*
X147911358Y-115718974D01*
X147911358Y-116437026D01*
X147790217Y-116205000D01*
X146431000Y-116205000D01*
X146431000Y-117418924D01*
X146665913Y-117563184D01*
X147218320Y-117369954D01*
X147654732Y-116980036D01*
X147908709Y-116452791D01*
X147911358Y-116437026D01*
X147911358Y-117715437D01*
X147599546Y-118027249D01*
X147431140Y-117858548D01*
X147135155Y-117735645D01*
X146814667Y-117735365D01*
X146518468Y-117857752D01*
X146291651Y-118084173D01*
X146234129Y-118222700D01*
X146177000Y-118260872D01*
X146177000Y-117418924D01*
X146177000Y-116205000D01*
X144817783Y-116205000D01*
X144696642Y-116437026D01*
X144699291Y-116452791D01*
X144953268Y-116980036D01*
X145389680Y-117369954D01*
X145942087Y-117563184D01*
X146177000Y-117418924D01*
X146177000Y-118260872D01*
X146105080Y-118308929D01*
X145633336Y-118780673D01*
X145501191Y-118978441D01*
X145454788Y-119211725D01*
X145454788Y-120156388D01*
X145501191Y-120389672D01*
X145633336Y-120587440D01*
X145846770Y-120800874D01*
X145846770Y-121158000D01*
X145846770Y-125322737D01*
X145644327Y-125525181D01*
X145639518Y-125532377D01*
X145222697Y-125949199D01*
X145108147Y-126120633D01*
X144971192Y-126257350D01*
X144848289Y-126553335D01*
X144848009Y-126873823D01*
X144970396Y-127170022D01*
X145196817Y-127396839D01*
X145492802Y-127519742D01*
X145813290Y-127520022D01*
X146056541Y-127419512D01*
X146273577Y-127636928D01*
X146569562Y-127759831D01*
X146890050Y-127760111D01*
X146927519Y-127744629D01*
X147009603Y-127943286D01*
X147234478Y-128168554D01*
X147528442Y-128290619D01*
X147846742Y-128290897D01*
X148140918Y-128169345D01*
X148366186Y-127944470D01*
X148488251Y-127650506D01*
X148488342Y-127546011D01*
X148748452Y-127546239D01*
X149042628Y-127424687D01*
X149054260Y-127413074D01*
X149054260Y-127413541D01*
X149176647Y-127709740D01*
X149403068Y-127936557D01*
X149699053Y-128059460D01*
X150019541Y-128059740D01*
X150315740Y-127937353D01*
X150542557Y-127710932D01*
X150665460Y-127414947D01*
X150665740Y-127094459D01*
X150543353Y-126798260D01*
X150316932Y-126571443D01*
X150215600Y-126529366D01*
X150215600Y-126492000D01*
X150169197Y-126258716D01*
X150037052Y-126060948D01*
X149961600Y-125985496D01*
X149961600Y-119701364D01*
X150193011Y-119469952D01*
X150296098Y-119470043D01*
X150592297Y-119347656D01*
X150819114Y-119121235D01*
X150942017Y-118825250D01*
X150942297Y-118504762D01*
X150819910Y-118208563D01*
X150618912Y-118007214D01*
X150780996Y-117845414D01*
X150903061Y-117551450D01*
X150903339Y-117233150D01*
X150812761Y-117013937D01*
X150820628Y-117010687D01*
X151045896Y-116785812D01*
X151167961Y-116491848D01*
X151168239Y-116173548D01*
X151168239Y-139071096D01*
X149688296Y-139071096D01*
X147045200Y-139071096D01*
X144373600Y-136399496D01*
X144373600Y-136338094D01*
X144626105Y-136169376D01*
X144890394Y-135773839D01*
X144983200Y-135307271D01*
X144983200Y-134948729D01*
X144890394Y-134482161D01*
X144626105Y-134086624D01*
X144230568Y-133822335D01*
X143764000Y-133729529D01*
X143463000Y-133789401D01*
X143463000Y-97664017D01*
X143463000Y-96304800D01*
X143443000Y-96304800D01*
X143443000Y-96050800D01*
X143463000Y-96050800D01*
X143463000Y-94691583D01*
X143463000Y-93664017D01*
X143463000Y-92304800D01*
X143443000Y-92304800D01*
X143443000Y-92050800D01*
X143463000Y-92050800D01*
X143463000Y-90691583D01*
X143230974Y-90570442D01*
X143215209Y-90573091D01*
X142687964Y-90827068D01*
X142298046Y-91263480D01*
X142186449Y-91582512D01*
X142176394Y-91531961D01*
X141912105Y-91136424D01*
X141516568Y-90872135D01*
X141050000Y-90779329D01*
X140583432Y-90872135D01*
X140187895Y-91136424D01*
X139923606Y-91531961D01*
X139830800Y-91998529D01*
X139830800Y-92357071D01*
X139923606Y-92823639D01*
X140187895Y-93219176D01*
X140583432Y-93483465D01*
X141050000Y-93576271D01*
X141516568Y-93483465D01*
X141912105Y-93219176D01*
X142176394Y-92823639D01*
X142186449Y-92773087D01*
X142298046Y-93092120D01*
X142687964Y-93528532D01*
X143215209Y-93782509D01*
X143230974Y-93785158D01*
X143463000Y-93664017D01*
X143463000Y-94691583D01*
X143230974Y-94570442D01*
X143215209Y-94573091D01*
X142687964Y-94827068D01*
X142298046Y-95263480D01*
X142186449Y-95582512D01*
X142176394Y-95531961D01*
X141912105Y-95136424D01*
X141516568Y-94872135D01*
X141050000Y-94779329D01*
X140583432Y-94872135D01*
X140187895Y-95136424D01*
X139923606Y-95531961D01*
X139830800Y-95998529D01*
X139830800Y-96357071D01*
X139923606Y-96823639D01*
X140187895Y-97219176D01*
X140583432Y-97483465D01*
X141050000Y-97576271D01*
X141516568Y-97483465D01*
X141912105Y-97219176D01*
X142176394Y-96823639D01*
X142186449Y-96773087D01*
X142298046Y-97092120D01*
X142687964Y-97528532D01*
X143215209Y-97782509D01*
X143230974Y-97785158D01*
X143463000Y-97664017D01*
X143463000Y-133789401D01*
X143297432Y-133822335D01*
X142901895Y-134086624D01*
X142800239Y-134238763D01*
X142800239Y-98841548D01*
X142678687Y-98547372D01*
X142453812Y-98322104D01*
X142159848Y-98200039D01*
X141841548Y-98199761D01*
X141547372Y-98321313D01*
X141322104Y-98546188D01*
X141200039Y-98840152D01*
X141199761Y-99158452D01*
X141321313Y-99452628D01*
X141390400Y-99521835D01*
X141390400Y-99890400D01*
X140029761Y-99890400D01*
X139956932Y-99817443D01*
X139729200Y-99722880D01*
X139729200Y-96357071D01*
X139729200Y-95998529D01*
X139729200Y-92357071D01*
X139729200Y-91998529D01*
X139636394Y-91531961D01*
X139372105Y-91136424D01*
X138976568Y-90872135D01*
X138510000Y-90779329D01*
X138043432Y-90872135D01*
X137647895Y-91136424D01*
X137383606Y-91531961D01*
X137290800Y-91998529D01*
X137290800Y-92357071D01*
X137383606Y-92823639D01*
X137647895Y-93219176D01*
X138043432Y-93483465D01*
X138510000Y-93576271D01*
X138976568Y-93483465D01*
X139372105Y-93219176D01*
X139636394Y-92823639D01*
X139729200Y-92357071D01*
X139729200Y-95998529D01*
X139636394Y-95531961D01*
X139372105Y-95136424D01*
X138976568Y-94872135D01*
X138510000Y-94779329D01*
X138043432Y-94872135D01*
X137647895Y-95136424D01*
X137383606Y-95531961D01*
X137290800Y-95998529D01*
X137290800Y-96357071D01*
X137383606Y-96823639D01*
X137647895Y-97219176D01*
X138043432Y-97483465D01*
X138510000Y-97576271D01*
X138976568Y-97483465D01*
X139372105Y-97219176D01*
X139636394Y-96823639D01*
X139729200Y-96357071D01*
X139729200Y-99722880D01*
X139660947Y-99694540D01*
X139340459Y-99694260D01*
X139044260Y-99816647D01*
X138817443Y-100043068D01*
X138694540Y-100339053D01*
X138694260Y-100659541D01*
X138816647Y-100955740D01*
X139043068Y-101182557D01*
X139339053Y-101305460D01*
X139659541Y-101305740D01*
X139955740Y-101183353D01*
X140029621Y-101109600D01*
X142000000Y-101109600D01*
X142233284Y-101063197D01*
X142431052Y-100931052D01*
X142563197Y-100733284D01*
X142609600Y-100500000D01*
X142609600Y-99521988D01*
X142677896Y-99453812D01*
X142799961Y-99159848D01*
X142800239Y-98841548D01*
X142800239Y-134238763D01*
X142637606Y-134482161D01*
X142544800Y-134948729D01*
X142544800Y-135307271D01*
X142637606Y-135773839D01*
X142754525Y-135948821D01*
X142388412Y-135582708D01*
X142443200Y-135307271D01*
X142443200Y-134948729D01*
X142350394Y-134482161D01*
X142086105Y-134086624D01*
X141690568Y-133822335D01*
X141224000Y-133729529D01*
X140757432Y-133822335D01*
X140361895Y-134086624D01*
X140182600Y-134354958D01*
X140182600Y-133985691D01*
X140085927Y-133752302D01*
X139907299Y-133573673D01*
X139673910Y-133477000D01*
X139421291Y-133477000D01*
X138969750Y-133477000D01*
X138811000Y-133635750D01*
X138811000Y-135001000D01*
X138831000Y-135001000D01*
X138831000Y-135255000D01*
X138811000Y-135255000D01*
X138811000Y-136620250D01*
X138969750Y-136779000D01*
X139421291Y-136779000D01*
X139673910Y-136779000D01*
X139907299Y-136682327D01*
X140085927Y-136503698D01*
X140182600Y-136270309D01*
X140182600Y-135901041D01*
X140361895Y-136169376D01*
X140757432Y-136433665D01*
X141224000Y-136526471D01*
X141544262Y-136462766D01*
X146024254Y-140942758D01*
X146222022Y-141074903D01*
X146455306Y-141121306D01*
X157204238Y-141121306D01*
X157277068Y-141194263D01*
X157573053Y-141317166D01*
X157893541Y-141317446D01*
X158189740Y-141195059D01*
X158416557Y-140968638D01*
X158539460Y-140672653D01*
X158539740Y-140352165D01*
X158539740Y-146894651D01*
X157932027Y-146894121D01*
X157341689Y-147138045D01*
X156889632Y-147589313D01*
X156644679Y-148179225D01*
X156644121Y-148817973D01*
X156888045Y-149408311D01*
X157339313Y-149860368D01*
X157929225Y-150105321D01*
X158567973Y-150105879D01*
X159158311Y-149861955D01*
X159610368Y-149410687D01*
X159855321Y-148820775D01*
X159855879Y-148182027D01*
X159855879Y-151873000D01*
X152355879Y-151873000D01*
X152355879Y-148182027D01*
X152111955Y-147591689D01*
X151660687Y-147139632D01*
X151070775Y-146894679D01*
X150432027Y-146894121D01*
X149841689Y-147138045D01*
X149389632Y-147589313D01*
X149144679Y-148179225D01*
X149144121Y-148817973D01*
X149388045Y-149408311D01*
X149839313Y-149860368D01*
X150429225Y-150105321D01*
X151067973Y-150105879D01*
X151658311Y-149861955D01*
X152110368Y-149410687D01*
X152355321Y-148820775D01*
X152355879Y-148182027D01*
X152355879Y-151873000D01*
X148947495Y-151873000D01*
X145161000Y-155649295D01*
X145161000Y-159649482D01*
X144990600Y-159820279D01*
X144990600Y-158000000D01*
X144990600Y-157000000D01*
X144915195Y-156620914D01*
X144700460Y-156299540D01*
X144379086Y-156084805D01*
X144000000Y-156009400D01*
X143620914Y-156084805D01*
X143299540Y-156299540D01*
X143084805Y-156620914D01*
X143009400Y-157000000D01*
X143009400Y-157589680D01*
X142649574Y-157949505D01*
X142708630Y-157745430D01*
X142708630Y-156845000D01*
X142708630Y-156591000D01*
X142708630Y-155690570D01*
X142547018Y-155132094D01*
X142183989Y-154677976D01*
X141674810Y-154397351D01*
X141580832Y-154376460D01*
X141351000Y-154497786D01*
X141351000Y-156591000D01*
X142708630Y-156591000D01*
X142708630Y-156845000D01*
X141351000Y-156845000D01*
X141351000Y-158938214D01*
X141553806Y-159045273D01*
X141097000Y-159502079D01*
X141097000Y-158938214D01*
X141097000Y-156845000D01*
X141077000Y-156845000D01*
X141077000Y-156591000D01*
X141097000Y-156591000D01*
X141097000Y-154497786D01*
X140867168Y-154376460D01*
X140773190Y-154397351D01*
X140264011Y-154677976D01*
X139900982Y-155132094D01*
X139818074Y-155418594D01*
X139797487Y-155315096D01*
X139536226Y-154924092D01*
X139145222Y-154662831D01*
X138684000Y-154571088D01*
X138557000Y-154596349D01*
X138557000Y-136620250D01*
X138557000Y-135255000D01*
X138557000Y-135001000D01*
X138557000Y-133635750D01*
X138398250Y-133477000D01*
X137946709Y-133477000D01*
X137694090Y-133477000D01*
X137460701Y-133573673D01*
X137282073Y-133752302D01*
X137252057Y-133824766D01*
X137252057Y-103313290D01*
X137252057Y-101314310D01*
X137225749Y-101178721D01*
X137196167Y-101133687D01*
X137196167Y-97193800D01*
X137196167Y-95161800D01*
X137196167Y-93193800D01*
X137196167Y-91161800D01*
X137169859Y-91026211D01*
X137091577Y-90907041D01*
X136973399Y-90827269D01*
X136833600Y-90799233D01*
X135106400Y-90799233D01*
X134970811Y-90825541D01*
X134851641Y-90903823D01*
X134771869Y-91022001D01*
X134743833Y-91161800D01*
X134743833Y-93193800D01*
X134770141Y-93329389D01*
X134848423Y-93448559D01*
X134966601Y-93528331D01*
X135106400Y-93556367D01*
X136833600Y-93556367D01*
X136969189Y-93530059D01*
X137088359Y-93451777D01*
X137168131Y-93333599D01*
X137196167Y-93193800D01*
X137196167Y-95161800D01*
X137169859Y-95026211D01*
X137091577Y-94907041D01*
X136973399Y-94827269D01*
X136833600Y-94799233D01*
X135106400Y-94799233D01*
X134970811Y-94825541D01*
X134851641Y-94903823D01*
X134771869Y-95022001D01*
X134743833Y-95161800D01*
X134743833Y-97193800D01*
X134770141Y-97329389D01*
X134848423Y-97448559D01*
X134966601Y-97528331D01*
X135106400Y-97556367D01*
X136833600Y-97556367D01*
X136969189Y-97530059D01*
X137088359Y-97451777D01*
X137168131Y-97333599D01*
X137196167Y-97193800D01*
X137196167Y-101133687D01*
X137147467Y-101059551D01*
X137029289Y-100979779D01*
X136889490Y-100951743D01*
X134890510Y-100951743D01*
X134754921Y-100978051D01*
X134635751Y-101056333D01*
X134555979Y-101174511D01*
X134527943Y-101314310D01*
X134527943Y-101350770D01*
X134502163Y-101341243D01*
X134322557Y-101520848D01*
X134322557Y-101161637D01*
X134223958Y-100894835D01*
X133614418Y-100668399D01*
X132964623Y-100692459D01*
X132476042Y-100894835D01*
X132377443Y-101161637D01*
X133350000Y-102134195D01*
X134322557Y-101161637D01*
X134322557Y-101520848D01*
X133529605Y-102313800D01*
X134502163Y-103286357D01*
X134527943Y-103276829D01*
X134527943Y-103313290D01*
X134554251Y-103448879D01*
X134632533Y-103568049D01*
X134750711Y-103647821D01*
X134890510Y-103675857D01*
X136889490Y-103675857D01*
X137025079Y-103649549D01*
X137144249Y-103571267D01*
X137224021Y-103453089D01*
X137252057Y-103313290D01*
X137252057Y-133824766D01*
X137185400Y-133985691D01*
X137185400Y-134842250D01*
X137344150Y-135001000D01*
X138557000Y-135001000D01*
X138557000Y-135255000D01*
X137344150Y-135255000D01*
X137185400Y-135413750D01*
X137185400Y-136270309D01*
X137282073Y-136503698D01*
X137460701Y-136682327D01*
X137694090Y-136779000D01*
X137946709Y-136779000D01*
X138398250Y-136779000D01*
X138557000Y-136620250D01*
X138557000Y-154596349D01*
X138222778Y-154662831D01*
X137831774Y-154924092D01*
X137570513Y-155315096D01*
X137478770Y-155776318D01*
X137478770Y-157659682D01*
X137570513Y-158120904D01*
X137831774Y-158511908D01*
X138222778Y-158773169D01*
X138684000Y-158864912D01*
X139145222Y-158773169D01*
X139536226Y-158511908D01*
X139797487Y-158120904D01*
X139818074Y-158017405D01*
X139900982Y-158303906D01*
X140264011Y-158758024D01*
X140773190Y-159038649D01*
X140867168Y-159059540D01*
X141097000Y-158938214D01*
X141097000Y-159502079D01*
X140589680Y-160009400D01*
X138863510Y-160009400D01*
X138484423Y-160084805D01*
X138163050Y-160299540D01*
X137349230Y-161113360D01*
X137349230Y-157659682D01*
X137349230Y-155776318D01*
X137257487Y-155315096D01*
X137134600Y-155131182D01*
X137134600Y-144018000D01*
X137134600Y-136398000D01*
X137059195Y-136018914D01*
X136844460Y-135697540D01*
X136523086Y-135482805D01*
X136144000Y-135407400D01*
X135764914Y-135482805D01*
X135443540Y-135697540D01*
X135228805Y-136018914D01*
X135153400Y-136398000D01*
X135153400Y-144018000D01*
X135228805Y-144397086D01*
X135443540Y-144718460D01*
X135764914Y-144933195D01*
X136144000Y-145008600D01*
X136523086Y-144933195D01*
X136844460Y-144718460D01*
X137059195Y-144397086D01*
X137134600Y-144018000D01*
X137134600Y-155131182D01*
X136996226Y-154924092D01*
X136605222Y-154662831D01*
X136144000Y-154571088D01*
X135682778Y-154662831D01*
X135291774Y-154924092D01*
X135030513Y-155315096D01*
X134938770Y-155776318D01*
X134938770Y-157659682D01*
X135030513Y-158120904D01*
X135291774Y-158511908D01*
X135682778Y-158773169D01*
X136144000Y-158864912D01*
X136605222Y-158773169D01*
X136996226Y-158511908D01*
X137257487Y-158120904D01*
X137349230Y-157659682D01*
X137349230Y-161113360D01*
X134322557Y-164140033D01*
X134322557Y-103465963D01*
X133350000Y-102493405D01*
X133170395Y-102673010D01*
X133170395Y-102313800D01*
X132197837Y-101341243D01*
X131931035Y-101439842D01*
X131704599Y-102049382D01*
X131728659Y-102699177D01*
X131931035Y-103187758D01*
X132197837Y-103286357D01*
X133170395Y-102313800D01*
X133170395Y-102673010D01*
X132377443Y-103465963D01*
X132476042Y-103732765D01*
X133085582Y-103959201D01*
X133735377Y-103935141D01*
X134223958Y-103732765D01*
X134322557Y-103465963D01*
X134322557Y-164140033D01*
X132562815Y-165899775D01*
X132562815Y-164373520D01*
X132373736Y-163915912D01*
X132023930Y-163565495D01*
X131566652Y-163375617D01*
X131071520Y-163375185D01*
X130613912Y-163564264D01*
X130302000Y-163875632D01*
X130302000Y-163604691D01*
X130205327Y-163371302D01*
X130026699Y-163192673D01*
X129793310Y-163096000D01*
X129540691Y-163096000D01*
X129407401Y-163096000D01*
X129407401Y-158760418D01*
X129383341Y-158110623D01*
X129245835Y-157778652D01*
X129245835Y-94281537D01*
X129039892Y-93783117D01*
X128658888Y-93401448D01*
X128160829Y-93194636D01*
X127621537Y-93194165D01*
X127123117Y-93400108D01*
X126741448Y-93781112D01*
X126534636Y-94279171D01*
X126534165Y-94818463D01*
X126740108Y-95316883D01*
X127121112Y-95698552D01*
X127619171Y-95905364D01*
X128158463Y-95905835D01*
X128656883Y-95699892D01*
X129038552Y-95318888D01*
X129245364Y-94820829D01*
X129245835Y-94281537D01*
X129245835Y-157778652D01*
X129180965Y-157622042D01*
X128914163Y-157523443D01*
X128734557Y-157703048D01*
X128734557Y-157343837D01*
X128635958Y-157077035D01*
X128026418Y-156850599D01*
X127376623Y-156874659D01*
X126888042Y-157077035D01*
X126789443Y-157343837D01*
X127762000Y-158316395D01*
X128734557Y-157343837D01*
X128734557Y-157703048D01*
X127941605Y-158496000D01*
X128914163Y-159468557D01*
X129180965Y-159369958D01*
X129407401Y-158760418D01*
X129407401Y-163096000D01*
X129063750Y-163096000D01*
X128905000Y-163254750D01*
X128905000Y-164493000D01*
X128925000Y-164493000D01*
X128925000Y-164747000D01*
X128905000Y-164747000D01*
X128905000Y-165985250D01*
X129063750Y-166144000D01*
X129540691Y-166144000D01*
X129793310Y-166144000D01*
X130026699Y-166047327D01*
X130205327Y-165868698D01*
X130302000Y-165635309D01*
X130302000Y-165363893D01*
X130612070Y-165674505D01*
X131069348Y-165864383D01*
X131564480Y-165864815D01*
X132022088Y-165675736D01*
X132372505Y-165325930D01*
X132562383Y-164868652D01*
X132562815Y-164373520D01*
X132562815Y-165899775D01*
X129728540Y-168734050D01*
X129513805Y-169055424D01*
X129438400Y-169434510D01*
X129438400Y-170341943D01*
X129429510Y-170341943D01*
X129293921Y-170368251D01*
X129174751Y-170446533D01*
X129094979Y-170564711D01*
X129066943Y-170704510D01*
X129066943Y-172703490D01*
X129093251Y-172839079D01*
X129171533Y-172958249D01*
X129289711Y-173038021D01*
X129429510Y-173066057D01*
X131428490Y-173066057D01*
X131564079Y-173039749D01*
X131683249Y-172961467D01*
X131763021Y-172843289D01*
X131791057Y-172703490D01*
X131791057Y-170704510D01*
X131764749Y-170568921D01*
X131686467Y-170449751D01*
X131568289Y-170369979D01*
X131428490Y-170341943D01*
X131419600Y-170341943D01*
X131419600Y-169844830D01*
X139273830Y-161990600D01*
X141000000Y-161990600D01*
X141379086Y-161915195D01*
X141700460Y-161700460D01*
X144700460Y-158700460D01*
X144915195Y-158379086D01*
X144990600Y-158000000D01*
X144990600Y-159820279D01*
X140873000Y-163947482D01*
X140873000Y-176051337D01*
X142367000Y-177597337D01*
X142367000Y-179157563D01*
X140028024Y-179157563D01*
X140028024Y-170778996D01*
X139708132Y-170004798D01*
X139116318Y-169411949D01*
X138342679Y-169090707D01*
X137504996Y-169089976D01*
X136730798Y-169409868D01*
X136137949Y-170001682D01*
X135816707Y-170775321D01*
X135815976Y-171613004D01*
X136135868Y-172387202D01*
X136727682Y-172980051D01*
X137501321Y-173301293D01*
X138339004Y-173302024D01*
X139113202Y-172982132D01*
X139706051Y-172390318D01*
X140027293Y-171616679D01*
X140028024Y-170778996D01*
X140028024Y-179157563D01*
X139645130Y-179157563D01*
X139509541Y-179183871D01*
X139390371Y-179262153D01*
X139310599Y-179380331D01*
X139282563Y-179520130D01*
X139282563Y-182519870D01*
X139308871Y-182655459D01*
X139387153Y-182774629D01*
X139505331Y-182854401D01*
X139645130Y-182882437D01*
X142367000Y-182882437D01*
X142367000Y-188594400D01*
X137920792Y-188594400D01*
X137920792Y-180652543D01*
X137638908Y-179970334D01*
X137117412Y-179447926D01*
X136435695Y-179164853D01*
X135697543Y-179164208D01*
X135015334Y-179446092D01*
X134492926Y-179967588D01*
X134209853Y-180649305D01*
X134209208Y-181387457D01*
X134491092Y-182069666D01*
X135012588Y-182592074D01*
X135694305Y-182875147D01*
X136432457Y-182875792D01*
X137114666Y-182593908D01*
X137637074Y-182072412D01*
X137920147Y-181390695D01*
X137920792Y-180652543D01*
X137920792Y-188594400D01*
X132847437Y-188594400D01*
X132847437Y-182519870D01*
X132847437Y-179520130D01*
X132821129Y-179384541D01*
X132742847Y-179265371D01*
X132624669Y-179185599D01*
X132484870Y-179157563D01*
X129485130Y-179157563D01*
X129349541Y-179183871D01*
X129230371Y-179262153D01*
X129150599Y-179380331D01*
X129122563Y-179520130D01*
X129122563Y-182519870D01*
X129148871Y-182655459D01*
X129227153Y-182774629D01*
X129345331Y-182854401D01*
X129485130Y-182882437D01*
X132484870Y-182882437D01*
X132620459Y-182856129D01*
X132739629Y-182777847D01*
X132819401Y-182659669D01*
X132847437Y-182519870D01*
X132847437Y-188594400D01*
X128734557Y-188594400D01*
X128734557Y-159648163D01*
X127762000Y-158675605D01*
X127582395Y-158855210D01*
X127582395Y-158496000D01*
X126609837Y-157523443D01*
X126584057Y-157532970D01*
X126584057Y-157496510D01*
X126557749Y-157360921D01*
X126479467Y-157241751D01*
X126361289Y-157161979D01*
X126221490Y-157133943D01*
X125586024Y-157133943D01*
X125586024Y-133440996D01*
X125266132Y-132666798D01*
X124674318Y-132073949D01*
X123900679Y-131752707D01*
X123062996Y-131751976D01*
X122288798Y-132071868D01*
X121695949Y-132663682D01*
X121374707Y-133437321D01*
X121373976Y-134275004D01*
X121693868Y-135049202D01*
X122285682Y-135642051D01*
X123059321Y-135963293D01*
X123897004Y-135964024D01*
X124671202Y-135644132D01*
X125264051Y-135052318D01*
X125585293Y-134278679D01*
X125586024Y-133440996D01*
X125586024Y-157133943D01*
X124222510Y-157133943D01*
X124086921Y-157160251D01*
X123967751Y-157238533D01*
X123887979Y-157356711D01*
X123859943Y-157496510D01*
X123859943Y-159495490D01*
X123886251Y-159631079D01*
X123964533Y-159750249D01*
X124082711Y-159830021D01*
X124222510Y-159858057D01*
X126221490Y-159858057D01*
X126357079Y-159831749D01*
X126476249Y-159753467D01*
X126556021Y-159635289D01*
X126584057Y-159495490D01*
X126584057Y-159459029D01*
X126609837Y-159468557D01*
X127582395Y-158496000D01*
X127582395Y-158855210D01*
X126789443Y-159648163D01*
X126888042Y-159914965D01*
X127497582Y-160141401D01*
X128147377Y-160117341D01*
X128635958Y-159914965D01*
X128734557Y-159648163D01*
X128734557Y-188594400D01*
X128651000Y-188594400D01*
X128651000Y-165985250D01*
X128651000Y-164747000D01*
X128631000Y-164747000D01*
X128631000Y-164493000D01*
X128651000Y-164493000D01*
X128651000Y-163254750D01*
X128492250Y-163096000D01*
X128015309Y-163096000D01*
X127762690Y-163096000D01*
X127529301Y-163192673D01*
X127350673Y-163371302D01*
X127254000Y-163604691D01*
X127254000Y-163876106D01*
X126943930Y-163565495D01*
X126486652Y-163375617D01*
X125991520Y-163375185D01*
X125533912Y-163564264D01*
X125183495Y-163914070D01*
X124993617Y-164371348D01*
X124993185Y-164866480D01*
X125182264Y-165324088D01*
X125532070Y-165674505D01*
X125989348Y-165864383D01*
X126484480Y-165864815D01*
X126942088Y-165675736D01*
X127254000Y-165364367D01*
X127254000Y-165635309D01*
X127350673Y-165868698D01*
X127529301Y-166047327D01*
X127762690Y-166144000D01*
X128015309Y-166144000D01*
X128492250Y-166144000D01*
X128651000Y-165985250D01*
X128651000Y-188594400D01*
X128264401Y-188594400D01*
X128264401Y-171968418D01*
X128240341Y-171318623D01*
X128037965Y-170830042D01*
X127771163Y-170731443D01*
X127591557Y-170911048D01*
X127591557Y-170551837D01*
X127492958Y-170285035D01*
X126883418Y-170058599D01*
X126233623Y-170082659D01*
X125745042Y-170285035D01*
X125646443Y-170551837D01*
X126619000Y-171524395D01*
X127591557Y-170551837D01*
X127591557Y-170911048D01*
X126798605Y-171704000D01*
X127771163Y-172676557D01*
X128037965Y-172577958D01*
X128264401Y-171968418D01*
X128264401Y-188594400D01*
X128047595Y-188594400D01*
X128047595Y-181403783D01*
X128031367Y-180554634D01*
X127737632Y-179845495D01*
X127591557Y-179772279D01*
X127591557Y-172856163D01*
X126619000Y-171883605D01*
X126439395Y-172063210D01*
X126439395Y-171704000D01*
X125466837Y-170731443D01*
X125200035Y-170830042D01*
X124973599Y-171439582D01*
X124997659Y-172089377D01*
X125200035Y-172577958D01*
X125466837Y-172676557D01*
X126439395Y-171704000D01*
X126439395Y-172063210D01*
X125646443Y-172856163D01*
X125745042Y-173122965D01*
X126354582Y-173349401D01*
X127004377Y-173325341D01*
X127492958Y-173122965D01*
X127591557Y-172856163D01*
X127591557Y-179772279D01*
X127418877Y-179685728D01*
X127239272Y-179865333D01*
X127239272Y-179506123D01*
X127079505Y-179187368D01*
X126288783Y-178877405D01*
X125439634Y-178893633D01*
X124730495Y-179187368D01*
X124570728Y-179506123D01*
X125905000Y-180840395D01*
X127239272Y-179506123D01*
X127239272Y-179865333D01*
X126084605Y-181020000D01*
X127418877Y-182354272D01*
X127737632Y-182194505D01*
X128047595Y-181403783D01*
X128047595Y-188594400D01*
X127239272Y-188594400D01*
X127239272Y-182533877D01*
X125905000Y-181199605D01*
X125725395Y-181379210D01*
X125725395Y-181020000D01*
X124391123Y-179685728D01*
X124072368Y-179845495D01*
X123762405Y-180636217D01*
X123778633Y-181485366D01*
X124072368Y-182194505D01*
X124391123Y-182354272D01*
X125725395Y-181020000D01*
X125725395Y-181379210D01*
X124570728Y-182533877D01*
X124730495Y-182852632D01*
X125521217Y-183162595D01*
X126370366Y-183146367D01*
X127079505Y-182852632D01*
X127239272Y-182533877D01*
X127239272Y-188594400D01*
X123418600Y-188594400D01*
X123418600Y-152146000D01*
X123343195Y-151766914D01*
X123228239Y-151594869D01*
X123228239Y-143541296D01*
X123106687Y-143247120D01*
X122881812Y-143021852D01*
X122587848Y-142899787D01*
X122490324Y-142899701D01*
X122224810Y-142634187D01*
X122224810Y-138389408D01*
X122178407Y-138156124D01*
X122046262Y-137958356D01*
X122046262Y-137958355D01*
X122026638Y-137938731D01*
X122094557Y-137870932D01*
X122217460Y-137574947D01*
X122217740Y-137254459D01*
X122095353Y-136958260D01*
X121868932Y-136731443D01*
X121572947Y-136608540D01*
X121252459Y-136608260D01*
X120956260Y-136730647D01*
X120729443Y-136957068D01*
X120606540Y-137253053D01*
X120606419Y-137391082D01*
X120556947Y-137370540D01*
X120439740Y-137370437D01*
X120439740Y-123030459D01*
X120317353Y-122734260D01*
X120090932Y-122507443D01*
X119794947Y-122384540D01*
X119474459Y-122384260D01*
X119178260Y-122506647D01*
X119104378Y-122580400D01*
X116076504Y-122580400D01*
X115867649Y-122371545D01*
X115867740Y-122268459D01*
X115745353Y-121972260D01*
X115518932Y-121745443D01*
X115222947Y-121622540D01*
X114902459Y-121622260D01*
X114606260Y-121744647D01*
X114532378Y-121818400D01*
X110706730Y-121818400D01*
X110665353Y-121718260D01*
X110438932Y-121491443D01*
X110142947Y-121368540D01*
X109822459Y-121368260D01*
X109526260Y-121490647D01*
X109299443Y-121717068D01*
X109176540Y-122013053D01*
X109176260Y-122333541D01*
X109298647Y-122629740D01*
X109525068Y-122856557D01*
X109821053Y-122979460D01*
X109985365Y-122979603D01*
X110002716Y-122991197D01*
X110236000Y-123037600D01*
X114532238Y-123037600D01*
X114605068Y-123110557D01*
X114901053Y-123233460D01*
X115005447Y-123233551D01*
X115392948Y-123621052D01*
X115590716Y-123753197D01*
X115824000Y-123799600D01*
X119104238Y-123799600D01*
X119177068Y-123872557D01*
X119473053Y-123995460D01*
X119793541Y-123995740D01*
X120089740Y-123873353D01*
X120316557Y-123646932D01*
X120439460Y-123350947D01*
X120439740Y-123030459D01*
X120439740Y-137370437D01*
X120236459Y-137370260D01*
X119940260Y-137492647D01*
X119713443Y-137719068D01*
X119590540Y-138015053D01*
X119590260Y-138335541D01*
X119712647Y-138631740D01*
X119939068Y-138858557D01*
X120235053Y-138981460D01*
X120294400Y-138981511D01*
X120294400Y-139498296D01*
X119677649Y-138881545D01*
X119677740Y-138778459D01*
X119555353Y-138482260D01*
X119328932Y-138255443D01*
X119032947Y-138132540D01*
X118712459Y-138132260D01*
X118416260Y-138254647D01*
X118189443Y-138481068D01*
X118066540Y-138777053D01*
X118066260Y-139097541D01*
X118188647Y-139393740D01*
X118415068Y-139620557D01*
X118711053Y-139743460D01*
X118815447Y-139743551D01*
X119532400Y-140460504D01*
X119532400Y-143886696D01*
X119459443Y-143959526D01*
X119336540Y-144255511D01*
X119336260Y-144575999D01*
X119458647Y-144872198D01*
X119685068Y-145099015D01*
X119981053Y-145221918D01*
X120301541Y-145222198D01*
X120597740Y-145099811D01*
X120824557Y-144873390D01*
X120947460Y-144577405D01*
X120947484Y-144548877D01*
X120997053Y-144569460D01*
X121317541Y-144569740D01*
X121613740Y-144447353D01*
X121829133Y-144232335D01*
X121974188Y-144377644D01*
X122268152Y-144499709D01*
X122586452Y-144499987D01*
X122880628Y-144378435D01*
X123105896Y-144153560D01*
X123227961Y-143859596D01*
X123228239Y-143541296D01*
X123228239Y-151594869D01*
X123128460Y-151445540D01*
X122807086Y-151230805D01*
X122428000Y-151155400D01*
X118661740Y-151155400D01*
X118661740Y-142842459D01*
X118539353Y-142546260D01*
X118436600Y-142443327D01*
X118436600Y-142365604D01*
X118436600Y-139954000D01*
X118392404Y-139731814D01*
X118266546Y-139543454D01*
X117645614Y-138922522D01*
X117645740Y-138778459D01*
X117523353Y-138482260D01*
X117296932Y-138255443D01*
X117000947Y-138132540D01*
X116680459Y-138132260D01*
X116384260Y-138254647D01*
X116157443Y-138481068D01*
X116034540Y-138777053D01*
X116034260Y-139097541D01*
X116156647Y-139393740D01*
X116383068Y-139620557D01*
X116679053Y-139743460D01*
X116824495Y-139743587D01*
X117275400Y-140194492D01*
X117275400Y-142365604D01*
X117275400Y-142443289D01*
X117173443Y-142545068D01*
X117137740Y-142631050D01*
X117137740Y-141572459D01*
X117015353Y-141276260D01*
X116788932Y-141049443D01*
X116492947Y-140926540D01*
X116172459Y-140926260D01*
X115876260Y-141048647D01*
X115867740Y-141057152D01*
X115867740Y-140048459D01*
X115745353Y-139752260D01*
X115642600Y-139649327D01*
X115642600Y-138226710D01*
X115744557Y-138124932D01*
X115867460Y-137828947D01*
X115867740Y-137508459D01*
X115745353Y-137212260D01*
X115518932Y-136985443D01*
X115222947Y-136862540D01*
X114902459Y-136862260D01*
X114606260Y-136984647D01*
X114379443Y-137211068D01*
X114256540Y-137507053D01*
X114256260Y-137827541D01*
X114378647Y-138123740D01*
X114481400Y-138226672D01*
X114481400Y-139649289D01*
X114379443Y-139751068D01*
X114256540Y-140047053D01*
X114256260Y-140367541D01*
X114378647Y-140663740D01*
X114605068Y-140890557D01*
X114901053Y-141013460D01*
X115221541Y-141013740D01*
X115517740Y-140891353D01*
X115744557Y-140664932D01*
X115867460Y-140368947D01*
X115867740Y-140048459D01*
X115867740Y-141057152D01*
X115773327Y-141151400D01*
X115695604Y-141151400D01*
X112508491Y-141151400D01*
X108247614Y-136890522D01*
X108247717Y-136771806D01*
X108282647Y-136856341D01*
X108509068Y-137083158D01*
X108805053Y-137206061D01*
X109125541Y-137206341D01*
X109421740Y-137083954D01*
X109498227Y-137007600D01*
X112119238Y-137007600D01*
X112192068Y-137080557D01*
X112488053Y-137203460D01*
X112808541Y-137203740D01*
X113104740Y-137081353D01*
X113331557Y-136854932D01*
X113454460Y-136558947D01*
X113454740Y-136238459D01*
X113332353Y-135942260D01*
X113245815Y-135855571D01*
X113476460Y-135701460D01*
X113691195Y-135380086D01*
X113766600Y-135001000D01*
X113691195Y-134621914D01*
X113476460Y-134300540D01*
X113155086Y-134085805D01*
X112776000Y-134010400D01*
X104985835Y-134010400D01*
X104985835Y-94281537D01*
X104779892Y-93783117D01*
X104398888Y-93401448D01*
X103900829Y-93194636D01*
X103361537Y-93194165D01*
X102863117Y-93400108D01*
X102481448Y-93781112D01*
X102274636Y-94279171D01*
X102274165Y-94818463D01*
X102480108Y-95316883D01*
X102861112Y-95698552D01*
X103359171Y-95905364D01*
X103898463Y-95905835D01*
X104396883Y-95699892D01*
X104778552Y-95318888D01*
X104985364Y-94820829D01*
X104985835Y-94281537D01*
X104985835Y-134010400D01*
X104521000Y-134010400D01*
X104141914Y-134085805D01*
X103820540Y-134300540D01*
X103605805Y-134621914D01*
X103530400Y-135001000D01*
X103605805Y-135380086D01*
X103820540Y-135701460D01*
X104141914Y-135916195D01*
X104521000Y-135991600D01*
X108263540Y-135991600D01*
X108160540Y-136239654D01*
X108160282Y-136534794D01*
X108125353Y-136450260D01*
X107898932Y-136223443D01*
X107602947Y-136100540D01*
X107282459Y-136100260D01*
X106986260Y-136222647D01*
X106759443Y-136449068D01*
X106636540Y-136745053D01*
X106636260Y-137065541D01*
X106758647Y-137361740D01*
X106985068Y-137588557D01*
X107281053Y-137711460D01*
X107426495Y-137711587D01*
X111530217Y-141815309D01*
X111473459Y-141815260D01*
X111177260Y-141937647D01*
X110950443Y-142164068D01*
X110827540Y-142460053D01*
X110827412Y-142605494D01*
X110714454Y-142718454D01*
X110588596Y-142906814D01*
X110544400Y-143129000D01*
X110544400Y-144145000D01*
X110588596Y-144367186D01*
X110714454Y-144555546D01*
X110902814Y-144681404D01*
X111125000Y-144725600D01*
X111347186Y-144681404D01*
X111535546Y-144555546D01*
X111661404Y-144367186D01*
X111705600Y-144145000D01*
X111705600Y-143426664D01*
X111792541Y-143426740D01*
X112088740Y-143304353D01*
X112315557Y-143077932D01*
X112438460Y-142781947D01*
X112438740Y-142461459D01*
X112377232Y-142312600D01*
X115695604Y-142312600D01*
X115773289Y-142312600D01*
X115875068Y-142414557D01*
X116171053Y-142537460D01*
X116491541Y-142537740D01*
X116787740Y-142415353D01*
X117014557Y-142188932D01*
X117137460Y-141892947D01*
X117137740Y-141572459D01*
X117137740Y-142631050D01*
X117050540Y-142841053D01*
X117050260Y-143161541D01*
X117172647Y-143457740D01*
X117399068Y-143684557D01*
X117695053Y-143807460D01*
X118015541Y-143807740D01*
X118311740Y-143685353D01*
X118538557Y-143458932D01*
X118661460Y-143162947D01*
X118661740Y-142842459D01*
X118661740Y-151155400D01*
X117195600Y-151155400D01*
X117195600Y-148463000D01*
X117120195Y-148083914D01*
X117120195Y-148083913D01*
X116905460Y-147762540D01*
X113476460Y-144333540D01*
X113155086Y-144118805D01*
X112776000Y-144043400D01*
X112396914Y-144118805D01*
X112075540Y-144333540D01*
X111860805Y-144654914D01*
X111785400Y-145034000D01*
X111860805Y-145413086D01*
X112075540Y-145734460D01*
X115214400Y-148873320D01*
X115214400Y-152146000D01*
X115289805Y-152525086D01*
X115504540Y-152846460D01*
X115825914Y-153061195D01*
X116205000Y-153136600D01*
X122428000Y-153136600D01*
X122807086Y-153061195D01*
X123128460Y-152846460D01*
X123343195Y-152525086D01*
X123418600Y-152146000D01*
X123418600Y-188594400D01*
X122687437Y-188594400D01*
X122687437Y-182519870D01*
X122687437Y-179520130D01*
X122661129Y-179384541D01*
X122582847Y-179265371D01*
X122464669Y-179185599D01*
X122324870Y-179157563D01*
X121767793Y-179157563D01*
X121767793Y-171736671D01*
X121598008Y-171325758D01*
X121283896Y-171011097D01*
X120873280Y-170840594D01*
X120428671Y-170840207D01*
X120017758Y-171009992D01*
X119703097Y-171324104D01*
X119532594Y-171734720D01*
X119532207Y-172179329D01*
X119701992Y-172590242D01*
X120016104Y-172904903D01*
X120426720Y-173075406D01*
X120871329Y-173075793D01*
X121282242Y-172906008D01*
X121596903Y-172591896D01*
X121767406Y-172181280D01*
X121767793Y-171736671D01*
X121767793Y-179157563D01*
X119325130Y-179157563D01*
X119227793Y-179176449D01*
X119227793Y-171736671D01*
X119058008Y-171325758D01*
X118743896Y-171011097D01*
X118333280Y-170840594D01*
X117888671Y-170840207D01*
X117477758Y-171009992D01*
X117163097Y-171324104D01*
X116992594Y-171734720D01*
X116992207Y-172179329D01*
X117161992Y-172590242D01*
X117476104Y-172904903D01*
X117886720Y-173075406D01*
X118331329Y-173075793D01*
X118742242Y-172906008D01*
X119056903Y-172591896D01*
X119227406Y-172181280D01*
X119227793Y-171736671D01*
X119227793Y-179176449D01*
X119189541Y-179183871D01*
X119070371Y-179262153D01*
X118990599Y-179380331D01*
X118962563Y-179520130D01*
X118962563Y-182519870D01*
X118988871Y-182655459D01*
X119067153Y-182774629D01*
X119185331Y-182854401D01*
X119325130Y-182882437D01*
X122324870Y-182882437D01*
X122460459Y-182856129D01*
X122579629Y-182777847D01*
X122659401Y-182659669D01*
X122687437Y-182519870D01*
X122687437Y-188594400D01*
X117600792Y-188594400D01*
X117600792Y-180652543D01*
X117318908Y-179970334D01*
X116797412Y-179447926D01*
X116694567Y-179405221D01*
X116694567Y-172720000D01*
X116694567Y-171196000D01*
X116668259Y-171060411D01*
X116589977Y-170941241D01*
X116471799Y-170861469D01*
X116332000Y-170833433D01*
X115359740Y-170833433D01*
X115359740Y-157320459D01*
X115237353Y-157024260D01*
X115010932Y-156797443D01*
X114714947Y-156674540D01*
X114394459Y-156674260D01*
X114376200Y-156681804D01*
X114376200Y-153035000D01*
X114300795Y-152655914D01*
X114086060Y-152334540D01*
X113764686Y-152119805D01*
X113385600Y-152044400D01*
X113073740Y-152044400D01*
X113073740Y-149954459D01*
X112951353Y-149658260D01*
X112724932Y-149431443D01*
X112428947Y-149308540D01*
X112108459Y-149308260D01*
X111812260Y-149430647D01*
X111738378Y-149504400D01*
X108225539Y-149504400D01*
X108025932Y-149304443D01*
X107729947Y-149181540D01*
X107409459Y-149181260D01*
X107113260Y-149303647D01*
X106886443Y-149530068D01*
X106763540Y-149826053D01*
X106763260Y-150146541D01*
X106885647Y-150442740D01*
X107112068Y-150669557D01*
X107408053Y-150792460D01*
X107728541Y-150792740D01*
X107895872Y-150723600D01*
X111738238Y-150723600D01*
X111811068Y-150796557D01*
X112107053Y-150919460D01*
X112427541Y-150919740D01*
X112723740Y-150797353D01*
X112950557Y-150570932D01*
X113073460Y-150274947D01*
X113073740Y-149954459D01*
X113073740Y-152044400D01*
X109245400Y-152044400D01*
X105283000Y-152044400D01*
X104903914Y-152119805D01*
X104582540Y-152334540D01*
X104367805Y-152655914D01*
X104292400Y-153035000D01*
X104367805Y-153414086D01*
X104582540Y-153735460D01*
X104903914Y-153950195D01*
X105283000Y-154025600D01*
X109245400Y-154025600D01*
X113385600Y-154025600D01*
X113764686Y-153950195D01*
X114086060Y-153735460D01*
X114300795Y-153414086D01*
X114376200Y-153035000D01*
X114376200Y-156681804D01*
X114098260Y-156796647D01*
X113871443Y-157023068D01*
X113748540Y-157319053D01*
X113748448Y-157423447D01*
X113672949Y-157498947D01*
X112219666Y-158952229D01*
X107340990Y-158952229D01*
X107268161Y-158879272D01*
X106972176Y-158756369D01*
X106651688Y-158756089D01*
X106355489Y-158878476D01*
X106128672Y-159104897D01*
X106005769Y-159400882D01*
X106005489Y-159721370D01*
X106127876Y-160017569D01*
X106354297Y-160244386D01*
X106650282Y-160367289D01*
X106970770Y-160367569D01*
X107266969Y-160245182D01*
X107340850Y-160171429D01*
X112472171Y-160171429D01*
X112705455Y-160125026D01*
X112903223Y-159992881D01*
X114535053Y-158361051D01*
X114610454Y-158285649D01*
X114713541Y-158285740D01*
X115009740Y-158163353D01*
X115236557Y-157936932D01*
X115359460Y-157640947D01*
X115359740Y-157320459D01*
X115359740Y-170833433D01*
X114808000Y-170833433D01*
X114672411Y-170859741D01*
X114553241Y-170938023D01*
X114473469Y-171056201D01*
X114445433Y-171196000D01*
X114445433Y-172720000D01*
X114471741Y-172855589D01*
X114550023Y-172974759D01*
X114668201Y-173054531D01*
X114808000Y-173082567D01*
X116332000Y-173082567D01*
X116467589Y-173056259D01*
X116586759Y-172977977D01*
X116666531Y-172859799D01*
X116694567Y-172720000D01*
X116694567Y-179405221D01*
X116115695Y-179164853D01*
X115377543Y-179164208D01*
X114695334Y-179446092D01*
X114172926Y-179967588D01*
X113889853Y-180649305D01*
X113889208Y-181387457D01*
X114171092Y-182069666D01*
X114692588Y-182592074D01*
X115374305Y-182875147D01*
X116112457Y-182875792D01*
X116794666Y-182593908D01*
X117317074Y-182072412D01*
X117600147Y-181390695D01*
X117600792Y-180652543D01*
X117600792Y-188594400D01*
X113810340Y-188594400D01*
X113810340Y-166464459D01*
X113687953Y-166168260D01*
X113461532Y-165941443D01*
X113165547Y-165818540D01*
X112845059Y-165818260D01*
X112548860Y-165940647D01*
X112322043Y-166167068D01*
X112199140Y-166463053D01*
X112198860Y-166783541D01*
X112321247Y-167079740D01*
X112547668Y-167306557D01*
X112843653Y-167429460D01*
X113164141Y-167429740D01*
X113460340Y-167307353D01*
X113687157Y-167080932D01*
X113810060Y-166784947D01*
X113810340Y-166464459D01*
X113810340Y-188594400D01*
X112527437Y-188594400D01*
X112527437Y-182519870D01*
X112527437Y-179520130D01*
X112501129Y-179384541D01*
X112422847Y-179265371D01*
X112304669Y-179185599D01*
X112164870Y-179157563D01*
X109165130Y-179157563D01*
X109029541Y-179183871D01*
X108910371Y-179262153D01*
X108830599Y-179380331D01*
X108802563Y-179520130D01*
X108802563Y-182519870D01*
X108828871Y-182655459D01*
X108907153Y-182774629D01*
X109025331Y-182854401D01*
X109165130Y-182882437D01*
X112164870Y-182882437D01*
X112300459Y-182856129D01*
X112419629Y-182777847D01*
X112499401Y-182659669D01*
X112527437Y-182519870D01*
X112527437Y-188594400D01*
X107440792Y-188594400D01*
X107440792Y-180652543D01*
X107158908Y-179970334D01*
X106637412Y-179447926D01*
X105955695Y-179164853D01*
X105217543Y-179164208D01*
X104535334Y-179446092D01*
X104012926Y-179967588D01*
X103729853Y-180649305D01*
X103729208Y-181387457D01*
X104011092Y-182069666D01*
X104532588Y-182592074D01*
X105214305Y-182875147D01*
X105952457Y-182875792D01*
X106634666Y-182593908D01*
X107157074Y-182072412D01*
X107440147Y-181390695D01*
X107440792Y-180652543D01*
X107440792Y-188594400D01*
X99106024Y-188594400D01*
X99106024Y-182582996D01*
X99106024Y-94582996D01*
X98786132Y-93808798D01*
X98194318Y-93215949D01*
X97420679Y-92894707D01*
X96582996Y-92893976D01*
X95808798Y-93213868D01*
X95215949Y-93805682D01*
X94894707Y-94579321D01*
X94893976Y-95417004D01*
X95213868Y-96191202D01*
X95805682Y-96784051D01*
X96579321Y-97105293D01*
X97417004Y-97106024D01*
X98191202Y-96786132D01*
X98784051Y-96194318D01*
X99105293Y-95420679D01*
X99106024Y-94582996D01*
X99106024Y-182582996D01*
X98786132Y-181808798D01*
X98194318Y-181215949D01*
X97420679Y-180894707D01*
X96582996Y-180893976D01*
X95808798Y-181213868D01*
X95215949Y-181805682D01*
X94894707Y-182579321D01*
X94893976Y-183417004D01*
X95213868Y-184191202D01*
X95805682Y-184784051D01*
X96579321Y-185105293D01*
X97417004Y-185106024D01*
X98191202Y-184786132D01*
X98784051Y-184194318D01*
X99105293Y-183420679D01*
X99106024Y-182582996D01*
X99106024Y-188594400D01*
X91405600Y-188594400D01*
X91405600Y-89405600D01*
X170594400Y-89405600D01*
X170594400Y-151873000D01*
M02*
