G04 #@! TF.FileFunction,Legend,Top*
%FSLAX46Y46*%
G04 Gerber Fmt 4.6, Leading zero omitted, Abs format (unit mm)*
G04 Created by KiCad (PCBNEW (2015-03-05 BZR 5480)-product) date Mon 09 Mar 2015 11:20:18 AM EET*
%MOMM*%
G01*
G04 APERTURE LIST*
%ADD10C,0.100000*%
%ADD11C,0.150000*%
%ADD12C,0.200000*%
%ADD13C,0.300000*%
%ADD14C,0.254000*%
%ADD15C,0.304800*%
%ADD16C,1.524000*%
%ADD17R,0.900000X1.800000*%
%ADD18R,1.400000X2.000000*%
%ADD19R,1.527000X2.000000*%
%ADD20C,2.000000*%
%ADD21R,1.500000X0.450000*%
%ADD22R,2.999740X2.999740*%
%ADD23C,2.999740*%
%ADD24R,0.599440X1.000760*%
%ADD25R,1.998980X1.998980*%
%ADD26C,1.998980*%
%ADD27R,1.200000X0.750000*%
%ADD28R,0.750000X1.200000*%
%ADD29R,3.500120X1.800860*%
%ADD30R,1.600000X0.550000*%
%ADD31R,0.550000X1.600000*%
%ADD32R,1.524000X1.524000*%
%ADD33R,1.727200X2.032000*%
%ADD34O,1.727200X2.032000*%
%ADD35O,1.699260X3.500120*%
%ADD36R,1.200000X0.900000*%
%ADD37R,2.032000X3.657600*%
%ADD38R,2.032000X1.016000*%
%ADD39R,0.600000X1.550000*%
%ADD40R,2.100580X5.600700*%
%ADD41C,1.778000*%
%ADD42R,1.778000X1.778000*%
%ADD43R,0.900000X1.200000*%
%ADD44C,2.500000*%
%ADD45R,2.032000X1.727200*%
%ADD46O,2.032000X1.727200*%
%ADD47R,1.000760X0.599440*%
G04 APERTURE END LIST*
D10*
D11*
X153019095Y-130982381D02*
X153019095Y-129982381D01*
X153352429Y-130696667D01*
X153685762Y-129982381D01*
X153685762Y-130982381D01*
X154161952Y-130982381D02*
X154161952Y-129982381D01*
X154590523Y-130934762D02*
X154733380Y-130982381D01*
X154971476Y-130982381D01*
X155066714Y-130934762D01*
X155114333Y-130887143D01*
X155161952Y-130791905D01*
X155161952Y-130696667D01*
X155114333Y-130601429D01*
X155066714Y-130553810D01*
X154971476Y-130506190D01*
X154780999Y-130458571D01*
X154685761Y-130410952D01*
X154638142Y-130363333D01*
X154590523Y-130268095D01*
X154590523Y-130172857D01*
X154638142Y-130077619D01*
X154685761Y-130030000D01*
X154780999Y-129982381D01*
X155019095Y-129982381D01*
X155161952Y-130030000D01*
X155780999Y-129982381D02*
X155971476Y-129982381D01*
X156066714Y-130030000D01*
X156161952Y-130125238D01*
X156209571Y-130315714D01*
X156209571Y-130649048D01*
X156161952Y-130839524D01*
X156066714Y-130934762D01*
X155971476Y-130982381D01*
X155780999Y-130982381D01*
X155685761Y-130934762D01*
X155590523Y-130839524D01*
X155542904Y-130649048D01*
X155542904Y-130315714D01*
X155590523Y-130125238D01*
X155685761Y-130030000D01*
X155780999Y-129982381D01*
X157257190Y-129982381D02*
X157590523Y-130982381D01*
X157923857Y-129982381D01*
X158828619Y-130887143D02*
X158781000Y-130934762D01*
X158638143Y-130982381D01*
X158542905Y-130982381D01*
X158400047Y-130934762D01*
X158304809Y-130839524D01*
X158257190Y-130744286D01*
X158209571Y-130553810D01*
X158209571Y-130410952D01*
X158257190Y-130220476D01*
X158304809Y-130125238D01*
X158400047Y-130030000D01*
X158542905Y-129982381D01*
X158638143Y-129982381D01*
X158781000Y-130030000D01*
X158828619Y-130077619D01*
X159828619Y-130887143D02*
X159781000Y-130934762D01*
X159638143Y-130982381D01*
X159542905Y-130982381D01*
X159400047Y-130934762D01*
X159304809Y-130839524D01*
X159257190Y-130744286D01*
X159209571Y-130553810D01*
X159209571Y-130410952D01*
X159257190Y-130220476D01*
X159304809Y-130125238D01*
X159400047Y-130030000D01*
X159542905Y-129982381D01*
X159638143Y-129982381D01*
X159781000Y-130030000D01*
X159828619Y-130077619D01*
X153590524Y-132437143D02*
X153542905Y-132484762D01*
X153400048Y-132532381D01*
X153304810Y-132532381D01*
X153161952Y-132484762D01*
X153066714Y-132389524D01*
X153019095Y-132294286D01*
X152971476Y-132103810D01*
X152971476Y-131960952D01*
X153019095Y-131770476D01*
X153066714Y-131675238D01*
X153161952Y-131580000D01*
X153304810Y-131532381D01*
X153400048Y-131532381D01*
X153542905Y-131580000D01*
X153590524Y-131627619D01*
X154495286Y-132532381D02*
X154019095Y-132532381D01*
X154019095Y-131532381D01*
X154828619Y-132532381D02*
X154828619Y-131532381D01*
X155400048Y-132532381D02*
X154971476Y-131960952D01*
X155400048Y-131532381D02*
X154828619Y-132103810D01*
X157352429Y-132532381D02*
X157352429Y-131532381D01*
X157685763Y-132246667D01*
X158019096Y-131532381D01*
X158019096Y-132532381D01*
X158685762Y-131532381D02*
X158876239Y-131532381D01*
X158971477Y-131580000D01*
X159066715Y-131675238D01*
X159114334Y-131865714D01*
X159114334Y-132199048D01*
X159066715Y-132389524D01*
X158971477Y-132484762D01*
X158876239Y-132532381D01*
X158685762Y-132532381D01*
X158590524Y-132484762D01*
X158495286Y-132389524D01*
X158447667Y-132199048D01*
X158447667Y-131865714D01*
X158495286Y-131675238D01*
X158590524Y-131580000D01*
X158685762Y-131532381D01*
X159495286Y-132484762D02*
X159638143Y-132532381D01*
X159876239Y-132532381D01*
X159971477Y-132484762D01*
X160019096Y-132437143D01*
X160066715Y-132341905D01*
X160066715Y-132246667D01*
X160019096Y-132151429D01*
X159971477Y-132103810D01*
X159876239Y-132056190D01*
X159685762Y-132008571D01*
X159590524Y-131960952D01*
X159542905Y-131913333D01*
X159495286Y-131818095D01*
X159495286Y-131722857D01*
X159542905Y-131627619D01*
X159590524Y-131580000D01*
X159685762Y-131532381D01*
X159923858Y-131532381D01*
X160066715Y-131580000D01*
X160495286Y-132532381D02*
X160495286Y-131532381D01*
X153590524Y-134082381D02*
X153257190Y-133606190D01*
X153019095Y-134082381D02*
X153019095Y-133082381D01*
X153400048Y-133082381D01*
X153495286Y-133130000D01*
X153542905Y-133177619D01*
X153590524Y-133272857D01*
X153590524Y-133415714D01*
X153542905Y-133510952D01*
X153495286Y-133558571D01*
X153400048Y-133606190D01*
X153019095Y-133606190D01*
X153971476Y-134034762D02*
X154114333Y-134082381D01*
X154352429Y-134082381D01*
X154447667Y-134034762D01*
X154495286Y-133987143D01*
X154542905Y-133891905D01*
X154542905Y-133796667D01*
X154495286Y-133701429D01*
X154447667Y-133653810D01*
X154352429Y-133606190D01*
X154161952Y-133558571D01*
X154066714Y-133510952D01*
X154019095Y-133463333D01*
X153971476Y-133368095D01*
X153971476Y-133272857D01*
X154019095Y-133177619D01*
X154066714Y-133130000D01*
X154161952Y-133082381D01*
X154400048Y-133082381D01*
X154542905Y-133130000D01*
X154828619Y-133082381D02*
X155400048Y-133082381D01*
X155114333Y-134082381D02*
X155114333Y-133082381D01*
X157781001Y-133130000D02*
X157685763Y-133082381D01*
X157542906Y-133082381D01*
X157400048Y-133130000D01*
X157304810Y-133225238D01*
X157257191Y-133320476D01*
X157209572Y-133510952D01*
X157209572Y-133653810D01*
X157257191Y-133844286D01*
X157304810Y-133939524D01*
X157400048Y-134034762D01*
X157542906Y-134082381D01*
X157638144Y-134082381D01*
X157781001Y-134034762D01*
X157828620Y-133987143D01*
X157828620Y-133653810D01*
X157638144Y-133653810D01*
X158257191Y-134082381D02*
X158257191Y-133082381D01*
X158828620Y-134082381D01*
X158828620Y-133082381D01*
X159304810Y-134082381D02*
X159304810Y-133082381D01*
X159542905Y-133082381D01*
X159685763Y-133130000D01*
X159781001Y-133225238D01*
X159828620Y-133320476D01*
X159876239Y-133510952D01*
X159876239Y-133653810D01*
X159828620Y-133844286D01*
X159781001Y-133939524D01*
X159685763Y-134034762D01*
X159542905Y-134082381D01*
X159304810Y-134082381D01*
X159194714Y-139390381D02*
X159194714Y-138390381D01*
X159432809Y-138390381D01*
X159575667Y-138438000D01*
X159670905Y-138533238D01*
X159718524Y-138628476D01*
X159766143Y-138818952D01*
X159766143Y-138961810D01*
X159718524Y-139152286D01*
X159670905Y-139247524D01*
X159575667Y-139342762D01*
X159432809Y-139390381D01*
X159194714Y-139390381D01*
X160623286Y-138723714D02*
X160623286Y-139390381D01*
X160385190Y-138342762D02*
X160147095Y-139057048D01*
X160766143Y-139057048D01*
X155384714Y-139390381D02*
X155384714Y-138390381D01*
X155622809Y-138390381D01*
X155765667Y-138438000D01*
X155860905Y-138533238D01*
X155908524Y-138628476D01*
X155956143Y-138818952D01*
X155956143Y-138961810D01*
X155908524Y-139152286D01*
X155860905Y-139247524D01*
X155765667Y-139342762D01*
X155622809Y-139390381D01*
X155384714Y-139390381D01*
X156289476Y-138390381D02*
X156908524Y-138390381D01*
X156575190Y-138771333D01*
X156718048Y-138771333D01*
X156813286Y-138818952D01*
X156860905Y-138866571D01*
X156908524Y-138961810D01*
X156908524Y-139199905D01*
X156860905Y-139295143D01*
X156813286Y-139342762D01*
X156718048Y-139390381D01*
X156432333Y-139390381D01*
X156337095Y-139342762D01*
X156289476Y-139295143D01*
X101544381Y-169629431D02*
X100544381Y-169629431D01*
X101544381Y-169200859D02*
X101020571Y-169200859D01*
X100925333Y-169248478D01*
X100877714Y-169343716D01*
X100877714Y-169486574D01*
X100925333Y-169581812D01*
X100972952Y-169629431D01*
X100877714Y-168867526D02*
X100877714Y-168486574D01*
X100544381Y-168724669D02*
X101401524Y-168724669D01*
X101496762Y-168677050D01*
X101544381Y-168581812D01*
X101544381Y-168486574D01*
X100877714Y-168296097D02*
X100877714Y-167915145D01*
X100544381Y-168153240D02*
X101401524Y-168153240D01*
X101496762Y-168105621D01*
X101544381Y-168010383D01*
X101544381Y-167915145D01*
X100877714Y-167581811D02*
X101877714Y-167581811D01*
X100925333Y-167581811D02*
X100877714Y-167486573D01*
X100877714Y-167296096D01*
X100925333Y-167200858D01*
X100972952Y-167153239D01*
X101068190Y-167105620D01*
X101353905Y-167105620D01*
X101449143Y-167153239D01*
X101496762Y-167200858D01*
X101544381Y-167296096D01*
X101544381Y-167486573D01*
X101496762Y-167581811D01*
X101496762Y-166724668D02*
X101544381Y-166629430D01*
X101544381Y-166438954D01*
X101496762Y-166343715D01*
X101401524Y-166296096D01*
X101353905Y-166296096D01*
X101258667Y-166343715D01*
X101211048Y-166438954D01*
X101211048Y-166581811D01*
X101163429Y-166677049D01*
X101068190Y-166724668D01*
X101020571Y-166724668D01*
X100925333Y-166677049D01*
X100877714Y-166581811D01*
X100877714Y-166438954D01*
X100925333Y-166343715D01*
X101449143Y-165867525D02*
X101496762Y-165819906D01*
X101544381Y-165867525D01*
X101496762Y-165915144D01*
X101449143Y-165867525D01*
X101544381Y-165867525D01*
X100925333Y-165867525D02*
X100972952Y-165819906D01*
X101020571Y-165867525D01*
X100972952Y-165915144D01*
X100925333Y-165867525D01*
X101020571Y-165867525D01*
X100496762Y-164677049D02*
X101782476Y-165534192D01*
X100496762Y-163629430D02*
X101782476Y-164486573D01*
X100877714Y-162867525D02*
X101687238Y-162867525D01*
X101782476Y-162915144D01*
X101830095Y-162962763D01*
X101877714Y-163058002D01*
X101877714Y-163200859D01*
X101830095Y-163296097D01*
X101496762Y-162867525D02*
X101544381Y-162962763D01*
X101544381Y-163153240D01*
X101496762Y-163248478D01*
X101449143Y-163296097D01*
X101353905Y-163343716D01*
X101068190Y-163343716D01*
X100972952Y-163296097D01*
X100925333Y-163248478D01*
X100877714Y-163153240D01*
X100877714Y-162962763D01*
X100925333Y-162867525D01*
X101544381Y-162391335D02*
X100877714Y-162391335D01*
X100544381Y-162391335D02*
X100592000Y-162438954D01*
X100639619Y-162391335D01*
X100592000Y-162343716D01*
X100544381Y-162391335D01*
X100639619Y-162391335D01*
X100877714Y-162058002D02*
X100877714Y-161677050D01*
X100544381Y-161915145D02*
X101401524Y-161915145D01*
X101496762Y-161867526D01*
X101544381Y-161772288D01*
X101544381Y-161677050D01*
X101544381Y-161343716D02*
X100544381Y-161343716D01*
X101544381Y-160915144D02*
X101020571Y-160915144D01*
X100925333Y-160962763D01*
X100877714Y-161058001D01*
X100877714Y-161200859D01*
X100925333Y-161296097D01*
X100972952Y-161343716D01*
X100877714Y-160010382D02*
X101544381Y-160010382D01*
X100877714Y-160438954D02*
X101401524Y-160438954D01*
X101496762Y-160391335D01*
X101544381Y-160296097D01*
X101544381Y-160153239D01*
X101496762Y-160058001D01*
X101449143Y-160010382D01*
X101544381Y-159534192D02*
X100544381Y-159534192D01*
X100925333Y-159534192D02*
X100877714Y-159438954D01*
X100877714Y-159248477D01*
X100925333Y-159153239D01*
X100972952Y-159105620D01*
X101068190Y-159058001D01*
X101353905Y-159058001D01*
X101449143Y-159105620D01*
X101496762Y-159153239D01*
X101544381Y-159248477D01*
X101544381Y-159438954D01*
X101496762Y-159534192D01*
X101449143Y-158629430D02*
X101496762Y-158581811D01*
X101544381Y-158629430D01*
X101496762Y-158677049D01*
X101449143Y-158629430D01*
X101544381Y-158629430D01*
X101496762Y-157724668D02*
X101544381Y-157819906D01*
X101544381Y-158010383D01*
X101496762Y-158105621D01*
X101449143Y-158153240D01*
X101353905Y-158200859D01*
X101068190Y-158200859D01*
X100972952Y-158153240D01*
X100925333Y-158105621D01*
X100877714Y-158010383D01*
X100877714Y-157819906D01*
X100925333Y-157724668D01*
X101544381Y-157153240D02*
X101496762Y-157248478D01*
X101449143Y-157296097D01*
X101353905Y-157343716D01*
X101068190Y-157343716D01*
X100972952Y-157296097D01*
X100925333Y-157248478D01*
X100877714Y-157153240D01*
X100877714Y-157010382D01*
X100925333Y-156915144D01*
X100972952Y-156867525D01*
X101068190Y-156819906D01*
X101353905Y-156819906D01*
X101449143Y-156867525D01*
X101496762Y-156915144D01*
X101544381Y-157010382D01*
X101544381Y-157153240D01*
X101544381Y-156391335D02*
X100877714Y-156391335D01*
X100972952Y-156391335D02*
X100925333Y-156343716D01*
X100877714Y-156248478D01*
X100877714Y-156105620D01*
X100925333Y-156010382D01*
X101020571Y-155962763D01*
X101544381Y-155962763D01*
X101020571Y-155962763D02*
X100925333Y-155915144D01*
X100877714Y-155819906D01*
X100877714Y-155677049D01*
X100925333Y-155581811D01*
X101020571Y-155534192D01*
X101544381Y-155534192D01*
X100496762Y-154343716D02*
X101782476Y-155200859D01*
X101544381Y-154010383D02*
X100544381Y-154010383D01*
X101258667Y-153677049D01*
X100544381Y-153343716D01*
X101544381Y-153343716D01*
X101544381Y-152867526D02*
X100877714Y-152867526D01*
X100544381Y-152867526D02*
X100592000Y-152915145D01*
X100639619Y-152867526D01*
X100592000Y-152819907D01*
X100544381Y-152867526D01*
X100639619Y-152867526D01*
X101496762Y-151962764D02*
X101544381Y-152058002D01*
X101544381Y-152248479D01*
X101496762Y-152343717D01*
X101449143Y-152391336D01*
X101353905Y-152438955D01*
X101068190Y-152438955D01*
X100972952Y-152391336D01*
X100925333Y-152343717D01*
X100877714Y-152248479D01*
X100877714Y-152058002D01*
X100925333Y-151962764D01*
X101496762Y-151153240D02*
X101544381Y-151248478D01*
X101544381Y-151438955D01*
X101496762Y-151534193D01*
X101401524Y-151581812D01*
X101020571Y-151581812D01*
X100925333Y-151534193D01*
X100877714Y-151438955D01*
X100877714Y-151248478D01*
X100925333Y-151153240D01*
X101020571Y-151105621D01*
X101115810Y-151105621D01*
X101211048Y-151581812D01*
X100877714Y-150248478D02*
X101544381Y-150248478D01*
X100877714Y-150677050D02*
X101401524Y-150677050D01*
X101496762Y-150629431D01*
X101544381Y-150534193D01*
X101544381Y-150391335D01*
X101496762Y-150296097D01*
X101449143Y-150248478D01*
X100877714Y-149867526D02*
X100877714Y-149343716D01*
X101544381Y-149867526D01*
X101544381Y-149343716D01*
X100496762Y-148248478D02*
X101782476Y-149105621D01*
X100877714Y-147486573D02*
X101544381Y-147486573D01*
X100877714Y-147915145D02*
X101401524Y-147915145D01*
X101496762Y-147867526D01*
X101544381Y-147772288D01*
X101544381Y-147629430D01*
X101496762Y-147534192D01*
X101449143Y-147486573D01*
X101544381Y-146867526D02*
X101496762Y-146962764D01*
X101401524Y-147010383D01*
X100544381Y-147010383D01*
X100877714Y-146629430D02*
X100877714Y-146248478D01*
X100544381Y-146486573D02*
X101401524Y-146486573D01*
X101496762Y-146438954D01*
X101544381Y-146343716D01*
X101544381Y-146248478D01*
X101544381Y-145915144D02*
X100877714Y-145915144D01*
X100544381Y-145915144D02*
X100592000Y-145962763D01*
X100639619Y-145915144D01*
X100592000Y-145867525D01*
X100544381Y-145915144D01*
X100639619Y-145915144D01*
X101544381Y-145438954D02*
X100877714Y-145438954D01*
X100972952Y-145438954D02*
X100925333Y-145391335D01*
X100877714Y-145296097D01*
X100877714Y-145153239D01*
X100925333Y-145058001D01*
X101020571Y-145010382D01*
X101544381Y-145010382D01*
X101020571Y-145010382D02*
X100925333Y-144962763D01*
X100877714Y-144867525D01*
X100877714Y-144724668D01*
X100925333Y-144629430D01*
X101020571Y-144581811D01*
X101544381Y-144581811D01*
X101544381Y-143677049D02*
X101020571Y-143677049D01*
X100925333Y-143724668D01*
X100877714Y-143819906D01*
X100877714Y-144010383D01*
X100925333Y-144105621D01*
X101496762Y-143677049D02*
X101544381Y-143772287D01*
X101544381Y-144010383D01*
X101496762Y-144105621D01*
X101401524Y-144153240D01*
X101306286Y-144153240D01*
X101211048Y-144105621D01*
X101163429Y-144010383D01*
X101163429Y-143772287D01*
X101115810Y-143677049D01*
X100877714Y-143343716D02*
X100877714Y-142962764D01*
X100544381Y-143200859D02*
X101401524Y-143200859D01*
X101496762Y-143153240D01*
X101544381Y-143058002D01*
X101544381Y-142962764D01*
X101496762Y-142248477D02*
X101544381Y-142343715D01*
X101544381Y-142534192D01*
X101496762Y-142629430D01*
X101401524Y-142677049D01*
X101020571Y-142677049D01*
X100925333Y-142629430D01*
X100877714Y-142534192D01*
X100877714Y-142343715D01*
X100925333Y-142248477D01*
X101020571Y-142200858D01*
X101115810Y-142200858D01*
X101211048Y-142677049D01*
X101163429Y-141772287D02*
X101163429Y-141010382D01*
X100877714Y-140677049D02*
X100877714Y-140296097D01*
X100544381Y-140534192D02*
X101401524Y-140534192D01*
X101496762Y-140486573D01*
X101544381Y-140391335D01*
X101544381Y-140296097D01*
X101496762Y-139581810D02*
X101544381Y-139677048D01*
X101544381Y-139867525D01*
X101496762Y-139962763D01*
X101401524Y-140010382D01*
X101020571Y-140010382D01*
X100925333Y-139962763D01*
X100877714Y-139867525D01*
X100877714Y-139677048D01*
X100925333Y-139581810D01*
X101020571Y-139534191D01*
X101115810Y-139534191D01*
X101211048Y-140010382D01*
X101544381Y-139105620D02*
X100877714Y-139105620D01*
X100972952Y-139105620D02*
X100925333Y-139058001D01*
X100877714Y-138962763D01*
X100877714Y-138819905D01*
X100925333Y-138724667D01*
X101020571Y-138677048D01*
X101544381Y-138677048D01*
X101020571Y-138677048D02*
X100925333Y-138629429D01*
X100877714Y-138534191D01*
X100877714Y-138391334D01*
X100925333Y-138296096D01*
X101020571Y-138248477D01*
X101544381Y-138248477D01*
X100877714Y-137772287D02*
X101877714Y-137772287D01*
X100925333Y-137772287D02*
X100877714Y-137677049D01*
X100877714Y-137486572D01*
X100925333Y-137391334D01*
X100972952Y-137343715D01*
X101068190Y-137296096D01*
X101353905Y-137296096D01*
X101449143Y-137343715D01*
X101496762Y-137391334D01*
X101544381Y-137486572D01*
X101544381Y-137677049D01*
X101496762Y-137772287D01*
X101496762Y-136486572D02*
X101544381Y-136581810D01*
X101544381Y-136772287D01*
X101496762Y-136867525D01*
X101401524Y-136915144D01*
X101020571Y-136915144D01*
X100925333Y-136867525D01*
X100877714Y-136772287D01*
X100877714Y-136581810D01*
X100925333Y-136486572D01*
X101020571Y-136438953D01*
X101115810Y-136438953D01*
X101211048Y-136915144D01*
X101544381Y-136010382D02*
X100877714Y-136010382D01*
X101068190Y-136010382D02*
X100972952Y-135962763D01*
X100925333Y-135915144D01*
X100877714Y-135819906D01*
X100877714Y-135724667D01*
X101544381Y-134962762D02*
X101020571Y-134962762D01*
X100925333Y-135010381D01*
X100877714Y-135105619D01*
X100877714Y-135296096D01*
X100925333Y-135391334D01*
X101496762Y-134962762D02*
X101544381Y-135058000D01*
X101544381Y-135296096D01*
X101496762Y-135391334D01*
X101401524Y-135438953D01*
X101306286Y-135438953D01*
X101211048Y-135391334D01*
X101163429Y-135296096D01*
X101163429Y-135058000D01*
X101115810Y-134962762D01*
X100877714Y-134629429D02*
X100877714Y-134248477D01*
X100544381Y-134486572D02*
X101401524Y-134486572D01*
X101496762Y-134438953D01*
X101544381Y-134343715D01*
X101544381Y-134248477D01*
X100877714Y-133486571D02*
X101544381Y-133486571D01*
X100877714Y-133915143D02*
X101401524Y-133915143D01*
X101496762Y-133867524D01*
X101544381Y-133772286D01*
X101544381Y-133629428D01*
X101496762Y-133534190D01*
X101449143Y-133486571D01*
X101544381Y-133010381D02*
X100877714Y-133010381D01*
X101068190Y-133010381D02*
X100972952Y-132962762D01*
X100925333Y-132915143D01*
X100877714Y-132819905D01*
X100877714Y-132724666D01*
X101496762Y-132010380D02*
X101544381Y-132105618D01*
X101544381Y-132296095D01*
X101496762Y-132391333D01*
X101401524Y-132438952D01*
X101020571Y-132438952D01*
X100925333Y-132391333D01*
X100877714Y-132296095D01*
X100877714Y-132105618D01*
X100925333Y-132010380D01*
X101020571Y-131962761D01*
X101115810Y-131962761D01*
X101211048Y-132438952D01*
X101163429Y-131534190D02*
X101163429Y-130772285D01*
X101496762Y-129867523D02*
X101544381Y-129962761D01*
X101544381Y-130153238D01*
X101496762Y-130248476D01*
X101449143Y-130296095D01*
X101353905Y-130343714D01*
X101068190Y-130343714D01*
X100972952Y-130296095D01*
X100925333Y-130248476D01*
X100877714Y-130153238D01*
X100877714Y-129962761D01*
X100925333Y-129867523D01*
X101544381Y-129296095D02*
X101496762Y-129391333D01*
X101449143Y-129438952D01*
X101353905Y-129486571D01*
X101068190Y-129486571D01*
X100972952Y-129438952D01*
X100925333Y-129391333D01*
X100877714Y-129296095D01*
X100877714Y-129153237D01*
X100925333Y-129057999D01*
X100972952Y-129010380D01*
X101068190Y-128962761D01*
X101353905Y-128962761D01*
X101449143Y-129010380D01*
X101496762Y-129057999D01*
X101544381Y-129153237D01*
X101544381Y-129296095D01*
X100877714Y-128534190D02*
X101544381Y-128534190D01*
X100972952Y-128534190D02*
X100925333Y-128486571D01*
X100877714Y-128391333D01*
X100877714Y-128248475D01*
X100925333Y-128153237D01*
X101020571Y-128105618D01*
X101544381Y-128105618D01*
X100877714Y-127772285D02*
X100877714Y-127391333D01*
X100544381Y-127629428D02*
X101401524Y-127629428D01*
X101496762Y-127581809D01*
X101544381Y-127486571D01*
X101544381Y-127391333D01*
X101544381Y-127057999D02*
X100877714Y-127057999D01*
X101068190Y-127057999D02*
X100972952Y-127010380D01*
X100925333Y-126962761D01*
X100877714Y-126867523D01*
X100877714Y-126772284D01*
X101544381Y-126296094D02*
X101496762Y-126391332D01*
X101449143Y-126438951D01*
X101353905Y-126486570D01*
X101068190Y-126486570D01*
X100972952Y-126438951D01*
X100925333Y-126391332D01*
X100877714Y-126296094D01*
X100877714Y-126153236D01*
X100925333Y-126057998D01*
X100972952Y-126010379D01*
X101068190Y-125962760D01*
X101353905Y-125962760D01*
X101449143Y-126010379D01*
X101496762Y-126057998D01*
X101544381Y-126153236D01*
X101544381Y-126296094D01*
X101544381Y-125391332D02*
X101496762Y-125486570D01*
X101401524Y-125534189D01*
X100544381Y-125534189D01*
X101544381Y-124867522D02*
X101496762Y-124962760D01*
X101401524Y-125010379D01*
X100544381Y-125010379D01*
X101496762Y-124105616D02*
X101544381Y-124200854D01*
X101544381Y-124391331D01*
X101496762Y-124486569D01*
X101401524Y-124534188D01*
X101020571Y-124534188D01*
X100925333Y-124486569D01*
X100877714Y-124391331D01*
X100877714Y-124200854D01*
X100925333Y-124105616D01*
X101020571Y-124057997D01*
X101115810Y-124057997D01*
X101211048Y-124534188D01*
X101544381Y-123629426D02*
X100877714Y-123629426D01*
X101068190Y-123629426D02*
X100972952Y-123581807D01*
X100925333Y-123534188D01*
X100877714Y-123438950D01*
X100877714Y-123343711D01*
X155321333Y-137231381D02*
X155321333Y-136231381D01*
X155559428Y-136231381D01*
X155702286Y-136279000D01*
X155797524Y-136374238D01*
X155845143Y-136469476D01*
X155892762Y-136659952D01*
X155892762Y-136802810D01*
X155845143Y-136993286D01*
X155797524Y-137088524D01*
X155702286Y-137183762D01*
X155559428Y-137231381D01*
X155321333Y-137231381D01*
X156845143Y-137231381D02*
X156273714Y-137231381D01*
X156559428Y-137231381D02*
X156559428Y-136231381D01*
X156464190Y-136374238D01*
X156368952Y-136469476D01*
X156273714Y-136517095D01*
X157464190Y-136231381D02*
X157559429Y-136231381D01*
X157654667Y-136279000D01*
X157702286Y-136326619D01*
X157749905Y-136421857D01*
X157797524Y-136612333D01*
X157797524Y-136850429D01*
X157749905Y-137040905D01*
X157702286Y-137136143D01*
X157654667Y-137183762D01*
X157559429Y-137231381D01*
X157464190Y-137231381D01*
X157368952Y-137183762D01*
X157321333Y-137136143D01*
X157273714Y-137040905D01*
X157226095Y-136850429D01*
X157226095Y-136612333D01*
X157273714Y-136421857D01*
X157321333Y-136326619D01*
X157368952Y-136279000D01*
X157464190Y-136231381D01*
X159194714Y-137231381D02*
X159194714Y-136231381D01*
X159432809Y-136231381D01*
X159575667Y-136279000D01*
X159670905Y-136374238D01*
X159718524Y-136469476D01*
X159766143Y-136659952D01*
X159766143Y-136802810D01*
X159718524Y-136993286D01*
X159670905Y-137088524D01*
X159575667Y-137183762D01*
X159432809Y-137231381D01*
X159194714Y-137231381D01*
X160242333Y-137231381D02*
X160432809Y-137231381D01*
X160528048Y-137183762D01*
X160575667Y-137136143D01*
X160670905Y-136993286D01*
X160718524Y-136802810D01*
X160718524Y-136421857D01*
X160670905Y-136326619D01*
X160623286Y-136279000D01*
X160528048Y-136231381D01*
X160337571Y-136231381D01*
X160242333Y-136279000D01*
X160194714Y-136326619D01*
X160147095Y-136421857D01*
X160147095Y-136659952D01*
X160194714Y-136755190D01*
X160242333Y-136802810D01*
X160337571Y-136850429D01*
X160528048Y-136850429D01*
X160623286Y-136802810D01*
X160670905Y-136755190D01*
X160718524Y-136659952D01*
X143311619Y-137223714D02*
X144311619Y-137223714D01*
X144311619Y-137461809D01*
X144264000Y-137604667D01*
X144168762Y-137699905D01*
X144073524Y-137747524D01*
X143883048Y-137795143D01*
X143740190Y-137795143D01*
X143549714Y-137747524D01*
X143454476Y-137699905D01*
X143359238Y-137604667D01*
X143311619Y-137461809D01*
X143311619Y-137223714D01*
X144311619Y-138128476D02*
X144311619Y-138747524D01*
X143930667Y-138414190D01*
X143930667Y-138557048D01*
X143883048Y-138652286D01*
X143835429Y-138699905D01*
X143740190Y-138747524D01*
X143502095Y-138747524D01*
X143406857Y-138699905D01*
X143359238Y-138652286D01*
X143311619Y-138557048D01*
X143311619Y-138271333D01*
X143359238Y-138176095D01*
X143406857Y-138128476D01*
X140771619Y-137223714D02*
X141771619Y-137223714D01*
X141771619Y-137461809D01*
X141724000Y-137604667D01*
X141628762Y-137699905D01*
X141533524Y-137747524D01*
X141343048Y-137795143D01*
X141200190Y-137795143D01*
X141009714Y-137747524D01*
X140914476Y-137699905D01*
X140819238Y-137604667D01*
X140771619Y-137461809D01*
X140771619Y-137223714D01*
X141438286Y-138652286D02*
X140771619Y-138652286D01*
X141819238Y-138414190D02*
X141104952Y-138176095D01*
X141104952Y-138795143D01*
X139184000Y-137668286D02*
X139231619Y-137573048D01*
X139231619Y-137430191D01*
X139184000Y-137287333D01*
X139088762Y-137192095D01*
X138993524Y-137144476D01*
X138803048Y-137096857D01*
X138660190Y-137096857D01*
X138469714Y-137144476D01*
X138374476Y-137192095D01*
X138279238Y-137287333D01*
X138231619Y-137430191D01*
X138231619Y-137525429D01*
X138279238Y-137668286D01*
X138326857Y-137715905D01*
X138660190Y-137715905D01*
X138660190Y-137525429D01*
X138231619Y-138144476D02*
X139231619Y-138144476D01*
X138231619Y-138715905D01*
X139231619Y-138715905D01*
X138231619Y-139192095D02*
X139231619Y-139192095D01*
X139231619Y-139430190D01*
X139184000Y-139573048D01*
X139088762Y-139668286D01*
X138993524Y-139715905D01*
X138803048Y-139763524D01*
X138660190Y-139763524D01*
X138469714Y-139715905D01*
X138374476Y-139668286D01*
X138279238Y-139573048D01*
X138231619Y-139430190D01*
X138231619Y-139192095D01*
X142240286Y-115578000D02*
X142145048Y-115530381D01*
X142002191Y-115530381D01*
X141859333Y-115578000D01*
X141764095Y-115673238D01*
X141716476Y-115768476D01*
X141668857Y-115958952D01*
X141668857Y-116101810D01*
X141716476Y-116292286D01*
X141764095Y-116387524D01*
X141859333Y-116482762D01*
X142002191Y-116530381D01*
X142097429Y-116530381D01*
X142240286Y-116482762D01*
X142287905Y-116435143D01*
X142287905Y-116101810D01*
X142097429Y-116101810D01*
X142716476Y-116530381D02*
X142716476Y-115530381D01*
X143287905Y-116530381D01*
X143287905Y-115530381D01*
X143764095Y-116530381D02*
X143764095Y-115530381D01*
X144002190Y-115530381D01*
X144145048Y-115578000D01*
X144240286Y-115673238D01*
X144287905Y-115768476D01*
X144335524Y-115958952D01*
X144335524Y-116101810D01*
X144287905Y-116292286D01*
X144240286Y-116387524D01*
X144145048Y-116482762D01*
X144002190Y-116530381D01*
X143764095Y-116530381D01*
X141716476Y-113609429D02*
X142478381Y-113609429D01*
X142097429Y-113990381D02*
X142097429Y-113228476D01*
X143430762Y-112990381D02*
X142954571Y-112990381D01*
X142906952Y-113466571D01*
X142954571Y-113418952D01*
X143049809Y-113371333D01*
X143287905Y-113371333D01*
X143383143Y-113418952D01*
X143430762Y-113466571D01*
X143478381Y-113561810D01*
X143478381Y-113799905D01*
X143430762Y-113895143D01*
X143383143Y-113942762D01*
X143287905Y-113990381D01*
X143049809Y-113990381D01*
X142954571Y-113942762D01*
X142906952Y-113895143D01*
X143764095Y-112990381D02*
X144097428Y-113990381D01*
X144430762Y-112990381D01*
X142906952Y-110450381D02*
X143478381Y-110450381D01*
X143192666Y-111450381D02*
X143192666Y-110450381D01*
X143716476Y-110450381D02*
X144383143Y-111450381D01*
X144383143Y-110450381D02*
X143716476Y-111450381D01*
X143383143Y-108910381D02*
X143049809Y-108434190D01*
X142811714Y-108910381D02*
X142811714Y-107910381D01*
X143192667Y-107910381D01*
X143287905Y-107958000D01*
X143335524Y-108005619D01*
X143383143Y-108100857D01*
X143383143Y-108243714D01*
X143335524Y-108338952D01*
X143287905Y-108386571D01*
X143192667Y-108434190D01*
X142811714Y-108434190D01*
X143716476Y-107910381D02*
X144383143Y-108910381D01*
X144383143Y-107910381D02*
X143716476Y-108910381D01*
X142002190Y-106370381D02*
X142002190Y-105370381D01*
X142240285Y-105370381D01*
X142383143Y-105418000D01*
X142478381Y-105513238D01*
X142526000Y-105608476D01*
X142573619Y-105798952D01*
X142573619Y-105941810D01*
X142526000Y-106132286D01*
X142478381Y-106227524D01*
X142383143Y-106322762D01*
X142240285Y-106370381D01*
X142002190Y-106370381D01*
X142859333Y-105370381D02*
X143430762Y-105370381D01*
X143145047Y-106370381D02*
X143145047Y-105370381D01*
X144335524Y-106370381D02*
X144002190Y-105894190D01*
X143764095Y-106370381D02*
X143764095Y-105370381D01*
X144145048Y-105370381D01*
X144240286Y-105418000D01*
X144287905Y-105465619D01*
X144335524Y-105560857D01*
X144335524Y-105703714D01*
X144287905Y-105798952D01*
X144240286Y-105846571D01*
X144145048Y-105894190D01*
X143764095Y-105894190D01*
D12*
X93144571Y-162417143D02*
X93144571Y-161560000D01*
X94644571Y-161988571D02*
X93144571Y-161988571D01*
X94644571Y-161060000D02*
X93144571Y-161060000D01*
X94644571Y-160417143D02*
X93858857Y-160417143D01*
X93716000Y-160488572D01*
X93644571Y-160631429D01*
X93644571Y-160845714D01*
X93716000Y-160988572D01*
X93787429Y-161060000D01*
X94573143Y-159131429D02*
X94644571Y-159274286D01*
X94644571Y-159560000D01*
X94573143Y-159702857D01*
X94430286Y-159774286D01*
X93858857Y-159774286D01*
X93716000Y-159702857D01*
X93644571Y-159560000D01*
X93644571Y-159274286D01*
X93716000Y-159131429D01*
X93858857Y-159060000D01*
X94001714Y-159060000D01*
X94144571Y-159774286D01*
X93144571Y-157274286D02*
X94358857Y-157274286D01*
X94501714Y-157202858D01*
X94573143Y-157131429D01*
X94644571Y-156988572D01*
X94644571Y-156702858D01*
X94573143Y-156560000D01*
X94501714Y-156488572D01*
X94358857Y-156417143D01*
X93144571Y-156417143D01*
X94644571Y-155488571D02*
X94573143Y-155631429D01*
X94430286Y-155702857D01*
X93144571Y-155702857D01*
X93644571Y-155131429D02*
X93644571Y-154560000D01*
X93144571Y-154917143D02*
X94430286Y-154917143D01*
X94573143Y-154845715D01*
X94644571Y-154702857D01*
X94644571Y-154560000D01*
X94644571Y-154060000D02*
X93644571Y-154060000D01*
X93144571Y-154060000D02*
X93216000Y-154131429D01*
X93287429Y-154060000D01*
X93216000Y-153988572D01*
X93144571Y-154060000D01*
X93287429Y-154060000D01*
X94644571Y-153345714D02*
X93644571Y-153345714D01*
X93787429Y-153345714D02*
X93716000Y-153274286D01*
X93644571Y-153131428D01*
X93644571Y-152917143D01*
X93716000Y-152774286D01*
X93858857Y-152702857D01*
X94644571Y-152702857D01*
X93858857Y-152702857D02*
X93716000Y-152631428D01*
X93644571Y-152488571D01*
X93644571Y-152274286D01*
X93716000Y-152131428D01*
X93858857Y-152060000D01*
X94644571Y-152060000D01*
X94644571Y-150702857D02*
X93858857Y-150702857D01*
X93716000Y-150774286D01*
X93644571Y-150917143D01*
X93644571Y-151202857D01*
X93716000Y-151345714D01*
X94573143Y-150702857D02*
X94644571Y-150845714D01*
X94644571Y-151202857D01*
X94573143Y-151345714D01*
X94430286Y-151417143D01*
X94287429Y-151417143D01*
X94144571Y-151345714D01*
X94073143Y-151202857D01*
X94073143Y-150845714D01*
X94001714Y-150702857D01*
X93644571Y-150202857D02*
X93644571Y-149631428D01*
X93144571Y-149988571D02*
X94430286Y-149988571D01*
X94573143Y-149917143D01*
X94644571Y-149774285D01*
X94644571Y-149631428D01*
X94573143Y-148560000D02*
X94644571Y-148702857D01*
X94644571Y-148988571D01*
X94573143Y-149131428D01*
X94430286Y-149202857D01*
X93858857Y-149202857D01*
X93716000Y-149131428D01*
X93644571Y-148988571D01*
X93644571Y-148702857D01*
X93716000Y-148560000D01*
X93858857Y-148488571D01*
X94001714Y-148488571D01*
X94144571Y-149202857D01*
X93144571Y-146917143D02*
X93144571Y-146060000D01*
X94644571Y-146488571D02*
X93144571Y-146488571D01*
X94573143Y-144988572D02*
X94644571Y-145131429D01*
X94644571Y-145417143D01*
X94573143Y-145560000D01*
X94430286Y-145631429D01*
X93858857Y-145631429D01*
X93716000Y-145560000D01*
X93644571Y-145417143D01*
X93644571Y-145131429D01*
X93716000Y-144988572D01*
X93858857Y-144917143D01*
X94001714Y-144917143D01*
X94144571Y-145631429D01*
X94644571Y-144274286D02*
X93644571Y-144274286D01*
X93787429Y-144274286D02*
X93716000Y-144202858D01*
X93644571Y-144060000D01*
X93644571Y-143845715D01*
X93716000Y-143702858D01*
X93858857Y-143631429D01*
X94644571Y-143631429D01*
X93858857Y-143631429D02*
X93716000Y-143560000D01*
X93644571Y-143417143D01*
X93644571Y-143202858D01*
X93716000Y-143060000D01*
X93858857Y-142988572D01*
X94644571Y-142988572D01*
X93644571Y-142274286D02*
X95144571Y-142274286D01*
X93716000Y-142274286D02*
X93644571Y-142131429D01*
X93644571Y-141845715D01*
X93716000Y-141702858D01*
X93787429Y-141631429D01*
X93930286Y-141560000D01*
X94358857Y-141560000D01*
X94501714Y-141631429D01*
X94573143Y-141702858D01*
X94644571Y-141845715D01*
X94644571Y-142131429D01*
X94573143Y-142274286D01*
X94573143Y-140345715D02*
X94644571Y-140488572D01*
X94644571Y-140774286D01*
X94573143Y-140917143D01*
X94430286Y-140988572D01*
X93858857Y-140988572D01*
X93716000Y-140917143D01*
X93644571Y-140774286D01*
X93644571Y-140488572D01*
X93716000Y-140345715D01*
X93858857Y-140274286D01*
X94001714Y-140274286D01*
X94144571Y-140988572D01*
X94644571Y-139631429D02*
X93644571Y-139631429D01*
X93930286Y-139631429D02*
X93787429Y-139560001D01*
X93716000Y-139488572D01*
X93644571Y-139345715D01*
X93644571Y-139202858D01*
X94644571Y-138060001D02*
X93858857Y-138060001D01*
X93716000Y-138131430D01*
X93644571Y-138274287D01*
X93644571Y-138560001D01*
X93716000Y-138702858D01*
X94573143Y-138060001D02*
X94644571Y-138202858D01*
X94644571Y-138560001D01*
X94573143Y-138702858D01*
X94430286Y-138774287D01*
X94287429Y-138774287D01*
X94144571Y-138702858D01*
X94073143Y-138560001D01*
X94073143Y-138202858D01*
X94001714Y-138060001D01*
X93644571Y-137560001D02*
X93644571Y-136988572D01*
X93144571Y-137345715D02*
X94430286Y-137345715D01*
X94573143Y-137274287D01*
X94644571Y-137131429D01*
X94644571Y-136988572D01*
X93644571Y-135845715D02*
X94644571Y-135845715D01*
X93644571Y-136488572D02*
X94430286Y-136488572D01*
X94573143Y-136417144D01*
X94644571Y-136274286D01*
X94644571Y-136060001D01*
X94573143Y-135917144D01*
X94501714Y-135845715D01*
X94644571Y-135131429D02*
X93644571Y-135131429D01*
X93930286Y-135131429D02*
X93787429Y-135060001D01*
X93716000Y-134988572D01*
X93644571Y-134845715D01*
X93644571Y-134702858D01*
X94573143Y-133631430D02*
X94644571Y-133774287D01*
X94644571Y-134060001D01*
X94573143Y-134202858D01*
X94430286Y-134274287D01*
X93858857Y-134274287D01*
X93716000Y-134202858D01*
X93644571Y-134060001D01*
X93644571Y-133774287D01*
X93716000Y-133631430D01*
X93858857Y-133560001D01*
X94001714Y-133560001D01*
X94144571Y-134274287D01*
X94501714Y-130917144D02*
X94573143Y-130988573D01*
X94644571Y-131202859D01*
X94644571Y-131345716D01*
X94573143Y-131560001D01*
X94430286Y-131702859D01*
X94287429Y-131774287D01*
X94001714Y-131845716D01*
X93787429Y-131845716D01*
X93501714Y-131774287D01*
X93358857Y-131702859D01*
X93216000Y-131560001D01*
X93144571Y-131345716D01*
X93144571Y-131202859D01*
X93216000Y-130988573D01*
X93287429Y-130917144D01*
X94644571Y-130060001D02*
X94573143Y-130202859D01*
X94501714Y-130274287D01*
X94358857Y-130345716D01*
X93930286Y-130345716D01*
X93787429Y-130274287D01*
X93716000Y-130202859D01*
X93644571Y-130060001D01*
X93644571Y-129845716D01*
X93716000Y-129702859D01*
X93787429Y-129631430D01*
X93930286Y-129560001D01*
X94358857Y-129560001D01*
X94501714Y-129631430D01*
X94573143Y-129702859D01*
X94644571Y-129845716D01*
X94644571Y-130060001D01*
X93644571Y-128917144D02*
X94644571Y-128917144D01*
X93787429Y-128917144D02*
X93716000Y-128845716D01*
X93644571Y-128702858D01*
X93644571Y-128488573D01*
X93716000Y-128345716D01*
X93858857Y-128274287D01*
X94644571Y-128274287D01*
X93644571Y-127774287D02*
X93644571Y-127202858D01*
X93144571Y-127560001D02*
X94430286Y-127560001D01*
X94573143Y-127488573D01*
X94644571Y-127345715D01*
X94644571Y-127202858D01*
X94644571Y-126702858D02*
X93644571Y-126702858D01*
X93930286Y-126702858D02*
X93787429Y-126631430D01*
X93716000Y-126560001D01*
X93644571Y-126417144D01*
X93644571Y-126274287D01*
X94644571Y-125560001D02*
X94573143Y-125702859D01*
X94501714Y-125774287D01*
X94358857Y-125845716D01*
X93930286Y-125845716D01*
X93787429Y-125774287D01*
X93716000Y-125702859D01*
X93644571Y-125560001D01*
X93644571Y-125345716D01*
X93716000Y-125202859D01*
X93787429Y-125131430D01*
X93930286Y-125060001D01*
X94358857Y-125060001D01*
X94501714Y-125131430D01*
X94573143Y-125202859D01*
X94644571Y-125345716D01*
X94644571Y-125560001D01*
X94644571Y-124202858D02*
X94573143Y-124345716D01*
X94430286Y-124417144D01*
X93144571Y-124417144D01*
X94644571Y-123417144D02*
X94573143Y-123560002D01*
X94430286Y-123631430D01*
X93144571Y-123631430D01*
X94573143Y-122274288D02*
X94644571Y-122417145D01*
X94644571Y-122702859D01*
X94573143Y-122845716D01*
X94430286Y-122917145D01*
X93858857Y-122917145D01*
X93716000Y-122845716D01*
X93644571Y-122702859D01*
X93644571Y-122417145D01*
X93716000Y-122274288D01*
X93858857Y-122202859D01*
X94001714Y-122202859D01*
X94144571Y-122917145D01*
X94644571Y-121560002D02*
X93644571Y-121560002D01*
X93930286Y-121560002D02*
X93787429Y-121488574D01*
X93716000Y-121417145D01*
X93644571Y-121274288D01*
X93644571Y-121131431D01*
X93644571Y-119631431D02*
X94644571Y-119274288D01*
X93644571Y-118917146D01*
X94644571Y-117560003D02*
X94644571Y-118417146D01*
X94644571Y-117988574D02*
X93144571Y-117988574D01*
X93358857Y-118131431D01*
X93501714Y-118274289D01*
X93573143Y-118417146D01*
X94501714Y-116917146D02*
X94573143Y-116845718D01*
X94644571Y-116917146D01*
X94573143Y-116988575D01*
X94501714Y-116917146D01*
X94644571Y-116917146D01*
X93144571Y-115917146D02*
X93144571Y-115774289D01*
X93216000Y-115631432D01*
X93287429Y-115560003D01*
X93430286Y-115488574D01*
X93716000Y-115417146D01*
X94073143Y-115417146D01*
X94358857Y-115488574D01*
X94501714Y-115560003D01*
X94573143Y-115631432D01*
X94644571Y-115774289D01*
X94644571Y-115917146D01*
X94573143Y-116060003D01*
X94501714Y-116131432D01*
X94358857Y-116202860D01*
X94073143Y-116274289D01*
X93716000Y-116274289D01*
X93430286Y-116202860D01*
X93287429Y-116131432D01*
X93216000Y-116060003D01*
X93144571Y-115917146D01*
X96944571Y-162202857D02*
X95444571Y-162202857D01*
X96944571Y-161560000D02*
X96158857Y-161560000D01*
X96016000Y-161631429D01*
X95944571Y-161774286D01*
X95944571Y-161988571D01*
X96016000Y-162131429D01*
X96087429Y-162202857D01*
X95944571Y-161060000D02*
X95944571Y-160488571D01*
X95444571Y-160845714D02*
X96730286Y-160845714D01*
X96873143Y-160774286D01*
X96944571Y-160631428D01*
X96944571Y-160488571D01*
X95944571Y-160202857D02*
X95944571Y-159631428D01*
X95444571Y-159988571D02*
X96730286Y-159988571D01*
X96873143Y-159917143D01*
X96944571Y-159774285D01*
X96944571Y-159631428D01*
X95944571Y-159131428D02*
X97444571Y-159131428D01*
X96016000Y-159131428D02*
X95944571Y-158988571D01*
X95944571Y-158702857D01*
X96016000Y-158560000D01*
X96087429Y-158488571D01*
X96230286Y-158417142D01*
X96658857Y-158417142D01*
X96801714Y-158488571D01*
X96873143Y-158560000D01*
X96944571Y-158702857D01*
X96944571Y-158988571D01*
X96873143Y-159131428D01*
X96801714Y-157774285D02*
X96873143Y-157702857D01*
X96944571Y-157774285D01*
X96873143Y-157845714D01*
X96801714Y-157774285D01*
X96944571Y-157774285D01*
X96016000Y-157774285D02*
X96087429Y-157702857D01*
X96158857Y-157774285D01*
X96087429Y-157845714D01*
X96016000Y-157774285D01*
X96158857Y-157774285D01*
X95373143Y-155988571D02*
X97301714Y-157274285D01*
X95373143Y-154417142D02*
X97301714Y-155702856D01*
X95944571Y-154131427D02*
X95944571Y-153559998D01*
X95444571Y-153917141D02*
X96730286Y-153917141D01*
X96873143Y-153845713D01*
X96944571Y-153702855D01*
X96944571Y-153559998D01*
X96873143Y-152488570D02*
X96944571Y-152631427D01*
X96944571Y-152917141D01*
X96873143Y-153059998D01*
X96730286Y-153131427D01*
X96158857Y-153131427D01*
X96016000Y-153059998D01*
X95944571Y-152917141D01*
X95944571Y-152631427D01*
X96016000Y-152488570D01*
X96158857Y-152417141D01*
X96301714Y-152417141D01*
X96444571Y-153131427D01*
X96873143Y-151131427D02*
X96944571Y-151274284D01*
X96944571Y-151559998D01*
X96873143Y-151702856D01*
X96801714Y-151774284D01*
X96658857Y-151845713D01*
X96230286Y-151845713D01*
X96087429Y-151774284D01*
X96016000Y-151702856D01*
X95944571Y-151559998D01*
X95944571Y-151274284D01*
X96016000Y-151131427D01*
X96944571Y-150488570D02*
X95444571Y-150488570D01*
X96944571Y-149845713D02*
X96158857Y-149845713D01*
X96016000Y-149917142D01*
X95944571Y-150059999D01*
X95944571Y-150274284D01*
X96016000Y-150417142D01*
X96087429Y-150488570D01*
X95944571Y-149131427D02*
X96944571Y-149131427D01*
X96087429Y-149131427D02*
X96016000Y-149059999D01*
X95944571Y-148917141D01*
X95944571Y-148702856D01*
X96016000Y-148559999D01*
X96158857Y-148488570D01*
X96944571Y-148488570D01*
X96944571Y-147131427D02*
X96158857Y-147131427D01*
X96016000Y-147202856D01*
X95944571Y-147345713D01*
X95944571Y-147631427D01*
X96016000Y-147774284D01*
X96873143Y-147131427D02*
X96944571Y-147274284D01*
X96944571Y-147631427D01*
X96873143Y-147774284D01*
X96730286Y-147845713D01*
X96587429Y-147845713D01*
X96444571Y-147774284D01*
X96373143Y-147631427D01*
X96373143Y-147274284D01*
X96301714Y-147131427D01*
X96944571Y-146417141D02*
X95944571Y-146417141D01*
X96230286Y-146417141D02*
X96087429Y-146345713D01*
X96016000Y-146274284D01*
X95944571Y-146131427D01*
X95944571Y-145988570D01*
X96944571Y-145488570D02*
X95944571Y-145488570D01*
X95444571Y-145488570D02*
X95516000Y-145559999D01*
X95587429Y-145488570D01*
X95516000Y-145417142D01*
X95444571Y-145488570D01*
X95587429Y-145488570D01*
X95944571Y-144131427D02*
X96944571Y-144131427D01*
X95944571Y-144774284D02*
X96730286Y-144774284D01*
X96873143Y-144702856D01*
X96944571Y-144559998D01*
X96944571Y-144345713D01*
X96873143Y-144202856D01*
X96801714Y-144131427D01*
X96944571Y-143417141D02*
X95944571Y-143417141D01*
X96087429Y-143417141D02*
X96016000Y-143345713D01*
X95944571Y-143202855D01*
X95944571Y-142988570D01*
X96016000Y-142845713D01*
X96158857Y-142774284D01*
X96944571Y-142774284D01*
X96158857Y-142774284D02*
X96016000Y-142702855D01*
X95944571Y-142559998D01*
X95944571Y-142345713D01*
X96016000Y-142202855D01*
X96158857Y-142131427D01*
X96944571Y-142131427D01*
X96944571Y-140774284D02*
X96158857Y-140774284D01*
X96016000Y-140845713D01*
X95944571Y-140988570D01*
X95944571Y-141274284D01*
X96016000Y-141417141D01*
X96873143Y-140774284D02*
X96944571Y-140917141D01*
X96944571Y-141274284D01*
X96873143Y-141417141D01*
X96730286Y-141488570D01*
X96587429Y-141488570D01*
X96444571Y-141417141D01*
X96373143Y-141274284D01*
X96373143Y-140917141D01*
X96301714Y-140774284D01*
X96873143Y-140131427D02*
X96944571Y-139988570D01*
X96944571Y-139702855D01*
X96873143Y-139559998D01*
X96730286Y-139488570D01*
X96658857Y-139488570D01*
X96516000Y-139559998D01*
X96444571Y-139702855D01*
X96444571Y-139917141D01*
X96373143Y-140059998D01*
X96230286Y-140131427D01*
X96158857Y-140131427D01*
X96016000Y-140059998D01*
X95944571Y-139917141D01*
X95944571Y-139702855D01*
X96016000Y-139559998D01*
X96801714Y-138845712D02*
X96873143Y-138774284D01*
X96944571Y-138845712D01*
X96873143Y-138917141D01*
X96801714Y-138845712D01*
X96944571Y-138845712D01*
X96944571Y-137917140D02*
X96873143Y-138059998D01*
X96730286Y-138131426D01*
X95444571Y-138131426D01*
X95944571Y-137559998D02*
X95944571Y-136988569D01*
X95444571Y-137345712D02*
X96730286Y-137345712D01*
X96873143Y-137274284D01*
X96944571Y-137131426D01*
X96944571Y-136988569D01*
X96944571Y-135345712D02*
X95444571Y-135345712D01*
X96944571Y-134702855D02*
X96158857Y-134702855D01*
X96016000Y-134774284D01*
X95944571Y-134917141D01*
X95944571Y-135131426D01*
X96016000Y-135274284D01*
X96087429Y-135345712D01*
X95944571Y-134202855D02*
X95944571Y-133631426D01*
X95444571Y-133988569D02*
X96730286Y-133988569D01*
X96873143Y-133917141D01*
X96944571Y-133774283D01*
X96944571Y-133631426D01*
X95944571Y-133345712D02*
X95944571Y-132774283D01*
X95444571Y-133131426D02*
X96730286Y-133131426D01*
X96873143Y-133059998D01*
X96944571Y-132917140D01*
X96944571Y-132774283D01*
X95944571Y-132274283D02*
X97444571Y-132274283D01*
X96016000Y-132274283D02*
X95944571Y-132131426D01*
X95944571Y-131845712D01*
X96016000Y-131702855D01*
X96087429Y-131631426D01*
X96230286Y-131559997D01*
X96658857Y-131559997D01*
X96801714Y-131631426D01*
X96873143Y-131702855D01*
X96944571Y-131845712D01*
X96944571Y-132131426D01*
X96873143Y-132274283D01*
X96801714Y-130917140D02*
X96873143Y-130845712D01*
X96944571Y-130917140D01*
X96873143Y-130988569D01*
X96801714Y-130917140D01*
X96944571Y-130917140D01*
X96016000Y-130917140D02*
X96087429Y-130845712D01*
X96158857Y-130917140D01*
X96087429Y-130988569D01*
X96016000Y-130917140D01*
X96158857Y-130917140D01*
X95373143Y-129131426D02*
X97301714Y-130417140D01*
X95373143Y-127559997D02*
X97301714Y-128845711D01*
X95944571Y-127202853D02*
X96944571Y-126917139D01*
X96230286Y-126631425D01*
X96944571Y-126345710D01*
X95944571Y-126059996D01*
X96873143Y-124917139D02*
X96944571Y-125059996D01*
X96944571Y-125345710D01*
X96873143Y-125488567D01*
X96730286Y-125559996D01*
X96158857Y-125559996D01*
X96016000Y-125488567D01*
X95944571Y-125345710D01*
X95944571Y-125059996D01*
X96016000Y-124917139D01*
X96158857Y-124845710D01*
X96301714Y-124845710D01*
X96444571Y-125559996D01*
X96944571Y-124202853D02*
X95944571Y-124202853D01*
X96087429Y-124202853D02*
X96016000Y-124131425D01*
X95944571Y-123988567D01*
X95944571Y-123774282D01*
X96016000Y-123631425D01*
X96158857Y-123559996D01*
X96944571Y-123559996D01*
X96158857Y-123559996D02*
X96016000Y-123488567D01*
X95944571Y-123345710D01*
X95944571Y-123131425D01*
X96016000Y-122988567D01*
X96158857Y-122917139D01*
X96944571Y-122917139D01*
X96944571Y-121559996D02*
X96158857Y-121559996D01*
X96016000Y-121631425D01*
X95944571Y-121774282D01*
X95944571Y-122059996D01*
X96016000Y-122202853D01*
X96873143Y-121559996D02*
X96944571Y-121702853D01*
X96944571Y-122059996D01*
X96873143Y-122202853D01*
X96730286Y-122274282D01*
X96587429Y-122274282D01*
X96444571Y-122202853D01*
X96373143Y-122059996D01*
X96373143Y-121702853D01*
X96301714Y-121559996D01*
X96944571Y-120845710D02*
X95444571Y-120845710D01*
X96373143Y-120702853D02*
X96944571Y-120274282D01*
X95944571Y-120274282D02*
X96516000Y-120845710D01*
X96873143Y-119059996D02*
X96944571Y-119202853D01*
X96944571Y-119488567D01*
X96873143Y-119631424D01*
X96730286Y-119702853D01*
X96158857Y-119702853D01*
X96016000Y-119631424D01*
X95944571Y-119488567D01*
X95944571Y-119202853D01*
X96016000Y-119059996D01*
X96158857Y-118988567D01*
X96301714Y-118988567D01*
X96444571Y-119702853D01*
X95944571Y-118559996D02*
X95944571Y-117988567D01*
X95444571Y-118345710D02*
X96730286Y-118345710D01*
X96873143Y-118274282D01*
X96944571Y-118131424D01*
X96944571Y-117988567D01*
X96944571Y-117488567D02*
X95444571Y-117488567D01*
X96944571Y-116845710D02*
X96158857Y-116845710D01*
X96016000Y-116917139D01*
X95944571Y-117059996D01*
X95944571Y-117274281D01*
X96016000Y-117417139D01*
X96087429Y-117488567D01*
X96944571Y-116131424D02*
X95944571Y-116131424D01*
X95444571Y-116131424D02*
X95516000Y-116202853D01*
X95587429Y-116131424D01*
X95516000Y-116059996D01*
X95444571Y-116131424D01*
X95587429Y-116131424D01*
X95944571Y-115417138D02*
X96944571Y-115417138D01*
X96087429Y-115417138D02*
X96016000Y-115345710D01*
X95944571Y-115202852D01*
X95944571Y-114988567D01*
X96016000Y-114845710D01*
X96158857Y-114774281D01*
X96944571Y-114774281D01*
X95944571Y-113417138D02*
X97158857Y-113417138D01*
X97301714Y-113488567D01*
X97373143Y-113559995D01*
X97444571Y-113702852D01*
X97444571Y-113917138D01*
X97373143Y-114059995D01*
X96873143Y-113417138D02*
X96944571Y-113559995D01*
X96944571Y-113845709D01*
X96873143Y-113988567D01*
X96801714Y-114059995D01*
X96658857Y-114131424D01*
X96230286Y-114131424D01*
X96087429Y-114059995D01*
X96016000Y-113988567D01*
X95944571Y-113845709D01*
X95944571Y-113559995D01*
X96016000Y-113417138D01*
X96873143Y-112774281D02*
X96944571Y-112631424D01*
X96944571Y-112345709D01*
X96873143Y-112202852D01*
X96730286Y-112131424D01*
X96658857Y-112131424D01*
X96516000Y-112202852D01*
X96444571Y-112345709D01*
X96444571Y-112559995D01*
X96373143Y-112702852D01*
X96230286Y-112774281D01*
X96158857Y-112774281D01*
X96016000Y-112702852D01*
X95944571Y-112559995D01*
X95944571Y-112345709D01*
X96016000Y-112202852D01*
X96801714Y-111488566D02*
X96873143Y-111417138D01*
X96944571Y-111488566D01*
X96873143Y-111559995D01*
X96801714Y-111488566D01*
X96944571Y-111488566D01*
X95944571Y-110774280D02*
X96944571Y-110774280D01*
X96087429Y-110774280D02*
X96016000Y-110702852D01*
X95944571Y-110559994D01*
X95944571Y-110345709D01*
X96016000Y-110202852D01*
X96158857Y-110131423D01*
X96944571Y-110131423D01*
X96873143Y-108845709D02*
X96944571Y-108988566D01*
X96944571Y-109274280D01*
X96873143Y-109417137D01*
X96730286Y-109488566D01*
X96158857Y-109488566D01*
X96016000Y-109417137D01*
X95944571Y-109274280D01*
X95944571Y-108988566D01*
X96016000Y-108845709D01*
X96158857Y-108774280D01*
X96301714Y-108774280D01*
X96444571Y-109488566D01*
X95944571Y-108345709D02*
X95944571Y-107774280D01*
X95444571Y-108131423D02*
X96730286Y-108131423D01*
X96873143Y-108059995D01*
X96944571Y-107917137D01*
X96944571Y-107774280D01*
X97887429Y-162274286D02*
X97816000Y-162202857D01*
X97744571Y-162060000D01*
X97744571Y-161702857D01*
X97816000Y-161560000D01*
X97887429Y-161488571D01*
X98030286Y-161417143D01*
X98173143Y-161417143D01*
X98387429Y-161488571D01*
X99244571Y-162345714D01*
X99244571Y-161417143D01*
X97744571Y-160488572D02*
X97744571Y-160345715D01*
X97816000Y-160202858D01*
X97887429Y-160131429D01*
X98030286Y-160060000D01*
X98316000Y-159988572D01*
X98673143Y-159988572D01*
X98958857Y-160060000D01*
X99101714Y-160131429D01*
X99173143Y-160202858D01*
X99244571Y-160345715D01*
X99244571Y-160488572D01*
X99173143Y-160631429D01*
X99101714Y-160702858D01*
X98958857Y-160774286D01*
X98673143Y-160845715D01*
X98316000Y-160845715D01*
X98030286Y-160774286D01*
X97887429Y-160702858D01*
X97816000Y-160631429D01*
X97744571Y-160488572D01*
X99244571Y-158560001D02*
X99244571Y-159417144D01*
X99244571Y-158988572D02*
X97744571Y-158988572D01*
X97958857Y-159131429D01*
X98101714Y-159274287D01*
X98173143Y-159417144D01*
X97744571Y-157202858D02*
X97744571Y-157917144D01*
X98458857Y-157988573D01*
X98387429Y-157917144D01*
X98316000Y-157774287D01*
X98316000Y-157417144D01*
X98387429Y-157274287D01*
X98458857Y-157202858D01*
X98601714Y-157131430D01*
X98958857Y-157131430D01*
X99101714Y-157202858D01*
X99173143Y-157274287D01*
X99244571Y-157417144D01*
X99244571Y-157774287D01*
X99173143Y-157917144D01*
X99101714Y-157988573D01*
X98816000Y-155417145D02*
X98816000Y-154702859D01*
X99244571Y-155560002D02*
X97744571Y-155060002D01*
X99244571Y-154560002D01*
X99244571Y-153845716D02*
X99173143Y-153988574D01*
X99030286Y-154060002D01*
X97744571Y-154060002D01*
X99244571Y-153274288D02*
X97744571Y-153274288D01*
X98316000Y-153274288D02*
X98244571Y-153131431D01*
X98244571Y-152845717D01*
X98316000Y-152702860D01*
X98387429Y-152631431D01*
X98530286Y-152560002D01*
X98958857Y-152560002D01*
X99101714Y-152631431D01*
X99173143Y-152702860D01*
X99244571Y-152845717D01*
X99244571Y-153131431D01*
X99173143Y-153274288D01*
X99173143Y-151345717D02*
X99244571Y-151488574D01*
X99244571Y-151774288D01*
X99173143Y-151917145D01*
X99030286Y-151988574D01*
X98458857Y-151988574D01*
X98316000Y-151917145D01*
X98244571Y-151774288D01*
X98244571Y-151488574D01*
X98316000Y-151345717D01*
X98458857Y-151274288D01*
X98601714Y-151274288D01*
X98744571Y-151988574D01*
X99244571Y-150631431D02*
X98244571Y-150631431D01*
X98530286Y-150631431D02*
X98387429Y-150560003D01*
X98316000Y-150488574D01*
X98244571Y-150345717D01*
X98244571Y-150202860D01*
X98244571Y-149917146D02*
X98244571Y-149345717D01*
X97744571Y-149702860D02*
X99030286Y-149702860D01*
X99173143Y-149631432D01*
X99244571Y-149488574D01*
X99244571Y-149345717D01*
X99244571Y-148202860D02*
X98458857Y-148202860D01*
X98316000Y-148274289D01*
X98244571Y-148417146D01*
X98244571Y-148702860D01*
X98316000Y-148845717D01*
X99173143Y-148202860D02*
X99244571Y-148345717D01*
X99244571Y-148702860D01*
X99173143Y-148845717D01*
X99030286Y-148917146D01*
X98887429Y-148917146D01*
X98744571Y-148845717D01*
X98673143Y-148702860D01*
X98673143Y-148345717D01*
X98601714Y-148202860D01*
X99173143Y-147560003D02*
X99244571Y-147417146D01*
X99244571Y-147131431D01*
X99173143Y-146988574D01*
X99030286Y-146917146D01*
X98958857Y-146917146D01*
X98816000Y-146988574D01*
X98744571Y-147131431D01*
X98744571Y-147345717D01*
X98673143Y-147488574D01*
X98530286Y-147560003D01*
X98458857Y-147560003D01*
X98316000Y-147488574D01*
X98244571Y-147345717D01*
X98244571Y-147131431D01*
X98316000Y-146988574D01*
X99244571Y-145131431D02*
X97744571Y-145131431D01*
X98816000Y-144631431D01*
X97744571Y-144131431D01*
X99244571Y-144131431D01*
X99244571Y-143417145D02*
X98244571Y-143417145D01*
X97744571Y-143417145D02*
X97816000Y-143488574D01*
X97887429Y-143417145D01*
X97816000Y-143345717D01*
X97744571Y-143417145D01*
X97887429Y-143417145D01*
X99173143Y-142060002D02*
X99244571Y-142202859D01*
X99244571Y-142488573D01*
X99173143Y-142631431D01*
X99101714Y-142702859D01*
X98958857Y-142774288D01*
X98530286Y-142774288D01*
X98387429Y-142702859D01*
X98316000Y-142631431D01*
X98244571Y-142488573D01*
X98244571Y-142202859D01*
X98316000Y-142060002D01*
X99244571Y-141417145D02*
X97744571Y-141417145D01*
X98673143Y-141274288D02*
X99244571Y-140845717D01*
X98244571Y-140845717D02*
X98816000Y-141417145D01*
X99173143Y-139631431D02*
X99244571Y-139774288D01*
X99244571Y-140060002D01*
X99173143Y-140202859D01*
X99030286Y-140274288D01*
X98458857Y-140274288D01*
X98316000Y-140202859D01*
X98244571Y-140060002D01*
X98244571Y-139774288D01*
X98316000Y-139631431D01*
X98458857Y-139560002D01*
X98601714Y-139560002D01*
X98744571Y-140274288D01*
X97744571Y-139917145D02*
X97816000Y-139988573D01*
X97887429Y-139917145D01*
X97816000Y-139845716D01*
X97744571Y-139917145D01*
X97887429Y-139917145D01*
X98244571Y-138917145D02*
X99244571Y-138917145D01*
X98387429Y-138917145D02*
X98316000Y-138845717D01*
X98244571Y-138702859D01*
X98244571Y-138488574D01*
X98316000Y-138345717D01*
X98458857Y-138274288D01*
X99244571Y-138274288D01*
X99244571Y-136917145D02*
X98458857Y-136917145D01*
X98316000Y-136988574D01*
X98244571Y-137131431D01*
X98244571Y-137417145D01*
X98316000Y-137560002D01*
X99173143Y-136917145D02*
X99244571Y-137060002D01*
X99244571Y-137417145D01*
X99173143Y-137560002D01*
X99030286Y-137631431D01*
X98887429Y-137631431D01*
X98744571Y-137560002D01*
X98673143Y-137417145D01*
X98673143Y-137060002D01*
X98601714Y-136917145D01*
X99173143Y-136274288D02*
X99244571Y-136131431D01*
X99244571Y-135845716D01*
X99173143Y-135702859D01*
X99030286Y-135631431D01*
X98958857Y-135631431D01*
X98816000Y-135702859D01*
X98744571Y-135845716D01*
X98744571Y-136060002D01*
X98673143Y-136202859D01*
X98530286Y-136274288D01*
X98458857Y-136274288D01*
X98316000Y-136202859D01*
X98244571Y-136060002D01*
X98244571Y-135845716D01*
X98316000Y-135702859D01*
X99244571Y-133845716D02*
X98244571Y-133845716D01*
X98387429Y-133845716D02*
X98316000Y-133774288D01*
X98244571Y-133631430D01*
X98244571Y-133417145D01*
X98316000Y-133274288D01*
X98458857Y-133202859D01*
X99244571Y-133202859D01*
X98458857Y-133202859D02*
X98316000Y-133131430D01*
X98244571Y-132988573D01*
X98244571Y-132774288D01*
X98316000Y-132631430D01*
X98458857Y-132560002D01*
X99244571Y-132560002D01*
X99244571Y-131845716D02*
X98244571Y-131845716D01*
X97744571Y-131845716D02*
X97816000Y-131917145D01*
X97887429Y-131845716D01*
X97816000Y-131774288D01*
X97744571Y-131845716D01*
X97887429Y-131845716D01*
X99173143Y-130488573D02*
X99244571Y-130631430D01*
X99244571Y-130917144D01*
X99173143Y-131060002D01*
X99101714Y-131131430D01*
X98958857Y-131202859D01*
X98530286Y-131202859D01*
X98387429Y-131131430D01*
X98316000Y-131060002D01*
X98244571Y-130917144D01*
X98244571Y-130631430D01*
X98316000Y-130488573D01*
X98530286Y-128917145D02*
X98458857Y-128988573D01*
X98387429Y-129131430D01*
X98387429Y-129274288D01*
X98458857Y-129417145D01*
X98530286Y-129488573D01*
X98673143Y-129560002D01*
X98816000Y-129560002D01*
X98958857Y-129488573D01*
X99030286Y-129417145D01*
X99101714Y-129274288D01*
X99101714Y-129131430D01*
X99030286Y-128988573D01*
X98958857Y-128917145D01*
X98387429Y-128917145D02*
X98958857Y-128917145D01*
X99030286Y-128845716D01*
X99030286Y-128774288D01*
X98958857Y-128631430D01*
X98816000Y-128560002D01*
X98458857Y-128560002D01*
X98244571Y-128702859D01*
X98101714Y-128917145D01*
X98030286Y-129202859D01*
X98101714Y-129488573D01*
X98244571Y-129702859D01*
X98458857Y-129845716D01*
X98744571Y-129917145D01*
X99030286Y-129845716D01*
X99244571Y-129702859D01*
X99387429Y-129488573D01*
X99458857Y-129202859D01*
X99387429Y-128917145D01*
X99244571Y-128702859D01*
X98244571Y-128060002D02*
X99244571Y-127774288D01*
X98530286Y-127488574D01*
X99244571Y-127202859D01*
X98244571Y-126917145D01*
X99173143Y-125774288D02*
X99244571Y-125917145D01*
X99244571Y-126202859D01*
X99173143Y-126345716D01*
X99030286Y-126417145D01*
X98458857Y-126417145D01*
X98316000Y-126345716D01*
X98244571Y-126202859D01*
X98244571Y-125917145D01*
X98316000Y-125774288D01*
X98458857Y-125702859D01*
X98601714Y-125702859D01*
X98744571Y-126417145D01*
X99244571Y-125060002D02*
X98244571Y-125060002D01*
X98387429Y-125060002D02*
X98316000Y-124988574D01*
X98244571Y-124845716D01*
X98244571Y-124631431D01*
X98316000Y-124488574D01*
X98458857Y-124417145D01*
X99244571Y-124417145D01*
X98458857Y-124417145D02*
X98316000Y-124345716D01*
X98244571Y-124202859D01*
X98244571Y-123988574D01*
X98316000Y-123845716D01*
X98458857Y-123774288D01*
X99244571Y-123774288D01*
X99244571Y-122417145D02*
X98458857Y-122417145D01*
X98316000Y-122488574D01*
X98244571Y-122631431D01*
X98244571Y-122917145D01*
X98316000Y-123060002D01*
X99173143Y-122417145D02*
X99244571Y-122560002D01*
X99244571Y-122917145D01*
X99173143Y-123060002D01*
X99030286Y-123131431D01*
X98887429Y-123131431D01*
X98744571Y-123060002D01*
X98673143Y-122917145D01*
X98673143Y-122560002D01*
X98601714Y-122417145D01*
X99244571Y-121702859D02*
X97744571Y-121702859D01*
X98673143Y-121560002D02*
X99244571Y-121131431D01*
X98244571Y-121131431D02*
X98816000Y-121702859D01*
X99173143Y-119917145D02*
X99244571Y-120060002D01*
X99244571Y-120345716D01*
X99173143Y-120488573D01*
X99030286Y-120560002D01*
X98458857Y-120560002D01*
X98316000Y-120488573D01*
X98244571Y-120345716D01*
X98244571Y-120060002D01*
X98316000Y-119917145D01*
X98458857Y-119845716D01*
X98601714Y-119845716D01*
X98744571Y-120560002D01*
X98244571Y-119417145D02*
X98244571Y-118845716D01*
X97744571Y-119202859D02*
X99030286Y-119202859D01*
X99173143Y-119131431D01*
X99244571Y-118988573D01*
X99244571Y-118845716D01*
X99244571Y-118345716D02*
X97744571Y-118345716D01*
X99244571Y-117702859D02*
X98458857Y-117702859D01*
X98316000Y-117774288D01*
X98244571Y-117917145D01*
X98244571Y-118131430D01*
X98316000Y-118274288D01*
X98387429Y-118345716D01*
X99244571Y-116988573D02*
X98244571Y-116988573D01*
X97744571Y-116988573D02*
X97816000Y-117060002D01*
X97887429Y-116988573D01*
X97816000Y-116917145D01*
X97744571Y-116988573D01*
X97887429Y-116988573D01*
X98244571Y-116274287D02*
X99244571Y-116274287D01*
X98387429Y-116274287D02*
X98316000Y-116202859D01*
X98244571Y-116060001D01*
X98244571Y-115845716D01*
X98316000Y-115702859D01*
X98458857Y-115631430D01*
X99244571Y-115631430D01*
X98244571Y-114274287D02*
X99458857Y-114274287D01*
X99601714Y-114345716D01*
X99673143Y-114417144D01*
X99744571Y-114560001D01*
X99744571Y-114774287D01*
X99673143Y-114917144D01*
X99173143Y-114274287D02*
X99244571Y-114417144D01*
X99244571Y-114702858D01*
X99173143Y-114845716D01*
X99101714Y-114917144D01*
X98958857Y-114988573D01*
X98530286Y-114988573D01*
X98387429Y-114917144D01*
X98316000Y-114845716D01*
X98244571Y-114702858D01*
X98244571Y-114417144D01*
X98316000Y-114274287D01*
X99173143Y-113631430D02*
X99244571Y-113488573D01*
X99244571Y-113202858D01*
X99173143Y-113060001D01*
X99030286Y-112988573D01*
X98958857Y-112988573D01*
X98816000Y-113060001D01*
X98744571Y-113202858D01*
X98744571Y-113417144D01*
X98673143Y-113560001D01*
X98530286Y-113631430D01*
X98458857Y-113631430D01*
X98316000Y-113560001D01*
X98244571Y-113417144D01*
X98244571Y-113202858D01*
X98316000Y-113060001D01*
X99101714Y-112345715D02*
X99173143Y-112274287D01*
X99244571Y-112345715D01*
X99173143Y-112417144D01*
X99101714Y-112345715D01*
X99244571Y-112345715D01*
X98244571Y-111631429D02*
X99244571Y-111631429D01*
X98387429Y-111631429D02*
X98316000Y-111560001D01*
X98244571Y-111417143D01*
X98244571Y-111202858D01*
X98316000Y-111060001D01*
X98458857Y-110988572D01*
X99244571Y-110988572D01*
X99173143Y-109702858D02*
X99244571Y-109845715D01*
X99244571Y-110131429D01*
X99173143Y-110274286D01*
X99030286Y-110345715D01*
X98458857Y-110345715D01*
X98316000Y-110274286D01*
X98244571Y-110131429D01*
X98244571Y-109845715D01*
X98316000Y-109702858D01*
X98458857Y-109631429D01*
X98601714Y-109631429D01*
X98744571Y-110345715D01*
X98244571Y-109202858D02*
X98244571Y-108631429D01*
X97744571Y-108988572D02*
X99030286Y-108988572D01*
X99173143Y-108917144D01*
X99244571Y-108774286D01*
X99244571Y-108631429D01*
D13*
X157281714Y-187876571D02*
X157281714Y-186376571D01*
X158138857Y-187876571D01*
X158138857Y-186376571D01*
X159138857Y-186376571D02*
X159424571Y-186376571D01*
X159567429Y-186448000D01*
X159710286Y-186590857D01*
X159781714Y-186876571D01*
X159781714Y-187376571D01*
X159710286Y-187662286D01*
X159567429Y-187805143D01*
X159424571Y-187876571D01*
X159138857Y-187876571D01*
X158996000Y-187805143D01*
X158853143Y-187662286D01*
X158781714Y-187376571D01*
X158781714Y-186876571D01*
X158853143Y-186590857D01*
X158996000Y-186448000D01*
X159138857Y-186376571D01*
X152237429Y-187733714D02*
X152166000Y-187805143D01*
X151951714Y-187876571D01*
X151808857Y-187876571D01*
X151594572Y-187805143D01*
X151451714Y-187662286D01*
X151380286Y-187519429D01*
X151308857Y-187233714D01*
X151308857Y-187019429D01*
X151380286Y-186733714D01*
X151451714Y-186590857D01*
X151594572Y-186448000D01*
X151808857Y-186376571D01*
X151951714Y-186376571D01*
X152166000Y-186448000D01*
X152237429Y-186519429D01*
X153166000Y-186376571D02*
X153451714Y-186376571D01*
X153594572Y-186448000D01*
X153737429Y-186590857D01*
X153808857Y-186876571D01*
X153808857Y-187376571D01*
X153737429Y-187662286D01*
X153594572Y-187805143D01*
X153451714Y-187876571D01*
X153166000Y-187876571D01*
X153023143Y-187805143D01*
X152880286Y-187662286D01*
X152808857Y-187376571D01*
X152808857Y-186876571D01*
X152880286Y-186590857D01*
X153023143Y-186448000D01*
X153166000Y-186376571D01*
X154451715Y-187876571D02*
X154451715Y-186376571D01*
X154951715Y-187448000D01*
X155451715Y-186376571D01*
X155451715Y-187876571D01*
X147157429Y-187876571D02*
X147157429Y-186376571D01*
X148014572Y-187876571D01*
X148014572Y-186376571D01*
X149586001Y-187733714D02*
X149514572Y-187805143D01*
X149300286Y-187876571D01*
X149157429Y-187876571D01*
X148943144Y-187805143D01*
X148800286Y-187662286D01*
X148728858Y-187519429D01*
X148657429Y-187233714D01*
X148657429Y-187019429D01*
X148728858Y-186733714D01*
X148800286Y-186590857D01*
X148943144Y-186448000D01*
X149157429Y-186376571D01*
X149300286Y-186376571D01*
X149514572Y-186448000D01*
X149586001Y-186519429D01*
X140295429Y-187876571D02*
X139438286Y-187876571D01*
X139866858Y-187876571D02*
X139866858Y-186376571D01*
X139724001Y-186590857D01*
X139581143Y-186733714D01*
X139438286Y-186805143D01*
X140866857Y-186519429D02*
X140938286Y-186448000D01*
X141081143Y-186376571D01*
X141438286Y-186376571D01*
X141581143Y-186448000D01*
X141652572Y-186519429D01*
X141724000Y-186662286D01*
X141724000Y-186805143D01*
X141652572Y-187019429D01*
X140795429Y-187876571D01*
X141724000Y-187876571D01*
X142152571Y-186376571D02*
X142652571Y-187876571D01*
X143152571Y-186376571D01*
X134711429Y-187876571D02*
X134711429Y-186376571D01*
X135068572Y-186376571D01*
X135282857Y-186448000D01*
X135425715Y-186590857D01*
X135497143Y-186733714D01*
X135568572Y-187019429D01*
X135568572Y-187233714D01*
X135497143Y-187519429D01*
X135425715Y-187662286D01*
X135282857Y-187805143D01*
X135068572Y-187876571D01*
X134711429Y-187876571D01*
X136497143Y-186376571D02*
X136782857Y-186376571D01*
X136925715Y-186448000D01*
X137068572Y-186590857D01*
X137140000Y-186876571D01*
X137140000Y-187376571D01*
X137068572Y-187662286D01*
X136925715Y-187805143D01*
X136782857Y-187876571D01*
X136497143Y-187876571D01*
X136354286Y-187805143D01*
X136211429Y-187662286D01*
X136140000Y-187376571D01*
X136140000Y-186876571D01*
X136211429Y-186590857D01*
X136354286Y-186448000D01*
X136497143Y-186376571D01*
X130135429Y-187876571D02*
X129278286Y-187876571D01*
X129706858Y-187876571D02*
X129706858Y-186376571D01*
X129564001Y-186590857D01*
X129421143Y-186733714D01*
X129278286Y-186805143D01*
X130706857Y-186519429D02*
X130778286Y-186448000D01*
X130921143Y-186376571D01*
X131278286Y-186376571D01*
X131421143Y-186448000D01*
X131492572Y-186519429D01*
X131564000Y-186662286D01*
X131564000Y-186805143D01*
X131492572Y-187019429D01*
X130635429Y-187876571D01*
X131564000Y-187876571D01*
X131992571Y-186376571D02*
X132492571Y-187876571D01*
X132992571Y-186376571D01*
X124841143Y-186448000D02*
X124698286Y-186376571D01*
X124484000Y-186376571D01*
X124269715Y-186448000D01*
X124126857Y-186590857D01*
X124055429Y-186733714D01*
X123984000Y-187019429D01*
X123984000Y-187233714D01*
X124055429Y-187519429D01*
X124126857Y-187662286D01*
X124269715Y-187805143D01*
X124484000Y-187876571D01*
X124626857Y-187876571D01*
X124841143Y-187805143D01*
X124912572Y-187733714D01*
X124912572Y-187233714D01*
X124626857Y-187233714D01*
X125555429Y-187876571D02*
X125555429Y-186376571D01*
X126412572Y-187876571D01*
X126412572Y-186376571D01*
X127126858Y-187876571D02*
X127126858Y-186376571D01*
X127484001Y-186376571D01*
X127698286Y-186448000D01*
X127841144Y-186590857D01*
X127912572Y-186733714D01*
X127984001Y-187019429D01*
X127984001Y-187233714D01*
X127912572Y-187519429D01*
X127841144Y-187662286D01*
X127698286Y-187805143D01*
X127484001Y-187876571D01*
X127126858Y-187876571D01*
X121265143Y-187090857D02*
X121479429Y-187162286D01*
X121550857Y-187233714D01*
X121622286Y-187376571D01*
X121622286Y-187590857D01*
X121550857Y-187733714D01*
X121479429Y-187805143D01*
X121336571Y-187876571D01*
X120765143Y-187876571D01*
X120765143Y-186376571D01*
X121265143Y-186376571D01*
X121408000Y-186448000D01*
X121479429Y-186519429D01*
X121550857Y-186662286D01*
X121550857Y-186805143D01*
X121479429Y-186948000D01*
X121408000Y-187019429D01*
X121265143Y-187090857D01*
X120765143Y-187090857D01*
X115212857Y-187448000D02*
X115927143Y-187448000D01*
X115070000Y-187876571D02*
X115570000Y-186376571D01*
X116070000Y-187876571D01*
X108890857Y-186376571D02*
X109748000Y-186376571D01*
X109319429Y-187876571D02*
X109319429Y-186376571D01*
X111105143Y-187733714D02*
X111033714Y-187805143D01*
X110819428Y-187876571D01*
X110676571Y-187876571D01*
X110462286Y-187805143D01*
X110319428Y-187662286D01*
X110248000Y-187519429D01*
X110176571Y-187233714D01*
X110176571Y-187019429D01*
X110248000Y-186733714D01*
X110319428Y-186590857D01*
X110462286Y-186448000D01*
X110676571Y-186376571D01*
X110819428Y-186376571D01*
X111033714Y-186448000D01*
X111105143Y-186519429D01*
X111748000Y-187305143D02*
X112890857Y-187305143D01*
X112319428Y-187876571D02*
X112319428Y-186733714D01*
X103302857Y-186376571D02*
X104160000Y-186376571D01*
X103731429Y-187876571D02*
X103731429Y-186376571D01*
X105517143Y-187733714D02*
X105445714Y-187805143D01*
X105231428Y-187876571D01*
X105088571Y-187876571D01*
X104874286Y-187805143D01*
X104731428Y-187662286D01*
X104660000Y-187519429D01*
X104588571Y-187233714D01*
X104588571Y-187019429D01*
X104660000Y-186733714D01*
X104731428Y-186590857D01*
X104874286Y-186448000D01*
X105088571Y-186376571D01*
X105231428Y-186376571D01*
X105445714Y-186448000D01*
X105517143Y-186519429D01*
X106160000Y-187305143D02*
X107302857Y-187305143D01*
D10*
X91000000Y-89000000D02*
X91000000Y-189000000D01*
X171000000Y-89000000D02*
X91000000Y-89000000D01*
X171000000Y-189000000D02*
X171000000Y-89000000D01*
X91000000Y-189000000D02*
X171000000Y-189000000D01*
D11*
X105950000Y-89050000D02*
X105950000Y-89850000D01*
X105950000Y-89850000D02*
G75*
G03X115950000Y-99850000I10000000J0D01*
G01*
X115950000Y-99850000D02*
G75*
G03X125950000Y-89850000I0J10000000D01*
G01*
X115950000Y-99850000D02*
X115450000Y-99850000D01*
X125950000Y-89050000D02*
X125950000Y-89850000D01*
X101700000Y-117850000D02*
X130200000Y-117850000D01*
X125950000Y-89050000D02*
X105450000Y-89050000D01*
X101700000Y-89050000D02*
X101700000Y-117850000D01*
X105450000Y-89050000D02*
X101700000Y-89050000D01*
X130200000Y-89050000D02*
X125950000Y-89050000D01*
X130200000Y-117850000D02*
X130200000Y-89050000D01*
X112436000Y-137483000D02*
X108036000Y-137483000D01*
X114011000Y-142933000D02*
X108036000Y-142933000D01*
D14*
X160925000Y-176448000D02*
X160925000Y-177464000D01*
X160925000Y-177464000D02*
X145685000Y-177464000D01*
X145685000Y-177464000D02*
X145685000Y-176448000D01*
X145685000Y-176448000D02*
X160925000Y-176448000D01*
X160925000Y-185592000D02*
X160925000Y-184830000D01*
X160925000Y-185592000D02*
X145685000Y-185592000D01*
X145685000Y-185592000D02*
X145685000Y-184830000D01*
X160925000Y-177210000D02*
X160925000Y-184830000D01*
X145685000Y-177210000D02*
X145685000Y-184830000D01*
D11*
X105375425Y-158689713D02*
X105375425Y-157789713D01*
X105375425Y-157789713D02*
X106175425Y-157789713D01*
X108375425Y-158689713D02*
X108375425Y-157789713D01*
X108375425Y-157789713D02*
X107575425Y-157789713D01*
X107175425Y-159189713D02*
X106575425Y-159189713D01*
X164305000Y-145809000D02*
X164305000Y-146709000D01*
X164305000Y-146709000D02*
X163505000Y-146709000D01*
X161305000Y-145809000D02*
X161305000Y-146709000D01*
X161305000Y-146709000D02*
X162105000Y-146709000D01*
X162505000Y-145309000D02*
X163105000Y-145309000D01*
X125095000Y-169672000D02*
X125095000Y-173736000D01*
X125095000Y-173736000D02*
X124968000Y-173355000D01*
X124968000Y-173355000D02*
X124968000Y-170053000D01*
X124968000Y-170053000D02*
X125095000Y-169672000D01*
X132589984Y-171704000D02*
G75*
G03X132589984Y-171704000I-4065984J0D01*
G01*
X125603000Y-170815000D02*
X125603000Y-169926000D01*
X124587000Y-170688000D02*
X124587000Y-172720000D01*
X124714000Y-172720000D02*
X124714000Y-170688000D01*
X124841000Y-173228000D02*
X124841000Y-170180000D01*
X146909158Y-124587318D02*
X146209158Y-124587318D01*
X146209158Y-123387318D02*
X146909158Y-123387318D01*
X130652000Y-162652000D02*
X129952000Y-162652000D01*
X129952000Y-161452000D02*
X130652000Y-161452000D01*
X160687158Y-124403318D02*
X161387158Y-124403318D01*
X161387158Y-125603318D02*
X160687158Y-125603318D01*
X146909158Y-123190318D02*
X146209158Y-123190318D01*
X146209158Y-121990318D02*
X146909158Y-121990318D01*
X160687158Y-122625318D02*
X161387158Y-122625318D01*
X161387158Y-123825318D02*
X160687158Y-123825318D01*
X126142000Y-161452000D02*
X126842000Y-161452000D01*
X126842000Y-162652000D02*
X126142000Y-162652000D01*
X127762000Y-159385000D02*
X127762000Y-160274000D01*
X128778000Y-159512000D02*
X128778000Y-157480000D01*
X128778000Y-157480000D02*
X128651000Y-157480000D01*
X128651000Y-157480000D02*
X128651000Y-159512000D01*
X128524000Y-156972000D02*
X128524000Y-160020000D01*
X129032000Y-158496000D02*
G75*
G03X129032000Y-158496000I-2540000J0D01*
G01*
X133350000Y-101424800D02*
X133350000Y-100535800D01*
X132334000Y-101297800D02*
X132334000Y-103329800D01*
X132334000Y-103329800D02*
X132461000Y-103329800D01*
X132461000Y-103329800D02*
X132461000Y-101297800D01*
X132588000Y-103837800D02*
X132588000Y-100789800D01*
X137160000Y-102313800D02*
G75*
G03X137160000Y-102313800I-2540000J0D01*
G01*
X124683000Y-155921000D02*
X123983000Y-155921000D01*
X123983000Y-154721000D02*
X124683000Y-154721000D01*
X135224000Y-99611800D02*
X134524000Y-99611800D01*
X134524000Y-98411800D02*
X135224000Y-98411800D01*
X122016000Y-151222000D02*
X121316000Y-151222000D01*
X121316000Y-150022000D02*
X122016000Y-150022000D01*
X138019158Y-130810318D02*
X137319158Y-130810318D01*
X137319158Y-129610318D02*
X138019158Y-129610318D01*
X138019158Y-121158318D02*
X137319158Y-121158318D01*
X137319158Y-119958318D02*
X138019158Y-119958318D01*
X112364000Y-144618000D02*
X111664000Y-144618000D01*
X111664000Y-143418000D02*
X112364000Y-143418000D01*
X115728000Y-120812000D02*
X116428000Y-120812000D01*
X116428000Y-122012000D02*
X115728000Y-122012000D01*
X112301425Y-167283713D02*
X112301425Y-167983713D01*
X111101425Y-167983713D02*
X111101425Y-167283713D01*
X122332000Y-162722000D02*
X123032000Y-162722000D01*
X123032000Y-163922000D02*
X122332000Y-163922000D01*
X108554000Y-172304000D02*
X107854000Y-172304000D01*
X107854000Y-171104000D02*
X108554000Y-171104000D01*
X110902000Y-172374000D02*
X111602000Y-172374000D01*
X111602000Y-173574000D02*
X110902000Y-173574000D01*
X105760000Y-173574000D02*
X105060000Y-173574000D01*
X105060000Y-172374000D02*
X105760000Y-172374000D01*
X154299340Y-144150240D02*
X154299340Y-142849760D01*
X154299340Y-143500000D02*
X154700660Y-143251080D01*
X154299340Y-143500000D02*
X154700660Y-143799720D01*
X152699140Y-141749940D02*
X152699140Y-142100460D01*
X152699140Y-145250060D02*
X152699140Y-144899540D01*
X152249560Y-141749940D02*
X152249560Y-142100460D01*
X156750440Y-141749940D02*
X156750440Y-142100460D01*
X156750440Y-145250060D02*
X156750440Y-144899540D01*
X152249560Y-145250060D02*
X152249560Y-144899540D01*
X156750440Y-141749940D02*
X152249560Y-141749940D01*
X156750440Y-145250060D02*
X152249560Y-145250060D01*
X150046158Y-119346318D02*
X150046158Y-119671318D01*
X157296158Y-119346318D02*
X157296158Y-119671318D01*
X157296158Y-126596318D02*
X157296158Y-126271318D01*
X150046158Y-126596318D02*
X150046158Y-126271318D01*
X150046158Y-119346318D02*
X150371158Y-119346318D01*
X150046158Y-126596318D02*
X150371158Y-126596318D01*
X157296158Y-126596318D02*
X156971158Y-126596318D01*
X157296158Y-119346318D02*
X156971158Y-119346318D01*
X150046158Y-119671318D02*
X148621158Y-119671318D01*
X114300000Y-173228000D02*
X114300000Y-170688000D01*
X114300000Y-170688000D02*
X121920000Y-170688000D01*
X121920000Y-170688000D02*
X121920000Y-173228000D01*
X121920000Y-173228000D02*
X114300000Y-173228000D01*
X116840000Y-170688000D02*
X116840000Y-173228000D01*
X161036000Y-135636000D02*
X161036000Y-128016000D01*
X166116000Y-128016000D02*
X166116000Y-135636000D01*
X166116000Y-135636000D02*
X161036000Y-135636000D01*
X161036000Y-128016000D02*
X166116000Y-128016000D01*
X156641800Y-93423800D02*
X146481800Y-93423800D01*
X146481800Y-93423800D02*
X146481800Y-90883800D01*
X146481800Y-90883800D02*
X156641800Y-90883800D01*
X159181800Y-93423800D02*
X156641800Y-93423800D01*
X156641800Y-93423800D02*
X156641800Y-90883800D01*
X159181800Y-93423800D02*
X159181800Y-90883800D01*
X159181800Y-90883800D02*
X156641800Y-90883800D01*
X137240000Y-93447800D02*
X144860000Y-93447800D01*
X137240000Y-90907800D02*
X144860000Y-90907800D01*
X134700000Y-90907800D02*
X137240000Y-90907800D01*
X144860000Y-93447800D02*
X144860000Y-90907800D01*
X137240000Y-90907800D02*
X137240000Y-93447800D01*
X134700000Y-90907800D02*
X134700000Y-93447800D01*
X134700000Y-93447800D02*
X137240000Y-93447800D01*
X137240000Y-97447800D02*
X144860000Y-97447800D01*
X137240000Y-94907800D02*
X144860000Y-94907800D01*
X134700000Y-94907800D02*
X137240000Y-94907800D01*
X144860000Y-97447800D02*
X144860000Y-94907800D01*
X137240000Y-94907800D02*
X137240000Y-97447800D01*
X134700000Y-94907800D02*
X134700000Y-97447800D01*
X134700000Y-97447800D02*
X137240000Y-97447800D01*
D14*
X103045000Y-184830000D02*
X103045000Y-185592000D01*
X103045000Y-185592000D02*
X113205000Y-185592000D01*
X113205000Y-185592000D02*
X113205000Y-184830000D01*
X103045000Y-176448000D02*
X113205000Y-176448000D01*
X113205000Y-176448000D02*
X113205000Y-177464000D01*
X113205000Y-177464000D02*
X103045000Y-177464000D01*
X103045000Y-177464000D02*
X103045000Y-176448000D01*
X103045000Y-177210000D02*
X103045000Y-184830000D01*
X113205000Y-184830000D02*
X113205000Y-177210000D01*
X113205000Y-184830000D02*
X113205000Y-185592000D01*
X113205000Y-185592000D02*
X123365000Y-185592000D01*
X123365000Y-185592000D02*
X123365000Y-184830000D01*
X113205000Y-176448000D02*
X123365000Y-176448000D01*
X123365000Y-176448000D02*
X123365000Y-177464000D01*
X123365000Y-177464000D02*
X113205000Y-177464000D01*
X113205000Y-177464000D02*
X113205000Y-176448000D01*
X113205000Y-177210000D02*
X113205000Y-184830000D01*
X123365000Y-184830000D02*
X123365000Y-177210000D01*
D11*
X144018000Y-154813000D02*
X142113000Y-154813000D01*
X139573000Y-154813000D02*
X140335000Y-154813000D01*
X137160000Y-154813000D02*
X137033000Y-154813000D01*
X137160000Y-154813000D02*
X137795000Y-154813000D01*
X133350000Y-154813000D02*
X135128000Y-154813000D01*
X133350000Y-158496000D02*
X135001000Y-158496000D01*
X137668000Y-158623000D02*
X137033000Y-158623000D01*
X140208000Y-158623000D02*
X139573000Y-158623000D01*
X144018000Y-158496000D02*
X142367000Y-158496000D01*
X137160000Y-153670000D02*
X137160000Y-154813000D01*
X140208000Y-153670000D02*
X140208000Y-154813000D01*
X144018000Y-154813000D02*
X144018000Y-158496000D01*
X133350000Y-158496000D02*
X133350000Y-154813000D01*
X144018000Y-153670000D02*
X144018000Y-154813000D01*
X133350000Y-154813000D02*
X133350000Y-153670000D01*
X138684000Y-153670000D02*
X133350000Y-153670000D01*
X138684000Y-153670000D02*
X144018000Y-153670000D01*
X139184000Y-99763000D02*
X138184000Y-99763000D01*
X138184000Y-98413000D02*
X139184000Y-98413000D01*
X139692000Y-103065000D02*
X138692000Y-103065000D01*
X138692000Y-101715000D02*
X139692000Y-101715000D01*
X162305000Y-142540000D02*
X163305000Y-142540000D01*
X163305000Y-143890000D02*
X162305000Y-143890000D01*
X150106000Y-104053000D02*
X149106000Y-104053000D01*
X149106000Y-102703000D02*
X150106000Y-102703000D01*
X117594000Y-170093000D02*
X116594000Y-170093000D01*
X116594000Y-168743000D02*
X117594000Y-168743000D01*
X137914000Y-153599000D02*
X136914000Y-153599000D01*
X136914000Y-152249000D02*
X137914000Y-152249000D01*
X126746000Y-147066000D02*
X123698000Y-147066000D01*
X123698000Y-147066000D02*
X123698000Y-154178000D01*
X123698000Y-154178000D02*
X126746000Y-154178000D01*
X129794000Y-147066000D02*
X130556000Y-147066000D01*
X130556000Y-147066000D02*
X132842000Y-148590000D01*
X132842000Y-148590000D02*
X132842000Y-152654000D01*
X132842000Y-152654000D02*
X130556000Y-154178000D01*
X130556000Y-154178000D02*
X129794000Y-154178000D01*
X105822425Y-166246713D02*
X105967425Y-166246713D01*
X105822425Y-162096713D02*
X105967425Y-162096713D01*
X110972425Y-162096713D02*
X110827425Y-162096713D01*
X110972425Y-166246713D02*
X110827425Y-166246713D01*
X105822425Y-166246713D02*
X105822425Y-162096713D01*
X110972425Y-166246713D02*
X110972425Y-162096713D01*
X105967425Y-166246713D02*
X105967425Y-167646713D01*
X121193000Y-158453000D02*
X121048000Y-158453000D01*
X121193000Y-162603000D02*
X121048000Y-162603000D01*
X116043000Y-162603000D02*
X116188000Y-162603000D01*
X116043000Y-158453000D02*
X116188000Y-158453000D01*
X121193000Y-158453000D02*
X121193000Y-162603000D01*
X116043000Y-158453000D02*
X116043000Y-162603000D01*
X121048000Y-158453000D02*
X121048000Y-157053000D01*
X144359518Y-131233938D02*
X144359518Y-119534698D01*
X139360798Y-119534698D02*
X139360798Y-131233938D01*
X144359518Y-119534698D02*
X143511158Y-119534698D01*
X139360798Y-119534698D02*
X140209158Y-119534698D01*
X144359518Y-131233938D02*
X143511158Y-131233938D01*
X139360798Y-131233938D02*
X140209158Y-131233938D01*
D14*
X133525000Y-184830000D02*
X133525000Y-185592000D01*
X133525000Y-185592000D02*
X143685000Y-185592000D01*
X143685000Y-185592000D02*
X143685000Y-184830000D01*
X133525000Y-176448000D02*
X143685000Y-176448000D01*
X143685000Y-176448000D02*
X143685000Y-177464000D01*
X143685000Y-177464000D02*
X133525000Y-177464000D01*
X133525000Y-177464000D02*
X133525000Y-176448000D01*
X133525000Y-177210000D02*
X133525000Y-184830000D01*
X143685000Y-184830000D02*
X143685000Y-177210000D01*
X123365000Y-184830000D02*
X123365000Y-185592000D01*
X123365000Y-185592000D02*
X133525000Y-185592000D01*
X133525000Y-185592000D02*
X133525000Y-184830000D01*
X123365000Y-176448000D02*
X133525000Y-176448000D01*
X133525000Y-176448000D02*
X133525000Y-177464000D01*
X133525000Y-177464000D02*
X123365000Y-177464000D01*
X123365000Y-177464000D02*
X123365000Y-176448000D01*
X123365000Y-177210000D02*
X123365000Y-184830000D01*
X133525000Y-184830000D02*
X133525000Y-177210000D01*
D11*
X133223000Y-166525000D02*
X133223000Y-167160000D01*
X133223000Y-167160000D02*
X124333000Y-167160000D01*
X124333000Y-167160000D02*
X124333000Y-166525000D01*
X133223000Y-162715000D02*
X133223000Y-166525000D01*
X133223000Y-166525000D02*
X124333000Y-166525000D01*
X124333000Y-166525000D02*
X124333000Y-162715000D01*
X124333000Y-162715000D02*
X133223000Y-162715000D01*
X110276412Y-126354178D02*
X110276412Y-127254178D01*
X110276412Y-127254178D02*
X109476412Y-127254178D01*
X107276412Y-126354178D02*
X107276412Y-127254178D01*
X107276412Y-127254178D02*
X108076412Y-127254178D01*
X108476412Y-125854178D02*
X109076412Y-125854178D01*
X108545000Y-155948000D02*
X108545000Y-154948000D01*
X109895000Y-154948000D02*
X109895000Y-155948000D01*
X121912000Y-122849000D02*
X120912000Y-122849000D01*
X120912000Y-121499000D02*
X121912000Y-121499000D01*
X108400412Y-122577178D02*
X109400412Y-122577178D01*
X109400412Y-123927178D02*
X108400412Y-123927178D01*
X107216425Y-155941713D02*
X107216425Y-154941713D01*
X108566425Y-154941713D02*
X108566425Y-155941713D01*
X110498000Y-173823000D02*
X111498000Y-173823000D01*
X111498000Y-175173000D02*
X110498000Y-175173000D01*
X105910000Y-175173000D02*
X104910000Y-175173000D01*
X104910000Y-173823000D02*
X105910000Y-173823000D01*
D15*
X154500000Y-168500000D02*
X154500000Y-169500000D01*
X154500000Y-169500000D02*
X155700000Y-171200000D01*
X153400000Y-170500000D02*
G75*
G03X153400000Y-170500000I-400000J0D01*
G01*
X156400000Y-170500000D02*
G75*
G03X156400000Y-170500000I-400000J0D01*
G01*
X156200000Y-163500000D02*
G75*
G03X156200000Y-163500000I-200000J0D01*
G01*
X153200000Y-173500000D02*
G75*
G03X153200000Y-173500000I-200000J0D01*
G01*
X154700000Y-168500000D02*
G75*
G03X154700000Y-168500000I-200000J0D01*
G01*
X156000000Y-163500000D02*
X156000000Y-170500000D01*
X158200000Y-163500000D02*
X150800000Y-163500000D01*
X158200000Y-173500000D02*
X150800000Y-173500000D01*
X158200000Y-168500000D02*
X155900000Y-168500000D01*
X153000000Y-170500000D02*
X153000000Y-173500000D01*
X150800000Y-168500000D02*
X155900000Y-168500000D01*
X150690000Y-148510000D02*
X153738000Y-148510000D01*
X158310000Y-148510000D02*
X155262000Y-148510000D01*
X153738000Y-147494000D02*
X155262000Y-149526000D01*
X155262000Y-147494000D02*
X155262000Y-149526000D01*
X155262000Y-149526000D02*
X153738000Y-149526000D01*
X153738000Y-149526000D02*
X153738000Y-147494000D01*
X153738000Y-147494000D02*
X155262000Y-147494000D01*
X160700000Y-145500000D02*
X148300000Y-145500000D01*
X148300000Y-145500000D02*
X148300000Y-174500000D01*
X160700000Y-174500000D02*
X148300000Y-174500000D01*
X160700000Y-145500000D02*
X160700000Y-174500000D01*
D11*
X97685860Y-165209220D02*
X99156520Y-164848540D01*
X99156520Y-164848540D02*
X98094800Y-164569140D01*
X98094800Y-164569140D02*
X99166680Y-164259260D01*
X99166680Y-164259260D02*
X97716340Y-163918900D01*
X98376740Y-166629080D02*
X98366580Y-165839140D01*
X98366580Y-165839140D02*
X98376740Y-165828980D01*
X98376740Y-165828980D02*
X98366580Y-165828980D01*
X97655380Y-165788340D02*
X99197160Y-165788340D01*
X97645220Y-166677340D02*
X99214940Y-166677340D01*
X99214940Y-166677340D02*
X99204780Y-166667180D01*
X97746820Y-167228520D02*
X97665540Y-167579040D01*
X97665540Y-167579040D02*
X97655380Y-167899080D01*
X97655380Y-167899080D02*
X97856040Y-168137840D01*
X97856040Y-168137840D02*
X98125280Y-168168320D01*
X98125280Y-168168320D02*
X98366580Y-167927020D01*
X98366580Y-167927020D02*
X98496120Y-167538400D01*
X98496120Y-167538400D02*
X98656140Y-167358060D01*
X98656140Y-167358060D02*
X98955860Y-167317420D01*
X98955860Y-167317420D02*
X99176840Y-167548560D01*
X99176840Y-167548560D02*
X99204780Y-167868600D01*
X99204780Y-167868600D02*
X99095560Y-168219120D01*
X97645220Y-169257980D02*
X97665540Y-169506900D01*
X97665540Y-169506900D02*
X97906840Y-169748200D01*
X97906840Y-169748200D02*
X98397060Y-169837100D01*
X98397060Y-169837100D02*
X98745040Y-169809160D01*
X98745040Y-169809160D02*
X99065080Y-169608500D01*
X99065080Y-169608500D02*
X99187000Y-169357040D01*
X99187000Y-169357040D02*
X99115880Y-169047160D01*
X99115880Y-169047160D02*
X98935540Y-168828720D01*
X98935540Y-168828720D02*
X98475800Y-168757600D01*
X98475800Y-168757600D02*
X98066860Y-168808400D01*
X98066860Y-168808400D02*
X97784920Y-168917620D01*
X97784920Y-168917620D02*
X97655380Y-169278300D01*
X95925640Y-168658540D02*
X96486980Y-168917620D01*
X96486980Y-168917620D02*
X97005140Y-168379140D01*
X97005140Y-168379140D02*
X96735900Y-167858440D01*
X96735900Y-167858440D02*
X96895920Y-167579040D01*
X96875600Y-166138860D02*
X96685100Y-165808660D01*
X96685100Y-165808660D02*
X97015300Y-165369240D01*
X97015300Y-165369240D02*
X96525080Y-164896800D01*
X96525080Y-164896800D02*
X96045020Y-165178740D01*
X96045020Y-165178740D02*
X95575120Y-164988240D01*
X95575120Y-164988240D02*
X95387160Y-164378640D01*
X95387160Y-164378640D02*
X94706440Y-164378640D01*
X94706440Y-164378640D02*
X94566740Y-164937440D01*
X94566740Y-164937440D02*
X93995240Y-165138100D01*
X93995240Y-165138100D02*
X93525340Y-164868860D01*
X93525340Y-164868860D02*
X93014800Y-165338760D01*
X93014800Y-165338760D02*
X93276420Y-165856920D01*
X93276420Y-165856920D02*
X93075760Y-166326820D01*
X93075760Y-166326820D02*
X92534740Y-166497000D01*
X92534740Y-166497000D02*
X92516960Y-167187880D01*
X92516960Y-167187880D02*
X93065600Y-167398700D01*
X93065600Y-167398700D02*
X93235780Y-167817800D01*
X93235780Y-167817800D02*
X92966540Y-168368980D01*
X92966540Y-168368980D02*
X93494860Y-168887140D01*
X93494860Y-168887140D02*
X94035880Y-168638220D01*
X94035880Y-168638220D02*
X94515940Y-168808400D01*
X94515940Y-168808400D02*
X94615000Y-169357040D01*
X94615000Y-169357040D02*
X95316040Y-169367200D01*
X95316040Y-169367200D02*
X95516700Y-168808400D01*
X95516700Y-168808400D02*
X95915480Y-168668700D01*
X95895160Y-166527480D02*
X95745300Y-166227760D01*
X95745300Y-166227760D02*
X95547180Y-166027100D01*
X95547180Y-166027100D02*
X95145860Y-165877240D01*
X95145860Y-165877240D02*
X94747080Y-165877240D01*
X94747080Y-165877240D02*
X94396560Y-166027100D01*
X94396560Y-166027100D02*
X94046040Y-166479220D01*
X94046040Y-166479220D02*
X93995240Y-166928800D01*
X93995240Y-166928800D02*
X94096840Y-167327580D01*
X94096840Y-167327580D02*
X94444820Y-167728900D01*
X94444820Y-167728900D02*
X94896940Y-167878760D01*
X94896940Y-167878760D02*
X95394780Y-167827960D01*
X95394780Y-167827960D02*
X95697040Y-167579040D01*
X95697040Y-167579040D02*
X95895160Y-167228520D01*
X95895160Y-167228520D02*
X96895920Y-167579040D01*
X95895160Y-166527480D02*
X96895920Y-166128700D01*
X144754000Y-105918000D02*
X144754000Y-104368000D01*
X144754000Y-104368000D02*
X147854000Y-104368000D01*
X147854000Y-104368000D02*
X147854000Y-105918000D01*
X147574000Y-107188000D02*
X147574000Y-117348000D01*
X147574000Y-117348000D02*
X145034000Y-117348000D01*
X145034000Y-117348000D02*
X145034000Y-107188000D01*
X147574000Y-107188000D02*
X145034000Y-107188000D01*
X150106000Y-109133000D02*
X149106000Y-109133000D01*
X149106000Y-107783000D02*
X150106000Y-107783000D01*
X150106000Y-111419000D02*
X149106000Y-111419000D01*
X149106000Y-110069000D02*
X150106000Y-110069000D01*
X149256000Y-105318000D02*
X149956000Y-105318000D01*
X149956000Y-106518000D02*
X149256000Y-106518000D01*
X139954000Y-136398000D02*
X145034000Y-136398000D01*
X145034000Y-136398000D02*
X145034000Y-133858000D01*
X145034000Y-133858000D02*
X139954000Y-133858000D01*
X137134000Y-133578000D02*
X138684000Y-133578000D01*
X139954000Y-133858000D02*
X139954000Y-136398000D01*
X138684000Y-136678000D02*
X137134000Y-136678000D01*
X137134000Y-136678000D02*
X137134000Y-133578000D01*
X118618000Y-167640000D02*
X119253000Y-167640000D01*
X119253000Y-167640000D02*
X119253000Y-166624000D01*
X117475000Y-166624000D02*
X117475000Y-167640000D01*
X117475000Y-167640000D02*
X118110000Y-167640000D01*
X118618000Y-167767000D02*
X118618000Y-167640000D01*
X118110000Y-167640000D02*
X118110000Y-167767000D01*
X119253000Y-166624000D02*
X117475000Y-166624000D01*
X118110000Y-167767000D02*
X118618000Y-167767000D01*
X116586000Y-175006000D02*
X116586000Y-175641000D01*
X116586000Y-175641000D02*
X117602000Y-175641000D01*
X117602000Y-173863000D02*
X116586000Y-173863000D01*
X116586000Y-173863000D02*
X116586000Y-174498000D01*
X116459000Y-175006000D02*
X116586000Y-175006000D01*
X116586000Y-174498000D02*
X116459000Y-174498000D01*
X117602000Y-175641000D02*
X117602000Y-173863000D01*
X116459000Y-174498000D02*
X116459000Y-175006000D01*
X108458000Y-174498000D02*
X109093000Y-174498000D01*
X109093000Y-174498000D02*
X109093000Y-173482000D01*
X107315000Y-173482000D02*
X107315000Y-174498000D01*
X107315000Y-174498000D02*
X107950000Y-174498000D01*
X108458000Y-174625000D02*
X108458000Y-174498000D01*
X107950000Y-174498000D02*
X107950000Y-174625000D01*
X109093000Y-173482000D02*
X107315000Y-173482000D01*
X107950000Y-174625000D02*
X108458000Y-174625000D01*
X114628572Y-107085714D02*
X114557143Y-107157143D01*
X114342857Y-107228571D01*
X114200000Y-107228571D01*
X113985715Y-107157143D01*
X113842857Y-107014286D01*
X113771429Y-106871429D01*
X113700000Y-106585714D01*
X113700000Y-106371429D01*
X113771429Y-106085714D01*
X113842857Y-105942857D01*
X113985715Y-105800000D01*
X114200000Y-105728571D01*
X114342857Y-105728571D01*
X114557143Y-105800000D01*
X114628572Y-105871429D01*
X115557143Y-105728571D02*
X115842857Y-105728571D01*
X115985715Y-105800000D01*
X116128572Y-105942857D01*
X116200000Y-106228571D01*
X116200000Y-106728571D01*
X116128572Y-107014286D01*
X115985715Y-107157143D01*
X115842857Y-107228571D01*
X115557143Y-107228571D01*
X115414286Y-107157143D01*
X115271429Y-107014286D01*
X115200000Y-106728571D01*
X115200000Y-106228571D01*
X115271429Y-105942857D01*
X115414286Y-105800000D01*
X115557143Y-105728571D01*
X116842858Y-107228571D02*
X116842858Y-105728571D01*
X117700001Y-107228571D01*
X117700001Y-105728571D01*
X119200001Y-107228571D02*
X118342858Y-107228571D01*
X118771430Y-107228571D02*
X118771430Y-105728571D01*
X118628573Y-105942857D01*
X118485715Y-106085714D01*
X118342858Y-106157143D01*
X109601095Y-135977381D02*
X109601095Y-136786905D01*
X109648714Y-136882143D01*
X109696333Y-136929762D01*
X109791571Y-136977381D01*
X109982048Y-136977381D01*
X110077286Y-136929762D01*
X110124905Y-136882143D01*
X110172524Y-136786905D01*
X110172524Y-135977381D01*
X110553476Y-135977381D02*
X111172524Y-135977381D01*
X110839190Y-136358333D01*
X110982048Y-136358333D01*
X111077286Y-136405952D01*
X111124905Y-136453571D01*
X111172524Y-136548810D01*
X111172524Y-136786905D01*
X111124905Y-136882143D01*
X111077286Y-136929762D01*
X110982048Y-136977381D01*
X110696333Y-136977381D01*
X110601095Y-136929762D01*
X110553476Y-136882143D01*
X104044762Y-158789619D02*
X103949524Y-158742000D01*
X103854286Y-158646762D01*
X103711429Y-158503905D01*
X103616190Y-158456286D01*
X103520952Y-158456286D01*
X103568571Y-158694381D02*
X103473333Y-158646762D01*
X103378095Y-158551524D01*
X103330476Y-158361048D01*
X103330476Y-158027714D01*
X103378095Y-157837238D01*
X103473333Y-157742000D01*
X103568571Y-157694381D01*
X103759048Y-157694381D01*
X103854286Y-157742000D01*
X103949524Y-157837238D01*
X103997143Y-158027714D01*
X103997143Y-158361048D01*
X103949524Y-158551524D01*
X103854286Y-158646762D01*
X103759048Y-158694381D01*
X103568571Y-158694381D01*
X104854286Y-158027714D02*
X104854286Y-158694381D01*
X104616190Y-157646762D02*
X104378095Y-158361048D01*
X104997143Y-158361048D01*
X159924762Y-144819619D02*
X159829524Y-144772000D01*
X159734286Y-144676762D01*
X159591429Y-144533905D01*
X159496190Y-144486286D01*
X159400952Y-144486286D01*
X159448571Y-144724381D02*
X159353333Y-144676762D01*
X159258095Y-144581524D01*
X159210476Y-144391048D01*
X159210476Y-144057714D01*
X159258095Y-143867238D01*
X159353333Y-143772000D01*
X159448571Y-143724381D01*
X159639048Y-143724381D01*
X159734286Y-143772000D01*
X159829524Y-143867238D01*
X159877143Y-144057714D01*
X159877143Y-144391048D01*
X159829524Y-144581524D01*
X159734286Y-144676762D01*
X159639048Y-144724381D01*
X159448571Y-144724381D01*
X160829524Y-144724381D02*
X160258095Y-144724381D01*
X160543809Y-144724381D02*
X160543809Y-143724381D01*
X160448571Y-143867238D01*
X160353333Y-143962476D01*
X160258095Y-144010095D01*
X123912334Y-169521143D02*
X123864715Y-169568762D01*
X123721858Y-169616381D01*
X123626620Y-169616381D01*
X123483762Y-169568762D01*
X123388524Y-169473524D01*
X123340905Y-169378286D01*
X123293286Y-169187810D01*
X123293286Y-169044952D01*
X123340905Y-168854476D01*
X123388524Y-168759238D01*
X123483762Y-168664000D01*
X123626620Y-168616381D01*
X123721858Y-168616381D01*
X123864715Y-168664000D01*
X123912334Y-168711619D01*
X124864715Y-169616381D02*
X124293286Y-169616381D01*
X124579000Y-169616381D02*
X124579000Y-168616381D01*
X124483762Y-168759238D01*
X124388524Y-168854476D01*
X124293286Y-168902095D01*
X145375334Y-121007143D02*
X145327715Y-121054762D01*
X145184858Y-121102381D01*
X145089620Y-121102381D01*
X144946762Y-121054762D01*
X144851524Y-120959524D01*
X144803905Y-120864286D01*
X144756286Y-120673810D01*
X144756286Y-120530952D01*
X144803905Y-120340476D01*
X144851524Y-120245238D01*
X144946762Y-120150000D01*
X145089620Y-120102381D01*
X145184858Y-120102381D01*
X145327715Y-120150000D01*
X145375334Y-120197619D01*
X145756286Y-120197619D02*
X145803905Y-120150000D01*
X145899143Y-120102381D01*
X146137239Y-120102381D01*
X146232477Y-120150000D01*
X146280096Y-120197619D01*
X146327715Y-120292857D01*
X146327715Y-120388095D01*
X146280096Y-120530952D01*
X145708667Y-121102381D01*
X146327715Y-121102381D01*
X130135334Y-161139143D02*
X130087715Y-161186762D01*
X129944858Y-161234381D01*
X129849620Y-161234381D01*
X129706762Y-161186762D01*
X129611524Y-161091524D01*
X129563905Y-160996286D01*
X129516286Y-160805810D01*
X129516286Y-160662952D01*
X129563905Y-160472476D01*
X129611524Y-160377238D01*
X129706762Y-160282000D01*
X129849620Y-160234381D01*
X129944858Y-160234381D01*
X130087715Y-160282000D01*
X130135334Y-160329619D01*
X130468667Y-160234381D02*
X131087715Y-160234381D01*
X130754381Y-160615333D01*
X130897239Y-160615333D01*
X130992477Y-160662952D01*
X131040096Y-160710571D01*
X131087715Y-160805810D01*
X131087715Y-161043905D01*
X131040096Y-161139143D01*
X130992477Y-161186762D01*
X130897239Y-161234381D01*
X130611524Y-161234381D01*
X130516286Y-161186762D01*
X130468667Y-161139143D01*
X161123334Y-121261143D02*
X161075715Y-121308762D01*
X160932858Y-121356381D01*
X160837620Y-121356381D01*
X160694762Y-121308762D01*
X160599524Y-121213524D01*
X160551905Y-121118286D01*
X160504286Y-120927810D01*
X160504286Y-120784952D01*
X160551905Y-120594476D01*
X160599524Y-120499238D01*
X160694762Y-120404000D01*
X160837620Y-120356381D01*
X160932858Y-120356381D01*
X161075715Y-120404000D01*
X161123334Y-120451619D01*
X161980477Y-120689714D02*
X161980477Y-121356381D01*
X161742381Y-120308762D02*
X161504286Y-121023048D01*
X162123334Y-121023048D01*
X145375334Y-119483143D02*
X145327715Y-119530762D01*
X145184858Y-119578381D01*
X145089620Y-119578381D01*
X144946762Y-119530762D01*
X144851524Y-119435524D01*
X144803905Y-119340286D01*
X144756286Y-119149810D01*
X144756286Y-119006952D01*
X144803905Y-118816476D01*
X144851524Y-118721238D01*
X144946762Y-118626000D01*
X145089620Y-118578381D01*
X145184858Y-118578381D01*
X145327715Y-118626000D01*
X145375334Y-118673619D01*
X146280096Y-118578381D02*
X145803905Y-118578381D01*
X145756286Y-119054571D01*
X145803905Y-119006952D01*
X145899143Y-118959333D01*
X146137239Y-118959333D01*
X146232477Y-119006952D01*
X146280096Y-119054571D01*
X146327715Y-119149810D01*
X146327715Y-119387905D01*
X146280096Y-119483143D01*
X146232477Y-119530762D01*
X146137239Y-119578381D01*
X145899143Y-119578381D01*
X145803905Y-119530762D01*
X145756286Y-119483143D01*
X161123334Y-119737143D02*
X161075715Y-119784762D01*
X160932858Y-119832381D01*
X160837620Y-119832381D01*
X160694762Y-119784762D01*
X160599524Y-119689524D01*
X160551905Y-119594286D01*
X160504286Y-119403810D01*
X160504286Y-119260952D01*
X160551905Y-119070476D01*
X160599524Y-118975238D01*
X160694762Y-118880000D01*
X160837620Y-118832381D01*
X160932858Y-118832381D01*
X161075715Y-118880000D01*
X161123334Y-118927619D01*
X161980477Y-118832381D02*
X161790000Y-118832381D01*
X161694762Y-118880000D01*
X161647143Y-118927619D01*
X161551905Y-119070476D01*
X161504286Y-119260952D01*
X161504286Y-119641905D01*
X161551905Y-119737143D01*
X161599524Y-119784762D01*
X161694762Y-119832381D01*
X161885239Y-119832381D01*
X161980477Y-119784762D01*
X162028096Y-119737143D01*
X162075715Y-119641905D01*
X162075715Y-119403810D01*
X162028096Y-119308571D01*
X161980477Y-119260952D01*
X161885239Y-119213333D01*
X161694762Y-119213333D01*
X161599524Y-119260952D01*
X161551905Y-119308571D01*
X161504286Y-119403810D01*
X126198334Y-161012143D02*
X126150715Y-161059762D01*
X126007858Y-161107381D01*
X125912620Y-161107381D01*
X125769762Y-161059762D01*
X125674524Y-160964524D01*
X125626905Y-160869286D01*
X125579286Y-160678810D01*
X125579286Y-160535952D01*
X125626905Y-160345476D01*
X125674524Y-160250238D01*
X125769762Y-160155000D01*
X125912620Y-160107381D01*
X126007858Y-160107381D01*
X126150715Y-160155000D01*
X126198334Y-160202619D01*
X126531667Y-160107381D02*
X127198334Y-160107381D01*
X126769762Y-161107381D01*
X126960334Y-155678143D02*
X126912715Y-155725762D01*
X126769858Y-155773381D01*
X126674620Y-155773381D01*
X126531762Y-155725762D01*
X126436524Y-155630524D01*
X126388905Y-155535286D01*
X126341286Y-155344810D01*
X126341286Y-155201952D01*
X126388905Y-155011476D01*
X126436524Y-154916238D01*
X126531762Y-154821000D01*
X126674620Y-154773381D01*
X126769858Y-154773381D01*
X126912715Y-154821000D01*
X126960334Y-154868619D01*
X127531762Y-155201952D02*
X127436524Y-155154333D01*
X127388905Y-155106714D01*
X127341286Y-155011476D01*
X127341286Y-154963857D01*
X127388905Y-154868619D01*
X127436524Y-154821000D01*
X127531762Y-154773381D01*
X127722239Y-154773381D01*
X127817477Y-154821000D01*
X127865096Y-154868619D01*
X127912715Y-154963857D01*
X127912715Y-155011476D01*
X127865096Y-155106714D01*
X127817477Y-155154333D01*
X127722239Y-155201952D01*
X127531762Y-155201952D01*
X127436524Y-155249571D01*
X127388905Y-155297190D01*
X127341286Y-155392429D01*
X127341286Y-155582905D01*
X127388905Y-155678143D01*
X127436524Y-155725762D01*
X127531762Y-155773381D01*
X127722239Y-155773381D01*
X127817477Y-155725762D01*
X127865096Y-155678143D01*
X127912715Y-155582905D01*
X127912715Y-155392429D01*
X127865096Y-155297190D01*
X127817477Y-155249571D01*
X127722239Y-155201952D01*
X131151334Y-101195143D02*
X131103715Y-101242762D01*
X130960858Y-101290381D01*
X130865620Y-101290381D01*
X130722762Y-101242762D01*
X130627524Y-101147524D01*
X130579905Y-101052286D01*
X130532286Y-100861810D01*
X130532286Y-100718952D01*
X130579905Y-100528476D01*
X130627524Y-100433238D01*
X130722762Y-100338000D01*
X130865620Y-100290381D01*
X130960858Y-100290381D01*
X131103715Y-100338000D01*
X131151334Y-100385619D01*
X131627524Y-101290381D02*
X131818000Y-101290381D01*
X131913239Y-101242762D01*
X131960858Y-101195143D01*
X132056096Y-101052286D01*
X132103715Y-100861810D01*
X132103715Y-100480857D01*
X132056096Y-100385619D01*
X132008477Y-100338000D01*
X131913239Y-100290381D01*
X131722762Y-100290381D01*
X131627524Y-100338000D01*
X131579905Y-100385619D01*
X131532286Y-100480857D01*
X131532286Y-100718952D01*
X131579905Y-100814190D01*
X131627524Y-100861810D01*
X131722762Y-100909429D01*
X131913239Y-100909429D01*
X132008477Y-100861810D01*
X132056096Y-100814190D01*
X132103715Y-100718952D01*
X121531143Y-154281143D02*
X121483524Y-154328762D01*
X121340667Y-154376381D01*
X121245429Y-154376381D01*
X121102571Y-154328762D01*
X121007333Y-154233524D01*
X120959714Y-154138286D01*
X120912095Y-153947810D01*
X120912095Y-153804952D01*
X120959714Y-153614476D01*
X121007333Y-153519238D01*
X121102571Y-153424000D01*
X121245429Y-153376381D01*
X121340667Y-153376381D01*
X121483524Y-153424000D01*
X121531143Y-153471619D01*
X122483524Y-154376381D02*
X121912095Y-154376381D01*
X122197809Y-154376381D02*
X122197809Y-153376381D01*
X122102571Y-153519238D01*
X122007333Y-153614476D01*
X121912095Y-153662095D01*
X123102571Y-153376381D02*
X123197810Y-153376381D01*
X123293048Y-153424000D01*
X123340667Y-153471619D01*
X123388286Y-153566857D01*
X123435905Y-153757333D01*
X123435905Y-153995429D01*
X123388286Y-154185905D01*
X123340667Y-154281143D01*
X123293048Y-154328762D01*
X123197810Y-154376381D01*
X123102571Y-154376381D01*
X123007333Y-154328762D01*
X122959714Y-154281143D01*
X122912095Y-154185905D01*
X122864476Y-153995429D01*
X122864476Y-153757333D01*
X122912095Y-153566857D01*
X122959714Y-153471619D01*
X123007333Y-153424000D01*
X123102571Y-153376381D01*
X132453143Y-97893143D02*
X132405524Y-97940762D01*
X132262667Y-97988381D01*
X132167429Y-97988381D01*
X132024571Y-97940762D01*
X131929333Y-97845524D01*
X131881714Y-97750286D01*
X131834095Y-97559810D01*
X131834095Y-97416952D01*
X131881714Y-97226476D01*
X131929333Y-97131238D01*
X132024571Y-97036000D01*
X132167429Y-96988381D01*
X132262667Y-96988381D01*
X132405524Y-97036000D01*
X132453143Y-97083619D01*
X133405524Y-97988381D02*
X132834095Y-97988381D01*
X133119809Y-97988381D02*
X133119809Y-96988381D01*
X133024571Y-97131238D01*
X132929333Y-97226476D01*
X132834095Y-97274095D01*
X134357905Y-97988381D02*
X133786476Y-97988381D01*
X134072190Y-97988381D02*
X134072190Y-96988381D01*
X133976952Y-97131238D01*
X133881714Y-97226476D01*
X133786476Y-97274095D01*
X119499143Y-149709143D02*
X119451524Y-149756762D01*
X119308667Y-149804381D01*
X119213429Y-149804381D01*
X119070571Y-149756762D01*
X118975333Y-149661524D01*
X118927714Y-149566286D01*
X118880095Y-149375810D01*
X118880095Y-149232952D01*
X118927714Y-149042476D01*
X118975333Y-148947238D01*
X119070571Y-148852000D01*
X119213429Y-148804381D01*
X119308667Y-148804381D01*
X119451524Y-148852000D01*
X119499143Y-148899619D01*
X120451524Y-149804381D02*
X119880095Y-149804381D01*
X120165809Y-149804381D02*
X120165809Y-148804381D01*
X120070571Y-148947238D01*
X119975333Y-149042476D01*
X119880095Y-149090095D01*
X120832476Y-148899619D02*
X120880095Y-148852000D01*
X120975333Y-148804381D01*
X121213429Y-148804381D01*
X121308667Y-148852000D01*
X121356286Y-148899619D01*
X121403905Y-148994857D01*
X121403905Y-149090095D01*
X121356286Y-149232952D01*
X120784857Y-149804381D01*
X121403905Y-149804381D01*
X132961143Y-130659143D02*
X132913524Y-130706762D01*
X132770667Y-130754381D01*
X132675429Y-130754381D01*
X132532571Y-130706762D01*
X132437333Y-130611524D01*
X132389714Y-130516286D01*
X132342095Y-130325810D01*
X132342095Y-130182952D01*
X132389714Y-129992476D01*
X132437333Y-129897238D01*
X132532571Y-129802000D01*
X132675429Y-129754381D01*
X132770667Y-129754381D01*
X132913524Y-129802000D01*
X132961143Y-129849619D01*
X133913524Y-130754381D02*
X133342095Y-130754381D01*
X133627809Y-130754381D02*
X133627809Y-129754381D01*
X133532571Y-129897238D01*
X133437333Y-129992476D01*
X133342095Y-130040095D01*
X134246857Y-129754381D02*
X134865905Y-129754381D01*
X134532571Y-130135333D01*
X134675429Y-130135333D01*
X134770667Y-130182952D01*
X134818286Y-130230571D01*
X134865905Y-130325810D01*
X134865905Y-130563905D01*
X134818286Y-130659143D01*
X134770667Y-130706762D01*
X134675429Y-130754381D01*
X134389714Y-130754381D01*
X134294476Y-130706762D01*
X134246857Y-130659143D01*
X132961143Y-121007143D02*
X132913524Y-121054762D01*
X132770667Y-121102381D01*
X132675429Y-121102381D01*
X132532571Y-121054762D01*
X132437333Y-120959524D01*
X132389714Y-120864286D01*
X132342095Y-120673810D01*
X132342095Y-120530952D01*
X132389714Y-120340476D01*
X132437333Y-120245238D01*
X132532571Y-120150000D01*
X132675429Y-120102381D01*
X132770667Y-120102381D01*
X132913524Y-120150000D01*
X132961143Y-120197619D01*
X133913524Y-121102381D02*
X133342095Y-121102381D01*
X133627809Y-121102381D02*
X133627809Y-120102381D01*
X133532571Y-120245238D01*
X133437333Y-120340476D01*
X133342095Y-120388095D01*
X134770667Y-120435714D02*
X134770667Y-121102381D01*
X134532571Y-120054762D02*
X134294476Y-120769048D01*
X134913524Y-120769048D01*
X110355143Y-146407143D02*
X110307524Y-146454762D01*
X110164667Y-146502381D01*
X110069429Y-146502381D01*
X109926571Y-146454762D01*
X109831333Y-146359524D01*
X109783714Y-146264286D01*
X109736095Y-146073810D01*
X109736095Y-145930952D01*
X109783714Y-145740476D01*
X109831333Y-145645238D01*
X109926571Y-145550000D01*
X110069429Y-145502381D01*
X110164667Y-145502381D01*
X110307524Y-145550000D01*
X110355143Y-145597619D01*
X111307524Y-146502381D02*
X110736095Y-146502381D01*
X111021809Y-146502381D02*
X111021809Y-145502381D01*
X110926571Y-145645238D01*
X110831333Y-145740476D01*
X110736095Y-145788095D01*
X112164667Y-145502381D02*
X111974190Y-145502381D01*
X111878952Y-145550000D01*
X111831333Y-145597619D01*
X111736095Y-145740476D01*
X111688476Y-145930952D01*
X111688476Y-146311905D01*
X111736095Y-146407143D01*
X111783714Y-146454762D01*
X111878952Y-146502381D01*
X112069429Y-146502381D01*
X112164667Y-146454762D01*
X112212286Y-146407143D01*
X112259905Y-146311905D01*
X112259905Y-146073810D01*
X112212286Y-145978571D01*
X112164667Y-145930952D01*
X112069429Y-145883333D01*
X111878952Y-145883333D01*
X111783714Y-145930952D01*
X111736095Y-145978571D01*
X111688476Y-146073810D01*
X112133143Y-121769143D02*
X112085524Y-121816762D01*
X111942667Y-121864381D01*
X111847429Y-121864381D01*
X111704571Y-121816762D01*
X111609333Y-121721524D01*
X111561714Y-121626286D01*
X111514095Y-121435810D01*
X111514095Y-121292952D01*
X111561714Y-121102476D01*
X111609333Y-121007238D01*
X111704571Y-120912000D01*
X111847429Y-120864381D01*
X111942667Y-120864381D01*
X112085524Y-120912000D01*
X112133143Y-120959619D01*
X113085524Y-121864381D02*
X112514095Y-121864381D01*
X112799809Y-121864381D02*
X112799809Y-120864381D01*
X112704571Y-121007238D01*
X112609333Y-121102476D01*
X112514095Y-121150095D01*
X113418857Y-120864381D02*
X114085524Y-120864381D01*
X113656952Y-121864381D01*
X113958568Y-168276570D02*
X114006187Y-168324189D01*
X114053806Y-168467046D01*
X114053806Y-168562284D01*
X114006187Y-168705142D01*
X113910949Y-168800380D01*
X113815711Y-168847999D01*
X113625235Y-168895618D01*
X113482377Y-168895618D01*
X113291901Y-168847999D01*
X113196663Y-168800380D01*
X113101425Y-168705142D01*
X113053806Y-168562284D01*
X113053806Y-168467046D01*
X113101425Y-168324189D01*
X113149044Y-168276570D01*
X114053806Y-167324189D02*
X114053806Y-167895618D01*
X114053806Y-167609904D02*
X113053806Y-167609904D01*
X113196663Y-167705142D01*
X113291901Y-167800380D01*
X113339520Y-167895618D01*
X113482377Y-166752761D02*
X113434758Y-166847999D01*
X113387139Y-166895618D01*
X113291901Y-166943237D01*
X113244282Y-166943237D01*
X113149044Y-166895618D01*
X113101425Y-166847999D01*
X113053806Y-166752761D01*
X113053806Y-166562284D01*
X113101425Y-166467046D01*
X113149044Y-166419427D01*
X113244282Y-166371808D01*
X113291901Y-166371808D01*
X113387139Y-166419427D01*
X113434758Y-166467046D01*
X113482377Y-166562284D01*
X113482377Y-166752761D01*
X113529996Y-166847999D01*
X113577615Y-166895618D01*
X113672854Y-166943237D01*
X113863330Y-166943237D01*
X113958568Y-166895618D01*
X114006187Y-166847999D01*
X114053806Y-166752761D01*
X114053806Y-166562284D01*
X114006187Y-166467046D01*
X113958568Y-166419427D01*
X113863330Y-166371808D01*
X113672854Y-166371808D01*
X113577615Y-166419427D01*
X113529996Y-166467046D01*
X113482377Y-166562284D01*
X122547143Y-162409143D02*
X122499524Y-162456762D01*
X122356667Y-162504381D01*
X122261429Y-162504381D01*
X122118571Y-162456762D01*
X122023333Y-162361524D01*
X121975714Y-162266286D01*
X121928095Y-162075810D01*
X121928095Y-161932952D01*
X121975714Y-161742476D01*
X122023333Y-161647238D01*
X122118571Y-161552000D01*
X122261429Y-161504381D01*
X122356667Y-161504381D01*
X122499524Y-161552000D01*
X122547143Y-161599619D01*
X123499524Y-162504381D02*
X122928095Y-162504381D01*
X123213809Y-162504381D02*
X123213809Y-161504381D01*
X123118571Y-161647238D01*
X123023333Y-161742476D01*
X122928095Y-161790095D01*
X123975714Y-162504381D02*
X124166190Y-162504381D01*
X124261429Y-162456762D01*
X124309048Y-162409143D01*
X124404286Y-162266286D01*
X124451905Y-162075810D01*
X124451905Y-161694857D01*
X124404286Y-161599619D01*
X124356667Y-161552000D01*
X124261429Y-161504381D01*
X124070952Y-161504381D01*
X123975714Y-161552000D01*
X123928095Y-161599619D01*
X123880476Y-161694857D01*
X123880476Y-161932952D01*
X123928095Y-162028190D01*
X123975714Y-162075810D01*
X124070952Y-162123429D01*
X124261429Y-162123429D01*
X124356667Y-162075810D01*
X124404286Y-162028190D01*
X124451905Y-161932952D01*
X104259143Y-171553143D02*
X104211524Y-171600762D01*
X104068667Y-171648381D01*
X103973429Y-171648381D01*
X103830571Y-171600762D01*
X103735333Y-171505524D01*
X103687714Y-171410286D01*
X103640095Y-171219810D01*
X103640095Y-171076952D01*
X103687714Y-170886476D01*
X103735333Y-170791238D01*
X103830571Y-170696000D01*
X103973429Y-170648381D01*
X104068667Y-170648381D01*
X104211524Y-170696000D01*
X104259143Y-170743619D01*
X104640095Y-170743619D02*
X104687714Y-170696000D01*
X104782952Y-170648381D01*
X105021048Y-170648381D01*
X105116286Y-170696000D01*
X105163905Y-170743619D01*
X105211524Y-170838857D01*
X105211524Y-170934095D01*
X105163905Y-171076952D01*
X104592476Y-171648381D01*
X105211524Y-171648381D01*
X105830571Y-170648381D02*
X105925810Y-170648381D01*
X106021048Y-170696000D01*
X106068667Y-170743619D01*
X106116286Y-170838857D01*
X106163905Y-171029333D01*
X106163905Y-171267429D01*
X106116286Y-171457905D01*
X106068667Y-171553143D01*
X106021048Y-171600762D01*
X105925810Y-171648381D01*
X105830571Y-171648381D01*
X105735333Y-171600762D01*
X105687714Y-171553143D01*
X105640095Y-171457905D01*
X105592476Y-171267429D01*
X105592476Y-171029333D01*
X105640095Y-170838857D01*
X105687714Y-170743619D01*
X105735333Y-170696000D01*
X105830571Y-170648381D01*
X101465143Y-173331143D02*
X101417524Y-173378762D01*
X101274667Y-173426381D01*
X101179429Y-173426381D01*
X101036571Y-173378762D01*
X100941333Y-173283524D01*
X100893714Y-173188286D01*
X100846095Y-172997810D01*
X100846095Y-172854952D01*
X100893714Y-172664476D01*
X100941333Y-172569238D01*
X101036571Y-172474000D01*
X101179429Y-172426381D01*
X101274667Y-172426381D01*
X101417524Y-172474000D01*
X101465143Y-172521619D01*
X101846095Y-172521619D02*
X101893714Y-172474000D01*
X101988952Y-172426381D01*
X102227048Y-172426381D01*
X102322286Y-172474000D01*
X102369905Y-172521619D01*
X102417524Y-172616857D01*
X102417524Y-172712095D01*
X102369905Y-172854952D01*
X101798476Y-173426381D01*
X102417524Y-173426381D01*
X103369905Y-173426381D02*
X102798476Y-173426381D01*
X103084190Y-173426381D02*
X103084190Y-172426381D01*
X102988952Y-172569238D01*
X102893714Y-172664476D01*
X102798476Y-172712095D01*
X96639143Y-173331143D02*
X96591524Y-173378762D01*
X96448667Y-173426381D01*
X96353429Y-173426381D01*
X96210571Y-173378762D01*
X96115333Y-173283524D01*
X96067714Y-173188286D01*
X96020095Y-172997810D01*
X96020095Y-172854952D01*
X96067714Y-172664476D01*
X96115333Y-172569238D01*
X96210571Y-172474000D01*
X96353429Y-172426381D01*
X96448667Y-172426381D01*
X96591524Y-172474000D01*
X96639143Y-172521619D01*
X97020095Y-172521619D02*
X97067714Y-172474000D01*
X97162952Y-172426381D01*
X97401048Y-172426381D01*
X97496286Y-172474000D01*
X97543905Y-172521619D01*
X97591524Y-172616857D01*
X97591524Y-172712095D01*
X97543905Y-172854952D01*
X96972476Y-173426381D01*
X97591524Y-173426381D01*
X97972476Y-172521619D02*
X98020095Y-172474000D01*
X98115333Y-172426381D01*
X98353429Y-172426381D01*
X98448667Y-172474000D01*
X98496286Y-172521619D01*
X98543905Y-172616857D01*
X98543905Y-172712095D01*
X98496286Y-172854952D01*
X97924857Y-173426381D01*
X98543905Y-173426381D01*
X153693905Y-141422381D02*
X153693905Y-140422381D01*
X153932000Y-140422381D01*
X154074858Y-140470000D01*
X154170096Y-140565238D01*
X154217715Y-140660476D01*
X154265334Y-140850952D01*
X154265334Y-140993810D01*
X154217715Y-141184286D01*
X154170096Y-141279524D01*
X154074858Y-141374762D01*
X153932000Y-141422381D01*
X153693905Y-141422381D01*
X155217715Y-141422381D02*
X154646286Y-141422381D01*
X154932000Y-141422381D02*
X154932000Y-140422381D01*
X154836762Y-140565238D01*
X154741524Y-140660476D01*
X154646286Y-140708095D01*
X157561365Y-142066467D02*
X158037556Y-142066467D01*
X157466127Y-142352181D02*
X157799460Y-141352181D01*
X158132794Y-142352181D01*
X151238355Y-142253121D02*
X151238355Y-141253121D01*
X151809784Y-142253121D02*
X151381212Y-141681692D01*
X151809784Y-141253121D02*
X151238355Y-141824550D01*
X152694968Y-117373699D02*
X152694968Y-116373699D01*
X153742587Y-117278461D02*
X153694968Y-117326080D01*
X153552111Y-117373699D01*
X153456873Y-117373699D01*
X153314015Y-117326080D01*
X153218777Y-117230842D01*
X153171158Y-117135604D01*
X153123539Y-116945128D01*
X153123539Y-116802270D01*
X153171158Y-116611794D01*
X153218777Y-116516556D01*
X153314015Y-116421318D01*
X153456873Y-116373699D01*
X153552111Y-116373699D01*
X153694968Y-116421318D01*
X153742587Y-116468937D01*
X154694968Y-117373699D02*
X154123539Y-117373699D01*
X154409253Y-117373699D02*
X154409253Y-116373699D01*
X154314015Y-116516556D01*
X154218777Y-116611794D01*
X154123539Y-116659413D01*
X162837905Y-127706381D02*
X162837905Y-126706381D01*
X163218858Y-126706381D01*
X163314096Y-126754000D01*
X163361715Y-126801619D01*
X163409334Y-126896857D01*
X163409334Y-127039714D01*
X163361715Y-127134952D01*
X163314096Y-127182571D01*
X163218858Y-127230190D01*
X162837905Y-127230190D01*
X164361715Y-127706381D02*
X163790286Y-127706381D01*
X164076000Y-127706381D02*
X164076000Y-126706381D01*
X163980762Y-126849238D01*
X163885524Y-126944476D01*
X163790286Y-126992095D01*
X151915905Y-90622381D02*
X151915905Y-89622381D01*
X152296858Y-89622381D01*
X152392096Y-89670000D01*
X152439715Y-89717619D01*
X152487334Y-89812857D01*
X152487334Y-89955714D01*
X152439715Y-90050952D01*
X152392096Y-90098571D01*
X152296858Y-90146190D01*
X151915905Y-90146190D01*
X152868286Y-89717619D02*
X152915905Y-89670000D01*
X153011143Y-89622381D01*
X153249239Y-89622381D01*
X153344477Y-89670000D01*
X153392096Y-89717619D01*
X153439715Y-89812857D01*
X153439715Y-89908095D01*
X153392096Y-90050952D01*
X152820667Y-90622381D01*
X153439715Y-90622381D01*
X139088905Y-90622381D02*
X139088905Y-89622381D01*
X139469858Y-89622381D01*
X139565096Y-89670000D01*
X139612715Y-89717619D01*
X139660334Y-89812857D01*
X139660334Y-89955714D01*
X139612715Y-90050952D01*
X139565096Y-90098571D01*
X139469858Y-90146190D01*
X139088905Y-90146190D01*
X140565096Y-89622381D02*
X140088905Y-89622381D01*
X140041286Y-90098571D01*
X140088905Y-90050952D01*
X140184143Y-90003333D01*
X140422239Y-90003333D01*
X140517477Y-90050952D01*
X140565096Y-90098571D01*
X140612715Y-90193810D01*
X140612715Y-90431905D01*
X140565096Y-90527143D01*
X140517477Y-90574762D01*
X140422239Y-90622381D01*
X140184143Y-90622381D01*
X140088905Y-90574762D01*
X140041286Y-90527143D01*
X138961905Y-94686381D02*
X138961905Y-93686381D01*
X139342858Y-93686381D01*
X139438096Y-93734000D01*
X139485715Y-93781619D01*
X139533334Y-93876857D01*
X139533334Y-94019714D01*
X139485715Y-94114952D01*
X139438096Y-94162571D01*
X139342858Y-94210190D01*
X138961905Y-94210190D01*
X140390477Y-93686381D02*
X140200000Y-93686381D01*
X140104762Y-93734000D01*
X140057143Y-93781619D01*
X139961905Y-93924476D01*
X139914286Y-94114952D01*
X139914286Y-94495905D01*
X139961905Y-94591143D01*
X140009524Y-94638762D01*
X140104762Y-94686381D01*
X140295239Y-94686381D01*
X140390477Y-94638762D01*
X140438096Y-94591143D01*
X140485715Y-94495905D01*
X140485715Y-94257810D01*
X140438096Y-94162571D01*
X140390477Y-94114952D01*
X140295239Y-94067333D01*
X140104762Y-94067333D01*
X140009524Y-94114952D01*
X139961905Y-94162571D01*
X139914286Y-94257810D01*
X133762762Y-153455619D02*
X133667524Y-153408000D01*
X133572286Y-153312762D01*
X133429429Y-153169905D01*
X133334190Y-153122286D01*
X133238952Y-153122286D01*
X133286571Y-153360381D02*
X133191333Y-153312762D01*
X133096095Y-153217524D01*
X133048476Y-153027048D01*
X133048476Y-152693714D01*
X133096095Y-152503238D01*
X133191333Y-152408000D01*
X133286571Y-152360381D01*
X133477048Y-152360381D01*
X133572286Y-152408000D01*
X133667524Y-152503238D01*
X133715143Y-152693714D01*
X133715143Y-153027048D01*
X133667524Y-153217524D01*
X133572286Y-153312762D01*
X133477048Y-153360381D01*
X133286571Y-153360381D01*
X134096095Y-152455619D02*
X134143714Y-152408000D01*
X134238952Y-152360381D01*
X134477048Y-152360381D01*
X134572286Y-152408000D01*
X134619905Y-152455619D01*
X134667524Y-152550857D01*
X134667524Y-152646095D01*
X134619905Y-152788952D01*
X134048476Y-153360381D01*
X134667524Y-153360381D01*
X141692334Y-99639381D02*
X141359000Y-99163190D01*
X141120905Y-99639381D02*
X141120905Y-98639381D01*
X141501858Y-98639381D01*
X141597096Y-98687000D01*
X141644715Y-98734619D01*
X141692334Y-98829857D01*
X141692334Y-98972714D01*
X141644715Y-99067952D01*
X141597096Y-99115571D01*
X141501858Y-99163190D01*
X141120905Y-99163190D01*
X142644715Y-99639381D02*
X142073286Y-99639381D01*
X142359000Y-99639381D02*
X142359000Y-98639381D01*
X142263762Y-98782238D01*
X142168524Y-98877476D01*
X142073286Y-98925095D01*
X139025334Y-101290381D02*
X138692000Y-100814190D01*
X138453905Y-101290381D02*
X138453905Y-100290381D01*
X138834858Y-100290381D01*
X138930096Y-100338000D01*
X138977715Y-100385619D01*
X139025334Y-100480857D01*
X139025334Y-100623714D01*
X138977715Y-100718952D01*
X138930096Y-100766571D01*
X138834858Y-100814190D01*
X138453905Y-100814190D01*
X139406286Y-100385619D02*
X139453905Y-100338000D01*
X139549143Y-100290381D01*
X139787239Y-100290381D01*
X139882477Y-100338000D01*
X139930096Y-100385619D01*
X139977715Y-100480857D01*
X139977715Y-100576095D01*
X139930096Y-100718952D01*
X139358667Y-101290381D01*
X139977715Y-101290381D01*
X160107334Y-142946381D02*
X159774000Y-142470190D01*
X159535905Y-142946381D02*
X159535905Y-141946381D01*
X159916858Y-141946381D01*
X160012096Y-141994000D01*
X160059715Y-142041619D01*
X160107334Y-142136857D01*
X160107334Y-142279714D01*
X160059715Y-142374952D01*
X160012096Y-142422571D01*
X159916858Y-142470190D01*
X159535905Y-142470190D01*
X160440667Y-141946381D02*
X161059715Y-141946381D01*
X160726381Y-142327333D01*
X160869239Y-142327333D01*
X160964477Y-142374952D01*
X161012096Y-142422571D01*
X161059715Y-142517810D01*
X161059715Y-142755905D01*
X161012096Y-142851143D01*
X160964477Y-142898762D01*
X160869239Y-142946381D01*
X160583524Y-142946381D01*
X160488286Y-142898762D01*
X160440667Y-142851143D01*
X149439334Y-102306381D02*
X149106000Y-101830190D01*
X148867905Y-102306381D02*
X148867905Y-101306381D01*
X149248858Y-101306381D01*
X149344096Y-101354000D01*
X149391715Y-101401619D01*
X149439334Y-101496857D01*
X149439334Y-101639714D01*
X149391715Y-101734952D01*
X149344096Y-101782571D01*
X149248858Y-101830190D01*
X148867905Y-101830190D01*
X150296477Y-101639714D02*
X150296477Y-102306381D01*
X150058381Y-101258762D02*
X149820286Y-101973048D01*
X150439334Y-101973048D01*
X116165334Y-168600381D02*
X115832000Y-168124190D01*
X115593905Y-168600381D02*
X115593905Y-167600381D01*
X115974858Y-167600381D01*
X116070096Y-167648000D01*
X116117715Y-167695619D01*
X116165334Y-167790857D01*
X116165334Y-167933714D01*
X116117715Y-168028952D01*
X116070096Y-168076571D01*
X115974858Y-168124190D01*
X115593905Y-168124190D01*
X117070096Y-167600381D02*
X116593905Y-167600381D01*
X116546286Y-168076571D01*
X116593905Y-168028952D01*
X116689143Y-167981333D01*
X116927239Y-167981333D01*
X117022477Y-168028952D01*
X117070096Y-168076571D01*
X117117715Y-168171810D01*
X117117715Y-168409905D01*
X117070096Y-168505143D01*
X117022477Y-168552762D01*
X116927239Y-168600381D01*
X116689143Y-168600381D01*
X116593905Y-168552762D01*
X116546286Y-168505143D01*
X136993334Y-151836381D02*
X136660000Y-151360190D01*
X136421905Y-151836381D02*
X136421905Y-150836381D01*
X136802858Y-150836381D01*
X136898096Y-150884000D01*
X136945715Y-150931619D01*
X136993334Y-151026857D01*
X136993334Y-151169714D01*
X136945715Y-151264952D01*
X136898096Y-151312571D01*
X136802858Y-151360190D01*
X136421905Y-151360190D01*
X137850477Y-150836381D02*
X137660000Y-150836381D01*
X137564762Y-150884000D01*
X137517143Y-150931619D01*
X137421905Y-151074476D01*
X137374286Y-151264952D01*
X137374286Y-151645905D01*
X137421905Y-151741143D01*
X137469524Y-151788762D01*
X137564762Y-151836381D01*
X137755239Y-151836381D01*
X137850477Y-151788762D01*
X137898096Y-151741143D01*
X137945715Y-151645905D01*
X137945715Y-151407810D01*
X137898096Y-151312571D01*
X137850477Y-151264952D01*
X137755239Y-151217333D01*
X137564762Y-151217333D01*
X137469524Y-151264952D01*
X137421905Y-151312571D01*
X137374286Y-151407810D01*
X127762095Y-145756381D02*
X127762095Y-146565905D01*
X127809714Y-146661143D01*
X127857333Y-146708762D01*
X127952571Y-146756381D01*
X128143048Y-146756381D01*
X128238286Y-146708762D01*
X128285905Y-146661143D01*
X128333524Y-146565905D01*
X128333524Y-145756381D01*
X128762095Y-145851619D02*
X128809714Y-145804000D01*
X128904952Y-145756381D01*
X129143048Y-145756381D01*
X129238286Y-145804000D01*
X129285905Y-145851619D01*
X129333524Y-145946857D01*
X129333524Y-146042095D01*
X129285905Y-146184952D01*
X128714476Y-146756381D01*
X129333524Y-146756381D01*
X103886095Y-163536381D02*
X103886095Y-164345905D01*
X103933714Y-164441143D01*
X103981333Y-164488762D01*
X104076571Y-164536381D01*
X104267048Y-164536381D01*
X104362286Y-164488762D01*
X104409905Y-164441143D01*
X104457524Y-164345905D01*
X104457524Y-163536381D01*
X105362286Y-163869714D02*
X105362286Y-164536381D01*
X105124190Y-163488762D02*
X104886095Y-164203048D01*
X105505143Y-164203048D01*
X114046095Y-159980381D02*
X114046095Y-160789905D01*
X114093714Y-160885143D01*
X114141333Y-160932762D01*
X114236571Y-160980381D01*
X114427048Y-160980381D01*
X114522286Y-160932762D01*
X114569905Y-160885143D01*
X114617524Y-160789905D01*
X114617524Y-159980381D01*
X115569905Y-159980381D02*
X115093714Y-159980381D01*
X115046095Y-160456571D01*
X115093714Y-160408952D01*
X115188952Y-160361333D01*
X115427048Y-160361333D01*
X115522286Y-160408952D01*
X115569905Y-160456571D01*
X115617524Y-160551810D01*
X115617524Y-160789905D01*
X115569905Y-160885143D01*
X115522286Y-160932762D01*
X115427048Y-160980381D01*
X115188952Y-160980381D01*
X115093714Y-160932762D01*
X115046095Y-160885143D01*
X137366476Y-124928381D02*
X138033143Y-125928381D01*
X138033143Y-124928381D02*
X137366476Y-125928381D01*
X138937905Y-125928381D02*
X138366476Y-125928381D01*
X138652190Y-125928381D02*
X138652190Y-124928381D01*
X138556952Y-125071238D01*
X138461714Y-125166476D01*
X138366476Y-125214095D01*
X122555095Y-164044381D02*
X122555095Y-164853905D01*
X122602714Y-164949143D01*
X122650333Y-164996762D01*
X122745571Y-165044381D01*
X122936048Y-165044381D01*
X123031286Y-164996762D01*
X123078905Y-164949143D01*
X123126524Y-164853905D01*
X123126524Y-164044381D01*
X124126524Y-165044381D02*
X123555095Y-165044381D01*
X123840809Y-165044381D02*
X123840809Y-164044381D01*
X123745571Y-164187238D01*
X123650333Y-164282476D01*
X123555095Y-164330095D01*
X105822762Y-127293619D02*
X105727524Y-127246000D01*
X105632286Y-127150762D01*
X105489429Y-127007905D01*
X105394190Y-126960286D01*
X105298952Y-126960286D01*
X105346571Y-127198381D02*
X105251333Y-127150762D01*
X105156095Y-127055524D01*
X105108476Y-126865048D01*
X105108476Y-126531714D01*
X105156095Y-126341238D01*
X105251333Y-126246000D01*
X105346571Y-126198381D01*
X105537048Y-126198381D01*
X105632286Y-126246000D01*
X105727524Y-126341238D01*
X105775143Y-126531714D01*
X105775143Y-126865048D01*
X105727524Y-127055524D01*
X105632286Y-127150762D01*
X105537048Y-127198381D01*
X105346571Y-127198381D01*
X106108476Y-126198381D02*
X106727524Y-126198381D01*
X106394190Y-126579333D01*
X106537048Y-126579333D01*
X106632286Y-126626952D01*
X106679905Y-126674571D01*
X106727524Y-126769810D01*
X106727524Y-127007905D01*
X106679905Y-127103143D01*
X106632286Y-127150762D01*
X106537048Y-127198381D01*
X106251333Y-127198381D01*
X106156095Y-127150762D01*
X106108476Y-127103143D01*
X106878381Y-155868666D02*
X106402190Y-156202000D01*
X106878381Y-156440095D02*
X105878381Y-156440095D01*
X105878381Y-156059142D01*
X105926000Y-155963904D01*
X105973619Y-155916285D01*
X106068857Y-155868666D01*
X106211714Y-155868666D01*
X106306952Y-155916285D01*
X106354571Y-155963904D01*
X106402190Y-156059142D01*
X106402190Y-156440095D01*
X106306952Y-155297238D02*
X106259333Y-155392476D01*
X106211714Y-155440095D01*
X106116476Y-155487714D01*
X106068857Y-155487714D01*
X105973619Y-155440095D01*
X105926000Y-155392476D01*
X105878381Y-155297238D01*
X105878381Y-155106761D01*
X105926000Y-155011523D01*
X105973619Y-154963904D01*
X106068857Y-154916285D01*
X106116476Y-154916285D01*
X106211714Y-154963904D01*
X106259333Y-155011523D01*
X106306952Y-155106761D01*
X106306952Y-155297238D01*
X106354571Y-155392476D01*
X106402190Y-155440095D01*
X106497429Y-155487714D01*
X106687905Y-155487714D01*
X106783143Y-155440095D01*
X106830762Y-155392476D01*
X106878381Y-155297238D01*
X106878381Y-155106761D01*
X106830762Y-155011523D01*
X106783143Y-154963904D01*
X106687905Y-154916285D01*
X106497429Y-154916285D01*
X106402190Y-154963904D01*
X106354571Y-155011523D01*
X106306952Y-155106761D01*
X118578334Y-121356381D02*
X118245000Y-120880190D01*
X118006905Y-121356381D02*
X118006905Y-120356381D01*
X118387858Y-120356381D01*
X118483096Y-120404000D01*
X118530715Y-120451619D01*
X118578334Y-120546857D01*
X118578334Y-120689714D01*
X118530715Y-120784952D01*
X118483096Y-120832571D01*
X118387858Y-120880190D01*
X118006905Y-120880190D01*
X119054524Y-121356381D02*
X119245000Y-121356381D01*
X119340239Y-121308762D01*
X119387858Y-121261143D01*
X119483096Y-121118286D01*
X119530715Y-120927810D01*
X119530715Y-120546857D01*
X119483096Y-120451619D01*
X119435477Y-120404000D01*
X119340239Y-120356381D01*
X119149762Y-120356381D01*
X119054524Y-120404000D01*
X119006905Y-120451619D01*
X118959286Y-120546857D01*
X118959286Y-120784952D01*
X119006905Y-120880190D01*
X119054524Y-120927810D01*
X119149762Y-120975429D01*
X119340239Y-120975429D01*
X119435477Y-120927810D01*
X119483096Y-120880190D01*
X119530715Y-120784952D01*
X104767143Y-123642381D02*
X104433809Y-123166190D01*
X104195714Y-123642381D02*
X104195714Y-122642381D01*
X104576667Y-122642381D01*
X104671905Y-122690000D01*
X104719524Y-122737619D01*
X104767143Y-122832857D01*
X104767143Y-122975714D01*
X104719524Y-123070952D01*
X104671905Y-123118571D01*
X104576667Y-123166190D01*
X104195714Y-123166190D01*
X105719524Y-123642381D02*
X105148095Y-123642381D01*
X105433809Y-123642381D02*
X105433809Y-122642381D01*
X105338571Y-122785238D01*
X105243333Y-122880476D01*
X105148095Y-122928095D01*
X106338571Y-122642381D02*
X106433810Y-122642381D01*
X106529048Y-122690000D01*
X106576667Y-122737619D01*
X106624286Y-122832857D01*
X106671905Y-123023333D01*
X106671905Y-123261429D01*
X106624286Y-123451905D01*
X106576667Y-123547143D01*
X106529048Y-123594762D01*
X106433810Y-123642381D01*
X106338571Y-123642381D01*
X106243333Y-123594762D01*
X106195714Y-123547143D01*
X106148095Y-123451905D01*
X106100476Y-123261429D01*
X106100476Y-123023333D01*
X106148095Y-122832857D01*
X106195714Y-122737619D01*
X106243333Y-122690000D01*
X106338571Y-122642381D01*
X105608381Y-155836857D02*
X105132190Y-156170191D01*
X105608381Y-156408286D02*
X104608381Y-156408286D01*
X104608381Y-156027333D01*
X104656000Y-155932095D01*
X104703619Y-155884476D01*
X104798857Y-155836857D01*
X104941714Y-155836857D01*
X105036952Y-155884476D01*
X105084571Y-155932095D01*
X105132190Y-156027333D01*
X105132190Y-156408286D01*
X105608381Y-154884476D02*
X105608381Y-155455905D01*
X105608381Y-155170191D02*
X104608381Y-155170191D01*
X104751238Y-155265429D01*
X104846476Y-155360667D01*
X104894095Y-155455905D01*
X105608381Y-153932095D02*
X105608381Y-154503524D01*
X105608381Y-154217810D02*
X104608381Y-154217810D01*
X104751238Y-154313048D01*
X104846476Y-154408286D01*
X104894095Y-154503524D01*
X102195334Y-175204381D02*
X101862000Y-174728190D01*
X101623905Y-175204381D02*
X101623905Y-174204381D01*
X102004858Y-174204381D01*
X102100096Y-174252000D01*
X102147715Y-174299619D01*
X102195334Y-174394857D01*
X102195334Y-174537714D01*
X102147715Y-174632952D01*
X102100096Y-174680571D01*
X102004858Y-174728190D01*
X101623905Y-174728190D01*
X102528667Y-174204381D02*
X103195334Y-174204381D01*
X102766762Y-175204381D01*
X96639143Y-175204381D02*
X96305809Y-174728190D01*
X96067714Y-175204381D02*
X96067714Y-174204381D01*
X96448667Y-174204381D01*
X96543905Y-174252000D01*
X96591524Y-174299619D01*
X96639143Y-174394857D01*
X96639143Y-174537714D01*
X96591524Y-174632952D01*
X96543905Y-174680571D01*
X96448667Y-174728190D01*
X96067714Y-174728190D01*
X97591524Y-175204381D02*
X97020095Y-175204381D01*
X97305809Y-175204381D02*
X97305809Y-174204381D01*
X97210571Y-174347238D01*
X97115333Y-174442476D01*
X97020095Y-174490095D01*
X97972476Y-174299619D02*
X98020095Y-174252000D01*
X98115333Y-174204381D01*
X98353429Y-174204381D01*
X98448667Y-174252000D01*
X98496286Y-174299619D01*
X98543905Y-174394857D01*
X98543905Y-174490095D01*
X98496286Y-174632952D01*
X97924857Y-175204381D01*
X98543905Y-175204381D01*
D15*
X147569429Y-160870857D02*
X146843714Y-161378857D01*
X147569429Y-161741714D02*
X146045429Y-161741714D01*
X146045429Y-161161142D01*
X146118000Y-161016000D01*
X146190571Y-160943428D01*
X146335714Y-160870857D01*
X146553429Y-160870857D01*
X146698571Y-160943428D01*
X146771143Y-161016000D01*
X146843714Y-161161142D01*
X146843714Y-161741714D01*
X147569429Y-159492000D02*
X147569429Y-160217714D01*
X146045429Y-160217714D01*
X147569429Y-158185714D02*
X147569429Y-159056571D01*
X147569429Y-158621143D02*
X146045429Y-158621143D01*
X146263143Y-158766286D01*
X146408286Y-158911428D01*
X146480857Y-159056571D01*
D11*
X145438905Y-103830381D02*
X145438905Y-102830381D01*
X145819858Y-102830381D01*
X145915096Y-102878000D01*
X145962715Y-102925619D01*
X146010334Y-103020857D01*
X146010334Y-103163714D01*
X145962715Y-103258952D01*
X145915096Y-103306571D01*
X145819858Y-103354190D01*
X145438905Y-103354190D01*
X146343667Y-102830381D02*
X147010334Y-102830381D01*
X146581762Y-103830381D01*
X148963143Y-107640381D02*
X148629809Y-107164190D01*
X148391714Y-107640381D02*
X148391714Y-106640381D01*
X148772667Y-106640381D01*
X148867905Y-106688000D01*
X148915524Y-106735619D01*
X148963143Y-106830857D01*
X148963143Y-106973714D01*
X148915524Y-107068952D01*
X148867905Y-107116571D01*
X148772667Y-107164190D01*
X148391714Y-107164190D01*
X149915524Y-107640381D02*
X149344095Y-107640381D01*
X149629809Y-107640381D02*
X149629809Y-106640381D01*
X149534571Y-106783238D01*
X149439333Y-106878476D01*
X149344095Y-106926095D01*
X150248857Y-106640381D02*
X150867905Y-106640381D01*
X150534571Y-107021333D01*
X150677429Y-107021333D01*
X150772667Y-107068952D01*
X150820286Y-107116571D01*
X150867905Y-107211810D01*
X150867905Y-107449905D01*
X150820286Y-107545143D01*
X150772667Y-107592762D01*
X150677429Y-107640381D01*
X150391714Y-107640381D01*
X150296476Y-107592762D01*
X150248857Y-107545143D01*
X148963143Y-110180381D02*
X148629809Y-109704190D01*
X148391714Y-110180381D02*
X148391714Y-109180381D01*
X148772667Y-109180381D01*
X148867905Y-109228000D01*
X148915524Y-109275619D01*
X148963143Y-109370857D01*
X148963143Y-109513714D01*
X148915524Y-109608952D01*
X148867905Y-109656571D01*
X148772667Y-109704190D01*
X148391714Y-109704190D01*
X149915524Y-110180381D02*
X149344095Y-110180381D01*
X149629809Y-110180381D02*
X149629809Y-109180381D01*
X149534571Y-109323238D01*
X149439333Y-109418476D01*
X149344095Y-109466095D01*
X150772667Y-109513714D02*
X150772667Y-110180381D01*
X150534571Y-109132762D02*
X150296476Y-109847048D01*
X150915524Y-109847048D01*
X148963143Y-105005143D02*
X148915524Y-105052762D01*
X148772667Y-105100381D01*
X148677429Y-105100381D01*
X148534571Y-105052762D01*
X148439333Y-104957524D01*
X148391714Y-104862286D01*
X148344095Y-104671810D01*
X148344095Y-104528952D01*
X148391714Y-104338476D01*
X148439333Y-104243238D01*
X148534571Y-104148000D01*
X148677429Y-104100381D01*
X148772667Y-104100381D01*
X148915524Y-104148000D01*
X148963143Y-104195619D01*
X149915524Y-105100381D02*
X149344095Y-105100381D01*
X149629809Y-105100381D02*
X149629809Y-104100381D01*
X149534571Y-104243238D01*
X149439333Y-104338476D01*
X149344095Y-104386095D01*
X150820286Y-104100381D02*
X150344095Y-104100381D01*
X150296476Y-104576571D01*
X150344095Y-104528952D01*
X150439333Y-104481333D01*
X150677429Y-104481333D01*
X150772667Y-104528952D01*
X150820286Y-104576571D01*
X150867905Y-104671810D01*
X150867905Y-104909905D01*
X150820286Y-105005143D01*
X150772667Y-105052762D01*
X150677429Y-105100381D01*
X150439333Y-105100381D01*
X150344095Y-105052762D01*
X150296476Y-105005143D01*
X115593905Y-166822381D02*
X115593905Y-165822381D01*
X115832000Y-165822381D01*
X115974858Y-165870000D01*
X116070096Y-165965238D01*
X116117715Y-166060476D01*
X116165334Y-166250952D01*
X116165334Y-166393810D01*
X116117715Y-166584286D01*
X116070096Y-166679524D01*
X115974858Y-166774762D01*
X115832000Y-166822381D01*
X115593905Y-166822381D01*
X116546286Y-165917619D02*
X116593905Y-165870000D01*
X116689143Y-165822381D01*
X116927239Y-165822381D01*
X117022477Y-165870000D01*
X117070096Y-165917619D01*
X117117715Y-166012857D01*
X117117715Y-166108095D01*
X117070096Y-166250952D01*
X116498667Y-166822381D01*
X117117715Y-166822381D01*
X113561905Y-175204381D02*
X113561905Y-174204381D01*
X113800000Y-174204381D01*
X113942858Y-174252000D01*
X114038096Y-174347238D01*
X114085715Y-174442476D01*
X114133334Y-174632952D01*
X114133334Y-174775810D01*
X114085715Y-174966286D01*
X114038096Y-175061524D01*
X113942858Y-175156762D01*
X113800000Y-175204381D01*
X113561905Y-175204381D01*
X114466667Y-174204381D02*
X115085715Y-174204381D01*
X114752381Y-174585333D01*
X114895239Y-174585333D01*
X114990477Y-174632952D01*
X115038096Y-174680571D01*
X115085715Y-174775810D01*
X115085715Y-175013905D01*
X115038096Y-175109143D01*
X114990477Y-175156762D01*
X114895239Y-175204381D01*
X114609524Y-175204381D01*
X114514286Y-175156762D01*
X114466667Y-175109143D01*
X99083905Y-174188381D02*
X99083905Y-173188381D01*
X99322000Y-173188381D01*
X99464858Y-173236000D01*
X99560096Y-173331238D01*
X99607715Y-173426476D01*
X99655334Y-173616952D01*
X99655334Y-173759810D01*
X99607715Y-173950286D01*
X99560096Y-174045524D01*
X99464858Y-174140762D01*
X99322000Y-174188381D01*
X99083905Y-174188381D01*
X100512477Y-173521714D02*
X100512477Y-174188381D01*
X100274381Y-173140762D02*
X100036286Y-173855048D01*
X100655334Y-173855048D01*
%LPC*%
D16*
X162306000Y-139446000D03*
X164846000Y-139446000D03*
X162306000Y-136906000D03*
X164846000Y-136906000D03*
D17*
X122720000Y-118850000D03*
X120170000Y-118850000D03*
X118470000Y-118850000D03*
X115220000Y-118850000D03*
X112720000Y-118850000D03*
X110220000Y-118850000D03*
X107800000Y-118850000D03*
X106100000Y-118850000D03*
X125220000Y-118850000D03*
X116970000Y-118850000D03*
X102950000Y-118850000D03*
D18*
X130446000Y-97850000D03*
D19*
X102361000Y-96700000D03*
D20*
X127890000Y-94550000D03*
X103630000Y-94550000D03*
D21*
X113186000Y-142483000D03*
X113186000Y-141833000D03*
X113186000Y-141183000D03*
X113186000Y-140533000D03*
X113186000Y-139883000D03*
X113186000Y-139233000D03*
X113186000Y-138583000D03*
X113186000Y-137933000D03*
X107286000Y-137933000D03*
X107286000Y-138583000D03*
X107286000Y-139233000D03*
X107286000Y-139883000D03*
X107286000Y-140533000D03*
X107286000Y-141183000D03*
X107286000Y-141833000D03*
X107286000Y-142483000D03*
D22*
X158385000Y-181020000D03*
D23*
X153305000Y-181020000D03*
X148225000Y-181020000D03*
D24*
X105922925Y-159546353D03*
X106875425Y-157433073D03*
X107827925Y-159546353D03*
X163757500Y-144952360D03*
X162805000Y-147065640D03*
X161852500Y-144952360D03*
D25*
X130429000Y-171704000D03*
D26*
X126619000Y-171704000D03*
D27*
X147509158Y-123987318D03*
X145609158Y-123987318D03*
X131252000Y-162052000D03*
X129352000Y-162052000D03*
X160087158Y-125003318D03*
X161987158Y-125003318D03*
X147509158Y-122590318D03*
X145609158Y-122590318D03*
X160087158Y-123225318D03*
X161987158Y-123225318D03*
X125542000Y-162052000D03*
X127442000Y-162052000D03*
D25*
X125222000Y-158496000D03*
D26*
X127762000Y-158496000D03*
D25*
X135890000Y-102313800D03*
D26*
X133350000Y-102313800D03*
D27*
X125283000Y-155321000D03*
X123383000Y-155321000D03*
X135824000Y-99011800D03*
X133924000Y-99011800D03*
X122616000Y-150622000D03*
X120716000Y-150622000D03*
X138619158Y-130210318D03*
X136719158Y-130210318D03*
X138619158Y-120558318D03*
X136719158Y-120558318D03*
X112964000Y-144018000D03*
X111064000Y-144018000D03*
X115128000Y-121412000D03*
X117028000Y-121412000D03*
D28*
X111701425Y-166683713D03*
X111701425Y-168583713D03*
D27*
X121732000Y-163322000D03*
X123632000Y-163322000D03*
X109154000Y-171704000D03*
X107254000Y-171704000D03*
X110302000Y-172974000D03*
X112202000Y-172974000D03*
X106360000Y-172974000D03*
X104460000Y-172974000D03*
D29*
X156999360Y-143500000D03*
X152000640Y-143500000D03*
D30*
X149421158Y-120171318D03*
X149421158Y-120971318D03*
X149421158Y-121771318D03*
X149421158Y-122571318D03*
X149421158Y-123371318D03*
X149421158Y-124171318D03*
X149421158Y-124971318D03*
X149421158Y-125771318D03*
D31*
X150871158Y-127221318D03*
X151671158Y-127221318D03*
X152471158Y-127221318D03*
X153271158Y-127221318D03*
X154071158Y-127221318D03*
X154871158Y-127221318D03*
X155671158Y-127221318D03*
X156471158Y-127221318D03*
D30*
X157921158Y-125771318D03*
X157921158Y-124971318D03*
X157921158Y-124171318D03*
X157921158Y-123371318D03*
X157921158Y-122571318D03*
X157921158Y-121771318D03*
X157921158Y-120971318D03*
X157921158Y-120171318D03*
D31*
X156471158Y-118721318D03*
X155671158Y-118721318D03*
X154871158Y-118721318D03*
X154071158Y-118721318D03*
X153271158Y-118721318D03*
X152471158Y-118721318D03*
X151671158Y-118721318D03*
X150871158Y-118721318D03*
D32*
X115570000Y-171958000D03*
D16*
X118110000Y-171958000D03*
X120650000Y-171958000D03*
D32*
X162306000Y-129286000D03*
D16*
X164846000Y-129286000D03*
X162306000Y-131826000D03*
X164846000Y-131826000D03*
X162306000Y-134366000D03*
X164846000Y-134366000D03*
D33*
X157911800Y-92153800D03*
D34*
X155371800Y-92153800D03*
X152831800Y-92153800D03*
X150291800Y-92153800D03*
X147751800Y-92153800D03*
D33*
X135970000Y-92177800D03*
D34*
X138510000Y-92177800D03*
X141050000Y-92177800D03*
X143590000Y-92177800D03*
D33*
X135970000Y-96177800D03*
D34*
X138510000Y-96177800D03*
X141050000Y-96177800D03*
X143590000Y-96177800D03*
D22*
X110665000Y-181020000D03*
D23*
X105585000Y-181020000D03*
D22*
X120825000Y-181020000D03*
D23*
X115745000Y-181020000D03*
D35*
X138684000Y-156718000D03*
X136144000Y-156718000D03*
X141224000Y-156718000D03*
D36*
X137584000Y-99088000D03*
X139784000Y-99088000D03*
X138092000Y-102390000D03*
X140292000Y-102390000D03*
X163905000Y-143215000D03*
X161705000Y-143215000D03*
X148506000Y-103378000D03*
X150706000Y-103378000D03*
X115994000Y-169418000D03*
X118194000Y-169418000D03*
X136314000Y-152924000D03*
X138514000Y-152924000D03*
D37*
X131572000Y-150622000D03*
D38*
X124968000Y-150622000D03*
X124968000Y-152908000D03*
X124968000Y-148336000D03*
D39*
X106492425Y-166871713D03*
X107762425Y-166871713D03*
X109032425Y-166871713D03*
X110302425Y-166871713D03*
X110302425Y-161471713D03*
X109032425Y-161471713D03*
X107762425Y-161471713D03*
X106492425Y-161471713D03*
X120523000Y-157828000D03*
X119253000Y-157828000D03*
X117983000Y-157828000D03*
X116713000Y-157828000D03*
X116713000Y-163228000D03*
X117983000Y-163228000D03*
X119253000Y-163228000D03*
X120523000Y-163228000D03*
D40*
X141860158Y-130233178D03*
X141860158Y-120535458D03*
D22*
X141145000Y-181020000D03*
D23*
X136065000Y-181020000D03*
D22*
X130985000Y-181020000D03*
D23*
X125905000Y-181020000D03*
D41*
X131318000Y-164620000D03*
D42*
X128778000Y-164620000D03*
D41*
X126238000Y-164620000D03*
D24*
X109728912Y-125497538D03*
X108776412Y-127610818D03*
X107823912Y-125497538D03*
D43*
X109220000Y-154348000D03*
X109220000Y-156548000D03*
D36*
X120312000Y-122174000D03*
X122512000Y-122174000D03*
X110000412Y-123252178D03*
X107800412Y-123252178D03*
D43*
X107891425Y-154341713D03*
X107891425Y-156541713D03*
D36*
X112098000Y-174498000D03*
X109898000Y-174498000D03*
X104310000Y-174498000D03*
X106510000Y-174498000D03*
D44*
X150750000Y-148500000D03*
X150750000Y-163500000D03*
X150750000Y-173500000D03*
X158250000Y-168500000D03*
X158250000Y-148500000D03*
X150750000Y-168500000D03*
X158250000Y-163500000D03*
X158250000Y-173500000D03*
D45*
X146304000Y-105918000D03*
D46*
X146304000Y-108458000D03*
X146304000Y-110998000D03*
X146304000Y-113538000D03*
X146304000Y-116078000D03*
D36*
X148506000Y-108458000D03*
X150706000Y-108458000D03*
X148506000Y-110744000D03*
X150706000Y-110744000D03*
D27*
X148656000Y-105918000D03*
X150556000Y-105918000D03*
D33*
X138684000Y-135128000D03*
D34*
X141224000Y-135128000D03*
X143764000Y-135128000D03*
D24*
X117713760Y-166182040D03*
X119014240Y-166182040D03*
X118364000Y-168081960D03*
D47*
X118043960Y-174101760D03*
X118043960Y-175402240D03*
X116144040Y-174752000D03*
D24*
X107553760Y-173040040D03*
X108854240Y-173040040D03*
X108204000Y-174939960D03*
M02*
