G04 #@! TF.FileFunction,Soldermask,Top*
%FSLAX46Y46*%
G04 Gerber Fmt 4.6, Leading zero omitted, Abs format (unit mm)*
G04 Created by KiCad (PCBNEW (2015-03-05 BZR 5480)-product) date Mon 09 Mar 2015 11:20:18 AM EET*
%MOMM*%
G01*
G04 APERTURE LIST*
%ADD10C,0.100000*%
%ADD11C,1.524000*%
%ADD12R,0.900000X1.800000*%
%ADD13R,1.400000X2.000000*%
%ADD14R,1.527000X2.000000*%
%ADD15C,2.000000*%
%ADD16R,1.500000X0.450000*%
%ADD17R,2.999740X2.999740*%
%ADD18C,2.999740*%
%ADD19R,0.599440X1.000760*%
%ADD20R,1.998980X1.998980*%
%ADD21C,1.998980*%
%ADD22R,1.200000X0.750000*%
%ADD23R,0.750000X1.200000*%
%ADD24R,3.500120X1.800860*%
%ADD25R,1.600000X0.550000*%
%ADD26R,0.550000X1.600000*%
%ADD27R,1.524000X1.524000*%
%ADD28R,1.727200X2.032000*%
%ADD29O,1.727200X2.032000*%
%ADD30O,1.699260X3.500120*%
%ADD31R,1.200000X0.900000*%
%ADD32R,2.032000X3.657600*%
%ADD33R,2.032000X1.016000*%
%ADD34R,0.600000X1.550000*%
%ADD35R,2.100580X5.600700*%
%ADD36C,1.778000*%
%ADD37R,1.778000X1.778000*%
%ADD38R,0.900000X1.200000*%
%ADD39C,2.500000*%
%ADD40R,2.032000X1.727200*%
%ADD41O,2.032000X1.727200*%
%ADD42R,1.000760X0.599440*%
G04 APERTURE END LIST*
D10*
X91000000Y-89000000D02*
X91000000Y-189000000D01*
X171000000Y-89000000D02*
X91000000Y-89000000D01*
X171000000Y-189000000D02*
X171000000Y-89000000D01*
X91000000Y-189000000D02*
X171000000Y-189000000D01*
D11*
X162306000Y-139446000D03*
X164846000Y-139446000D03*
X162306000Y-136906000D03*
X164846000Y-136906000D03*
D12*
X122720000Y-118850000D03*
X120170000Y-118850000D03*
X118470000Y-118850000D03*
X115220000Y-118850000D03*
X112720000Y-118850000D03*
X110220000Y-118850000D03*
X107800000Y-118850000D03*
X106100000Y-118850000D03*
X125220000Y-118850000D03*
X116970000Y-118850000D03*
X102950000Y-118850000D03*
D13*
X130446000Y-97850000D03*
D14*
X102361000Y-96700000D03*
D15*
X127890000Y-94550000D03*
X103630000Y-94550000D03*
D16*
X113186000Y-142483000D03*
X113186000Y-141833000D03*
X113186000Y-141183000D03*
X113186000Y-140533000D03*
X113186000Y-139883000D03*
X113186000Y-139233000D03*
X113186000Y-138583000D03*
X113186000Y-137933000D03*
X107286000Y-137933000D03*
X107286000Y-138583000D03*
X107286000Y-139233000D03*
X107286000Y-139883000D03*
X107286000Y-140533000D03*
X107286000Y-141183000D03*
X107286000Y-141833000D03*
X107286000Y-142483000D03*
D17*
X158385000Y-181020000D03*
D18*
X153305000Y-181020000D03*
X148225000Y-181020000D03*
D19*
X105922925Y-159546353D03*
X106875425Y-157433073D03*
X107827925Y-159546353D03*
X163757500Y-144952360D03*
X162805000Y-147065640D03*
X161852500Y-144952360D03*
D20*
X130429000Y-171704000D03*
D21*
X126619000Y-171704000D03*
D22*
X147509158Y-123987318D03*
X145609158Y-123987318D03*
X131252000Y-162052000D03*
X129352000Y-162052000D03*
X160087158Y-125003318D03*
X161987158Y-125003318D03*
X147509158Y-122590318D03*
X145609158Y-122590318D03*
X160087158Y-123225318D03*
X161987158Y-123225318D03*
X125542000Y-162052000D03*
X127442000Y-162052000D03*
D20*
X125222000Y-158496000D03*
D21*
X127762000Y-158496000D03*
D20*
X135890000Y-102313800D03*
D21*
X133350000Y-102313800D03*
D22*
X125283000Y-155321000D03*
X123383000Y-155321000D03*
X135824000Y-99011800D03*
X133924000Y-99011800D03*
X122616000Y-150622000D03*
X120716000Y-150622000D03*
X138619158Y-130210318D03*
X136719158Y-130210318D03*
X138619158Y-120558318D03*
X136719158Y-120558318D03*
X112964000Y-144018000D03*
X111064000Y-144018000D03*
X115128000Y-121412000D03*
X117028000Y-121412000D03*
D23*
X111701425Y-166683713D03*
X111701425Y-168583713D03*
D22*
X121732000Y-163322000D03*
X123632000Y-163322000D03*
X109154000Y-171704000D03*
X107254000Y-171704000D03*
X110302000Y-172974000D03*
X112202000Y-172974000D03*
X106360000Y-172974000D03*
X104460000Y-172974000D03*
D24*
X156999360Y-143500000D03*
X152000640Y-143500000D03*
D25*
X149421158Y-120171318D03*
X149421158Y-120971318D03*
X149421158Y-121771318D03*
X149421158Y-122571318D03*
X149421158Y-123371318D03*
X149421158Y-124171318D03*
X149421158Y-124971318D03*
X149421158Y-125771318D03*
D26*
X150871158Y-127221318D03*
X151671158Y-127221318D03*
X152471158Y-127221318D03*
X153271158Y-127221318D03*
X154071158Y-127221318D03*
X154871158Y-127221318D03*
X155671158Y-127221318D03*
X156471158Y-127221318D03*
D25*
X157921158Y-125771318D03*
X157921158Y-124971318D03*
X157921158Y-124171318D03*
X157921158Y-123371318D03*
X157921158Y-122571318D03*
X157921158Y-121771318D03*
X157921158Y-120971318D03*
X157921158Y-120171318D03*
D26*
X156471158Y-118721318D03*
X155671158Y-118721318D03*
X154871158Y-118721318D03*
X154071158Y-118721318D03*
X153271158Y-118721318D03*
X152471158Y-118721318D03*
X151671158Y-118721318D03*
X150871158Y-118721318D03*
D27*
X115570000Y-171958000D03*
D11*
X118110000Y-171958000D03*
X120650000Y-171958000D03*
D27*
X162306000Y-129286000D03*
D11*
X164846000Y-129286000D03*
X162306000Y-131826000D03*
X164846000Y-131826000D03*
X162306000Y-134366000D03*
X164846000Y-134366000D03*
D28*
X157911800Y-92153800D03*
D29*
X155371800Y-92153800D03*
X152831800Y-92153800D03*
X150291800Y-92153800D03*
X147751800Y-92153800D03*
D28*
X135970000Y-92177800D03*
D29*
X138510000Y-92177800D03*
X141050000Y-92177800D03*
X143590000Y-92177800D03*
D28*
X135970000Y-96177800D03*
D29*
X138510000Y-96177800D03*
X141050000Y-96177800D03*
X143590000Y-96177800D03*
D17*
X110665000Y-181020000D03*
D18*
X105585000Y-181020000D03*
D17*
X120825000Y-181020000D03*
D18*
X115745000Y-181020000D03*
D30*
X138684000Y-156718000D03*
X136144000Y-156718000D03*
X141224000Y-156718000D03*
D31*
X137584000Y-99088000D03*
X139784000Y-99088000D03*
X138092000Y-102390000D03*
X140292000Y-102390000D03*
X163905000Y-143215000D03*
X161705000Y-143215000D03*
X148506000Y-103378000D03*
X150706000Y-103378000D03*
X115994000Y-169418000D03*
X118194000Y-169418000D03*
X136314000Y-152924000D03*
X138514000Y-152924000D03*
D32*
X131572000Y-150622000D03*
D33*
X124968000Y-150622000D03*
X124968000Y-152908000D03*
X124968000Y-148336000D03*
D34*
X106492425Y-166871713D03*
X107762425Y-166871713D03*
X109032425Y-166871713D03*
X110302425Y-166871713D03*
X110302425Y-161471713D03*
X109032425Y-161471713D03*
X107762425Y-161471713D03*
X106492425Y-161471713D03*
X120523000Y-157828000D03*
X119253000Y-157828000D03*
X117983000Y-157828000D03*
X116713000Y-157828000D03*
X116713000Y-163228000D03*
X117983000Y-163228000D03*
X119253000Y-163228000D03*
X120523000Y-163228000D03*
D35*
X141860158Y-130233178D03*
X141860158Y-120535458D03*
D17*
X141145000Y-181020000D03*
D18*
X136065000Y-181020000D03*
D17*
X130985000Y-181020000D03*
D18*
X125905000Y-181020000D03*
D36*
X131318000Y-164620000D03*
D37*
X128778000Y-164620000D03*
D36*
X126238000Y-164620000D03*
D19*
X109728912Y-125497538D03*
X108776412Y-127610818D03*
X107823912Y-125497538D03*
D38*
X109220000Y-154348000D03*
X109220000Y-156548000D03*
D31*
X120312000Y-122174000D03*
X122512000Y-122174000D03*
X110000412Y-123252178D03*
X107800412Y-123252178D03*
D38*
X107891425Y-154341713D03*
X107891425Y-156541713D03*
D31*
X112098000Y-174498000D03*
X109898000Y-174498000D03*
X104310000Y-174498000D03*
X106510000Y-174498000D03*
D39*
X150750000Y-148500000D03*
X150750000Y-163500000D03*
X150750000Y-173500000D03*
X158250000Y-168500000D03*
X158250000Y-148500000D03*
X150750000Y-168500000D03*
X158250000Y-163500000D03*
X158250000Y-173500000D03*
D40*
X146304000Y-105918000D03*
D41*
X146304000Y-108458000D03*
X146304000Y-110998000D03*
X146304000Y-113538000D03*
X146304000Y-116078000D03*
D31*
X148506000Y-108458000D03*
X150706000Y-108458000D03*
X148506000Y-110744000D03*
X150706000Y-110744000D03*
D22*
X148656000Y-105918000D03*
X150556000Y-105918000D03*
D28*
X138684000Y-135128000D03*
D29*
X141224000Y-135128000D03*
X143764000Y-135128000D03*
D19*
X117713760Y-166182040D03*
X119014240Y-166182040D03*
X118364000Y-168081960D03*
D42*
X118043960Y-174101760D03*
X118043960Y-175402240D03*
X116144040Y-174752000D03*
D19*
X107553760Y-173040040D03*
X108854240Y-173040040D03*
X108204000Y-174939960D03*
M02*
