M48
;DRILL file {kicad (2015-03-05 BZR 5480)-product} date Mon 09 Mar 2015 11:04:26 AM EET
;FORMAT={-:-/ absolute / metric / decimal}
FMAT,2
METRIC,TZ
T1C0.400
T2C0.800
T3C1.001
T4C1.016
T5C1.143
T6C1.250
T7C1.500
T8C3.500
%
G90
G05
M71
T1
X104.521Y-135.001
X105.283Y-153.035
X106.426Y-165.1
X106.811Y-159.562
X107.442Y-136.906
X107.569Y-149.987
X108.712Y-139.7
X108.712Y-141.224
X108.966Y-136.401
X109.245Y-153.035
X109.982Y-122.174
X110.236Y-117.348
X111.125Y-145.288
X111.633Y-142.621
X112.268Y-150.114
X112.649Y-136.398
X112.776Y-135.001
X112.776Y-145.034
X113.005Y-166.624
X113.03Y-168.402
X113.386Y-153.035
X113.665Y-137.16
X114.046Y-148.641
X114.554Y-155.194
X114.554Y-157.48
X115.062Y-122.428
X115.062Y-137.668
X115.062Y-140.208
X115.824Y-163.068
X116.205Y-152.146
X116.332Y-141.732
X116.586Y-161.798
X116.586Y-164.592
X116.84Y-117.348
X116.84Y-138.938
X117.094Y-120.396
X117.856Y-143.002
X118.872Y-138.938
X119.126Y-167.386
X119.38Y-168.656
X119.634Y-123.19
X120.142Y-144.416
X120.396Y-138.176
X120.396Y-138.176
X120.396Y-138.176
X121.158Y-143.764
X121.158Y-143.764
X121.158Y-143.764
X121.158Y-143.764
X121.158Y-143.764
X121.412Y-137.414
X121.666Y-155.194
X122.174Y-149.098
X122.428Y-143.7
X122.428Y-152.146
X122.936Y-148.082
X123.444Y-162.306
X126.746Y-147.32
X127.Y-149.606
X127.254Y-148.336
X129.286Y-160.528
X135.636Y-120.396
X135.636Y-130.048
X136.144Y-136.398
X136.144Y-144.018
X136.652Y-121.412
X136.652Y-129.286
X139.5Y-100.5
X142.Y-99.
X143.51Y-93.98
X144.Y-157.
X144.272Y-122.428
X144.41Y-123.56
X144.78Y-97.282
X144.78Y-100.613
X145.034Y-92.202
X145.034Y-121.666
X145.288Y-96.266
X145.654Y-126.714
X146.304Y-92.202
X146.731Y-126.954
X146.972Y-119.647
X146.974Y-118.541
X147.688Y-127.491
X147.828Y-93.726
X148.59Y-126.746
X148.59Y-126.746
X148.59Y-126.746
X148.59Y-126.746
X148.59Y-126.746
X148.59Y-126.746
X149.86Y-127.254
X150.103Y-117.392
X150.137Y-118.664
X150.368Y-116.332
X150.876Y-120.904
X150.929Y-121.872
X150.929Y-123.142
X152.4Y-115.57
X152.573Y-133.35
X152.641Y-137.909
X153.408Y-132.58
X153.53Y-137.02
X154.178Y-131.716
X154.686Y-137.033
X154.764Y-130.781
X155.194Y-135.763
X155.448Y-129.794
X156.464Y-121.666
X156.473Y-125.873
X156.517Y-122.634
X156.737Y-139.681
X157.734Y-140.512
X158.111Y-129.032
X158.242Y-127.508
X159.258Y-115.57
X161.47Y-122.126
X162.486Y-124.158
X162.676Y-122.253
X163.068Y-125.222
T2
X125.222Y-158.496
X126.619Y-171.704
X127.762Y-158.496
X130.429Y-171.704
X133.35Y-102.314
X135.89Y-102.314
T3
X136.144Y-156.718
X138.684Y-156.718
X141.224Y-156.718
T4
X115.57Y-171.958
X118.11Y-171.958
X120.65Y-171.958
X135.97Y-92.178
X135.97Y-96.178
X138.51Y-92.178
X138.51Y-96.178
X138.684Y-135.128
X141.05Y-92.178
X141.05Y-96.178
X141.224Y-135.128
X143.59Y-92.178
X143.59Y-96.178
X143.764Y-135.128
X146.304Y-105.918
X146.304Y-108.458
X146.304Y-110.998
X146.304Y-113.538
X146.304Y-116.078
X147.752Y-92.154
X150.292Y-92.154
X152.832Y-92.154
X155.372Y-92.154
X157.912Y-92.154
X162.306Y-129.286
X162.306Y-131.826
X162.306Y-134.366
X162.306Y-136.906
X162.306Y-139.446
X164.846Y-129.286
X164.846Y-131.826
X164.846Y-134.366
X164.846Y-136.906
X164.846Y-139.446
T5
X126.238Y-164.62
X128.778Y-164.62
X131.318Y-164.62
T6
X105.585Y-181.02
X110.665Y-181.02
X115.745Y-181.02
X120.825Y-181.02
X125.905Y-181.02
X130.985Y-181.02
X136.065Y-181.02
X141.145Y-181.02
X148.225Y-181.02
X153.305Y-181.02
X158.385Y-181.02
T7
X150.75Y-148.5
X150.75Y-163.5
X150.75Y-168.5
X150.75Y-173.5
X158.25Y-148.5
X158.25Y-163.5
X158.25Y-168.5
X158.25Y-173.5
T8
X97.Y-95.
X97.Y-183.
X123.48Y-133.858
X137.922Y-171.196
X165.Y-95.
X165.Y-183.
T0
M30
